<svg width="413" height="74" viewBox="0 0 413 74" fill="none" xmlns="http://www.w3.org/2000/svg"><path d="M.96 66l8.256-22.4h2.848L20.288 66H17.44l-2.048-5.76H5.856L3.776 66H.96zm5.696-7.936h7.936l-3.968-11.072-3.968 11.072zM22.498 66V42.96h2.688V66h-2.688zm13.2698.384c-1.5147 0-2.8587-.3413-4.032-1.024-1.1734-.704-2.1014-1.6747-2.784-2.912-.6614-1.2373-.9921-2.6987-.9921-4.384 0-1.664.3307-3.1147.9921-4.352.6613-1.2587 1.5786-2.2293 2.752-2.912 1.1946-.704 2.5706-1.056 4.1279-1.056 1.5361 0 2.8587.352 3.9681 1.056 1.1306.6827 1.9946 1.5893 2.592 2.72.5973 1.1307.896 2.3467.896 3.648 0 .2347-.0107.4693-.032.704v.8h-12.64c.064 1.216.3413 2.2293.832 3.04.512.7893 1.1413 1.3867 1.888 1.792.768.4053 1.5786.608 2.432.608 1.1093 0 2.0373-.256 2.784-.768.7466-.512 1.2906-1.2053 1.632-2.08h2.656c-.4267 1.472-1.248 2.6987-2.464 3.68-1.1947.96-2.7307 1.44-4.608 1.44zm0-14.368c-1.28 0-2.4214.3947-3.424 1.184-.9814.768-1.5467 1.8987-1.6961 3.392h9.9841c-.064-1.4293-.5547-2.5493-1.472-3.36-.9174-.8107-2.048-1.216-3.392-1.216zM43.5405 66l5.504-7.936-5.504-7.936h2.912l4.448 6.56 4.48-6.56h2.88l-5.504 7.936L58.2605 66h-2.88l-4.48-6.56-4.448 6.56h-2.912zm25.4735.384c-1.984 0-3.7013-.48-5.152-1.44-1.4293-.9813-2.528-2.336-3.296-4.064-.768-1.7493-1.152-3.776-1.152-6.08 0-2.304.384-4.32 1.152-6.048.768-1.7493 1.8667-3.104 3.296-4.064 1.4507-.9813 3.168-1.472 5.152-1.472s3.6907.4907 5.12 1.472c1.4293.96 2.528 2.3147 3.296 4.064.768 1.728 1.152 3.744 1.152 6.048s-.384 4.3307-1.152 6.08c-.768 1.728-1.8667 3.0827-3.296 4.064-1.4293.96-3.136 1.44-5.12 1.44zm0-2.368c1.3013 0 2.464-.3627 3.488-1.088 1.0453-.7467 1.856-1.8027 2.432-3.168.5973-1.3867.896-3.04.896-4.96s-.2987-3.5627-.896-4.928c-.576-1.3653-1.3867-2.4107-2.432-3.136-1.024-.7467-2.1867-1.12-3.488-1.12-1.3227 0-2.496.3733-3.52 1.12-1.024.7253-1.8347 1.7707-2.432 3.136-.5973 1.3653-.896 3.008-.896 4.928s.2987 3.5733.896 4.96c.5973 1.3653 1.408 2.4213 2.432 3.168 1.024.7253 2.1973 1.088 3.52 1.088zM83.7135 66V46.608l-3.616.8v-1.856l4.512-1.952h1.824V66h-2.72zm14.8082.384c-1.3013 0-2.464-.2667-3.488-.8-1.0026-.5333-1.7706-1.28-2.304-2.24L92.4737 66h-2.432V42.96h2.688v9.792c.512-.768 1.2374-1.4613 2.176-2.08.96-.6187 2.176-.928 3.648-.928 1.5783 0 2.9543.3627 4.1283 1.088 1.173.7253 2.08 1.7173 2.72 2.976.661 1.2587.992 2.688.992 4.288s-.331 3.0293-.992 4.288c-.64 1.2373-1.558 2.2187-2.752 2.944-1.174.704-2.55 1.056-4.1283 1.056zm-.288-2.336c1.0667 0 2.0053-.2453 2.8163-.736.81-.512 1.45-1.216 1.92-2.112.469-.896.704-1.9413.704-3.136s-.235-2.24-.704-3.136c-.47-.896-1.11-1.5893-1.92-2.08-.811-.512-1.7496-.768-2.8163-.768-1.0666 0-2.0053.256-2.816.768-.8106.4907-1.4506 1.184-1.92 2.08-.4693.896-.704 1.9413-.704 3.136s.2347 2.24.704 3.136c.4694.896 1.1094 1.6 1.92 2.112.8107.4907 1.7494.736 2.816.736zm18.0773 2.336c-1.514 0-2.858-.3413-4.032-1.024-1.173-.704-2.101-1.6747-2.784-2.912-.661-1.2373-.992-2.6987-.992-4.384 0-1.664.331-3.1147.992-4.352.662-1.2587 1.579-2.2293 2.752-2.912 1.195-.704 2.571-1.056 4.128-1.056 1.536 0 2.859.352 3.968 1.056 1.131.6827 1.995 1.5893 2.592 2.72.598 1.1307.896 2.3467.896 3.648 0 .2347-.01.4693-.032.704v.8h-12.64c.064 1.216.342 2.2293.832 3.04.512.7893 1.142 1.3867 1.888 1.792.768.4053 1.579.608 2.432.608 1.11 0 2.038-.256 2.784-.768.747-.512 1.291-1.2053 1.632-2.08h2.656c-.426 1.472-1.248 2.6987-2.464 3.68-1.194.96-2.73 1.44-4.608 1.44zm0-14.368c-1.28 0-2.421.3947-3.424 1.184-.981.768-1.546 1.8987-1.696 3.392h9.984c-.064-1.4293-.554-2.5493-1.472-3.36-.917-.8107-2.048-1.216-3.392-1.216zM126.434 66V50.128h2.432l.224 3.04c.491-1.0453 1.238-1.8773 2.24-2.496 1.003-.6187 2.24-.928 3.712-.928v2.816h-.736c-.938 0-1.802.1707-2.592.512-.789.32-1.418.8747-1.888 1.664-.469.7893-.704 1.8773-.704 3.264v8h-2.688zm17.208.384c-1.515 0-2.859-.3413-4.032-1.024-1.174-.704-2.102-1.6747-2.784-2.912-.662-1.2373-.992-2.6987-.992-4.384 0-1.664.33-3.1147.992-4.352.661-1.2587 1.578-2.2293 2.752-2.912 1.194-.704 2.57-1.056 4.128-1.056 1.536 0 2.858.352 3.968 1.056 1.13.6827 1.994 1.5893 2.592 2.72.597 1.1307.896 2.3467.896 3.648 0 .2347-.011.4693-.032.704v.8h-12.64c.064 1.216.341 2.2293.832 3.04.512.7893 1.141 1.3867 1.888 1.792.768.4053 1.578.608 2.432.608 1.109 0 2.037-.256 2.784-.768.746-.512 1.29-1.2053 1.632-2.08h2.656c-.427 1.472-1.248 2.6987-2.464 3.68-1.195.96-2.731 1.44-4.608 1.44zm0-14.368c-1.28 0-2.422.3947-3.424 1.184-.982.768-1.547 1.8987-1.696 3.392h9.984c-.064-1.4293-.555-2.5493-1.472-3.36-.918-.8107-2.048-1.216-3.392-1.216zM153.764 66V50.128h2.432l.16 2.848c.512-1.0027 1.248-1.792 2.208-2.368.96-.576 2.048-.864 3.264-.864 1.878 0 3.371.576 4.48 1.728 1.131 1.1307 1.696 2.88 1.696 5.248V66h-2.688v-8.992c0-3.3067-1.365-4.96-4.096-4.96-1.365 0-2.506.5013-3.424 1.504-.896.9813-1.344 2.3893-1.344 4.224V66h-2.688zm23.433.384c-1.899 0-3.478-.48-4.736-1.44-1.259-.96-1.995-2.2613-2.208-3.904h2.752c.17.832.608 1.5573 1.312 2.176.725.5973 1.696.896 2.912.896 1.13 0 1.962-.2347 2.496-.704.533-.4907.8-1.0667.8-1.728 0-.96-.352-1.6-1.056-1.92-.683-.32-1.654-.608-2.912-.864-.854-.1707-1.707-.416-2.56-.736-.854-.32-1.568-.768-2.144-1.344-.576-.5973-.864-1.376-.864-2.336 0-1.3867.512-2.5173 1.536-3.392 1.045-.896 2.453-1.344 4.224-1.344 1.685 0 3.061.4267 4.128 1.28 1.088.832 1.717 2.0267 1.888 3.584h-2.656c-.107-.8107-.459-1.44-1.056-1.888-.576-.4693-1.355-.704-2.336-.704-.96 0-1.707.2027-2.24.608-.512.4053-.768.9387-.768 1.6 0 .64.33 1.1413.992 1.504.682.3627 1.6.672 2.752.928.981.2133 1.909.48 2.784.8.896.2987 1.621.7573 2.176 1.376.576.5973.864 1.472.864 2.624.021 1.4293-.523 2.6133-1.632 3.552-1.088.9173-2.571 1.376-4.448 1.376zm16.192 0c-1.494 0-2.838-.3413-4.032-1.024-1.195-.6827-2.144-1.6427-2.848-2.88-.683-1.2587-1.024-2.7307-1.024-4.416 0-1.6853.352-3.1467 1.056-4.384.704-1.2587 1.653-2.2293 2.848-2.912 1.216-.6827 2.57-1.024 4.064-1.024 1.493 0 2.837.3413 4.032 1.024 1.194.6827 2.133 1.6533 2.816 2.912.704 1.2373 1.056 2.6987 1.056 4.384 0 1.6853-.352 3.1573-1.056 4.416-.704 1.2373-1.664 2.1973-2.88 2.88-1.195.6827-2.539 1.024-4.032 1.024zm0-2.304c.917 0 1.77-.224 2.56-.672.789-.448 1.429-1.12 1.92-2.016.49-.896.736-2.0053.736-3.328 0-1.3227-.246-2.432-.736-3.328-.47-.896-1.099-1.568-1.888-2.016-.79-.448-1.632-.672-2.528-.672-.918 0-1.771.224-2.56.672-.79.448-1.43 1.12-1.92 2.016-.491.896-.736 2.0053-.736 3.328 0 1.3227.245 2.432.736 3.328.49.896 1.12 1.568 1.888 2.016.789.448 1.632.672 2.528.672zm19.225 2.304c-1.301 0-2.464-.2667-3.488-.8-1.002-.5333-1.77-1.28-2.304-2.24L206.566 66h-2.432V42.96h2.688v9.792c.512-.768 1.238-1.4613 2.176-2.08.96-.6187 2.176-.928 3.648-.928 1.579 0 2.955.3627 4.128 1.088 1.174.7253 2.08 1.7173 2.72 2.976.662 1.2587.992 2.688.992 4.288s-.33 3.0293-.992 4.288c-.64 1.2373-1.557 2.2187-2.752 2.944-1.173.704-2.549 1.056-4.128 1.056zm-.288-2.336c1.067 0 2.006-.2453 2.816-.736.811-.512 1.451-1.216 1.92-2.112.47-.896.704-1.9413.704-3.136s-.234-2.24-.704-3.136c-.469-.896-1.109-1.5893-1.92-2.08-.81-.512-1.749-.768-2.816-.768-1.066 0-2.005.256-2.816.768-.81.4907-1.45 1.184-1.92 2.08-.469.896-.704 1.9413-.704 3.136s.235 2.24.704 3.136c.47.896 1.11 1.6 1.92 2.112.811.4907 1.75.736 2.816.736zM223.268 66V50.128h2.432l.224 3.04c.491-1.0453 1.237-1.8773 2.24-2.496 1.003-.6187 2.24-.928 3.712-.928v2.816h-.736c-.939 0-1.803.1707-2.592.512-.789.32-1.419.8747-1.888 1.664-.469.7893-.704 1.8773-.704 3.264v8h-2.688zm12.297-19.392c-.533 0-.981-.1707-1.344-.512-.341-.3627-.512-.8107-.512-1.344 0-.512.171-.9387.512-1.28.363-.3413.811-.512 1.344-.512.512 0 .949.1707 1.312.512.363.3413.544.768.544 1.28 0 .5333-.181.9813-.544 1.344-.363.3413-.8.512-1.312.512zM234.221 66V50.128h2.688V66h-2.688zm18.024 6.368c-2.282 0-4.288-.4373-6.016-1.312-1.706-.8747-3.04-2.112-4-3.712-.938-1.6-1.408-3.4987-1.408-5.696 0-2.2613.395-4.3733 1.184-6.336.79-1.9627 1.899-3.68 3.328-5.152 1.43-1.472 3.115-2.6133 5.056-3.424 1.942-.8107 4.075-1.216 6.4-1.216 2.368 0 4.427.4587 6.176 1.376 1.75.896 3.094 2.1547 4.032 3.776.96 1.6 1.44 3.4667 1.44 5.6 0 1.216-.149 2.4213-.448 3.616-.298 1.1733-.746 2.24-1.344 3.2-.576.9387-1.29 1.696-2.144 2.272-.832.5547-1.792.832-2.88.832-1.088 0-1.92-.2773-2.496-.832-.554-.5547-.864-1.3013-.928-2.24-.661.96-1.504 1.7173-2.528 2.272-1.002.5333-2.069.8-3.2.8-1.621 0-2.89-.4907-3.808-1.472-.896-.9813-1.344-2.304-1.344-3.968 0-1.1733.182-2.2933.544-3.36.384-1.088.918-2.048 1.6-2.88.683-.8533 1.494-1.5253 2.432-2.016.939-.4907 1.984-.736 3.136-.736 2.155 0 3.552.8853 4.192 2.656l.416-2.304h2.272l-1.6 9.152c-.149.9173-.106 1.664.128 2.24.256.5547.779.832 1.568.832.683 0 1.291-.2347 1.824-.704.534-.4907.982-1.1307 1.344-1.92.363-.8107.63-1.6747.8-2.592.192-.9387.288-1.8453.288-2.72 0-2.7947-.874-4.992-2.624-6.592-1.728-1.6-4.117-2.4-7.168-2.4-1.941 0-3.733.3627-5.376 1.088-1.621.7253-3.04 1.728-4.256 3.008-1.216 1.28-2.165 2.7627-2.848 4.448-.661 1.6853-.992 3.5093-.992 5.472 0 1.92.395 3.552 1.184 4.896.79 1.344 1.91 2.368 3.36 3.072 1.451.704 3.179 1.056 5.184 1.056.918 0 1.835-.096 2.752-.288.918-.1707 1.771-.4373 2.56-.8l.448 1.824c-1.92.7893-4 1.184-6.24 1.184zm1.024-8.224c.918 0 1.76-.2453 2.528-.736s1.398-1.1627 1.888-2.016c.491-.8747.79-1.8773.896-3.008.15-1.2587-.074-2.336-.672-3.232-.576-.896-1.514-1.344-2.816-1.344-1.088 0-2.037.32-2.848.96-.789.6187-1.397 1.4293-1.824 2.432-.426 1.0027-.64 2.048-.64 3.136 0 1.152.288 2.08.864 2.784.598.6827 1.472 1.024 2.624 1.024zm25.078-3.136c-.896 0-1.717-.1173-2.464-.352l-1.6 1.504c.235.1707.523.32.864.448.363.1067.875.2133 1.536.32.662.0853 1.59.1813 2.784.288 2.134.1493 3.659.64 4.576 1.472.918.832 1.376 1.92 1.376 3.264 0 .9173-.256 1.792-.768 2.624-.49.832-1.258 1.5147-2.304 2.048-1.024.5333-2.346.8-3.968.8-1.429 0-2.698-.192-3.808-.576-1.109-.3627-1.973-.928-2.592-1.696-.618-.7467-.928-1.696-.928-2.848 0-.5973.16-1.248.48-1.952.32-.6827.918-1.3333 1.792-1.952-.469-.192-.874-.3947-1.216-.608-.32-.2347-.618-.4907-.896-.768v-.736l2.72-2.688c-1.258-1.0667-1.888-2.4747-1.888-4.224 0-1.0453.246-1.9947.736-2.848.491-.8533 1.206-1.5253 2.144-2.016.939-.512 2.08-.768 3.424-.768.918 0 1.75.128 2.496.384h5.856v2.016l-2.976.128c.619.896.928 1.9307.928 3.104 0 1.0453-.256 1.9947-.768 2.848-.49.8533-1.205 1.536-2.144 2.048-.917.4907-2.048.736-3.392.736zm0-2.208c1.131 0 2.027-.288 2.688-.864.683-.5973 1.024-1.4507 1.024-2.56 0-1.088-.341-1.92-1.024-2.496-.661-.5973-1.557-.896-2.688-.896-1.152 0-2.069.2987-2.752.896-.661.576-.992 1.408-.992 2.496 0 1.1093.331 1.9627.992 2.56.683.576 1.6.864 2.752.864zm-4.672 9.248c0 1.0667.448 1.856 1.344 2.368.896.5333 2.016.8 3.36.8 1.323 0 2.379-.288 3.168-.864.811-.576 1.216-1.344 1.216-2.304 0-.6827-.277-1.28-.832-1.792-.554-.4907-1.578-.7787-3.072-.864-1.173-.0853-2.186-.192-3.04-.32-.874.4693-1.45.9707-1.728 1.504-.277.5547-.416 1.0453-.416 1.472zM288.772 66V50.128h2.432l.192 2.304c.512-.8533 1.194-1.5147 2.048-1.984.853-.4693 1.813-.704 2.88-.704 1.258 0 2.336.256 3.232.768.917.512 1.621 1.2907 2.112 2.336.554-.96 1.312-1.7173 2.272-2.272.981-.5547 2.037-.832 3.168-.832 1.898 0 3.413.576 4.544 1.728 1.13 1.1307 1.696 2.88 1.696 5.248V66h-2.656v-8.992c0-1.6427-.331-2.88-.992-3.712-.662-.832-1.611-1.248-2.848-1.248-1.28 0-2.347.5013-3.2 1.504-.832.9813-1.248 2.3893-1.248 4.224V66h-2.688v-8.992c0-1.6427-.331-2.88-.992-3.712-.662-.832-1.611-1.248-2.848-1.248-1.259 0-2.315.5013-3.168 1.504-.832.9813-1.248 2.3893-1.248 4.224V66h-2.688zm32.945.384c-1.323 0-2.422-.224-3.296-.672-.875-.448-1.526-1.0453-1.952-1.792-.427-.7467-.64-1.5573-.64-2.432 0-1.6213.618-2.8693 1.856-3.744 1.237-.8747 2.922-1.312 5.056-1.312h4.288v-.192c0-1.3867-.363-2.432-1.088-3.136-.726-.7253-1.696-1.088-2.912-1.088-1.046 0-1.952.2667-2.72.8-.747.512-1.216 1.2693-1.408 2.272h-2.752c.106-1.152.49-2.1227 1.152-2.912.682-.7893 1.525-1.3867 2.528-1.792 1.002-.4267 2.069-.64 3.2-.64 2.218 0 3.882.5973 4.992 1.792 1.13 1.1733 1.696 2.7413 1.696 4.704V66h-2.4l-.16-2.848c-.448.896-1.11 1.664-1.984 2.304-.854.6187-2.006.928-3.456.928zm.416-2.272c1.024 0 1.898-.2667 2.624-.8.746-.5333 1.312-1.2267 1.696-2.08.384-.8533.576-1.7493.576-2.688v-.032h-4.064c-1.579 0-2.699.2773-3.36.832-.64.5333-.96 1.2053-.96 2.016 0 .832.298 1.504.896 2.016.618.4907 1.482.736 2.592.736zm12.288-17.504c-.533 0-.981-.1707-1.344-.512-.341-.3627-.512-.8107-.512-1.344 0-.512.171-.9387.512-1.28.363-.3413.811-.512 1.344-.512.512 0 .95.1707 1.312.512.363.3413.544.768.544 1.28 0 .5333-.181.9813-.544 1.344-.362.3413-.8.512-1.312.512zM333.077 66V50.128h2.688V66h-2.688zm6.408 0V42.96h2.688V66h-2.688zm7.062.16c-.533 0-.981-.1707-1.344-.512-.341-.3627-.512-.8-.512-1.312s.171-.9387.512-1.28c.363-.3627.811-.544 1.344-.544.512 0 .939.1813 1.28.544.363.3413.544.768.544 1.28s-.181.9493-.544 1.312c-.341.3413-.768.512-1.28.512zm11.658.224c-1.514 0-2.88-.3413-4.096-1.024-1.194-.704-2.144-1.6747-2.848-2.912-.682-1.2587-1.024-2.72-1.024-4.384 0-1.664.342-3.1147 1.024-4.352.704-1.2587 1.654-2.2293 2.848-2.912 1.216-.704 2.582-1.056 4.096-1.056 1.878 0 3.456.4907 4.736 1.472 1.302.9813 2.123 2.2933 2.464 3.936h-2.752c-.213-.9813-.736-1.7387-1.568-2.272-.832-.5547-1.802-.832-2.912-.832-.896 0-1.738.224-2.528.672-.789.448-1.429 1.12-1.92 2.016-.49.896-.736 2.0053-.736 3.328 0 1.3227.246 2.432.736 3.328.491.896 1.131 1.5787 1.92 2.048.79.448 1.632.672 2.528.672 1.11 0 2.08-.2667 2.912-.8.832-.5547 1.355-1.3333 1.568-2.336h2.752c-.32 1.6-1.13 2.9013-2.432 3.904-1.301 1.0027-2.89 1.504-4.768 1.504zm17.226 0c-1.493 0-2.837-.3413-4.032-1.024-1.194-.6827-2.144-1.6427-2.848-2.88-.682-1.2587-1.024-2.7307-1.024-4.416 0-1.6853.352-3.1467 1.056-4.384.704-1.2587 1.654-2.2293 2.848-2.912 1.216-.6827 2.571-1.024 4.064-1.024 1.494 0 2.838.3413 4.032 1.024 1.195.6827 2.134 1.6533 2.816 2.912.704 1.2373 1.056 2.6987 1.056 4.384 0 1.6853-.352 3.1573-1.056 4.416-.704 1.2373-1.664 2.1973-2.88 2.88-1.194.6827-2.538 1.024-4.032 1.024zm0-2.304c.918 0 1.771-.224 2.56-.672.79-.448 1.43-1.12 1.92-2.016.491-.896.736-2.0053.736-3.328 0-1.3227-.245-2.432-.736-3.328-.469-.896-1.098-1.568-1.888-2.016-.789-.448-1.632-.672-2.528-.672-.917 0-1.77.224-2.56.672-.789.448-1.429 1.12-1.92 2.016-.49.896-.736 2.0053-.736 3.328 0 1.3227.246 2.432.736 3.328.491.896 1.12 1.568 1.888 2.016.79.448 1.632.672 2.528.672zM386.177 66V50.128h2.432l.192 2.304c.512-.8533 1.194-1.5147 2.048-1.984.853-.4693 1.813-.704 2.88-.704 1.258 0 2.336.256 3.232.768.917.512 1.621 1.2907 2.112 2.336.554-.96 1.312-1.7173 2.272-2.272.981-.5547 2.037-.832 3.168-.832 1.898 0 3.413.576 4.544 1.728 1.13 1.1307 1.696 2.88 1.696 5.248V66h-2.656v-8.992c0-1.6427-.331-2.88-.992-3.712-.662-.832-1.611-1.248-2.848-1.248-1.28 0-2.347.5013-3.2 1.504-.832.9813-1.248 2.3893-1.248 4.224V66h-2.688v-8.992c0-1.6427-.331-2.88-.992-3.712-.662-.832-1.611-1.248-2.848-1.248-1.259 0-2.315.5013-3.168 1.504-.832.9813-1.248 2.3893-1.248 4.224V66h-2.688z" fill="#181717"/></svg>