<svg width="124" height="45" viewBox="0 0 124 45" fill="none" xmlns="http://www.w3.org/2000/svg"><path d="M12.3111 9.16619c-.4475-2.79971-2.63994-4.43608-5.40769-4.43608-3.38779 0-5.88707 2.53765-5.88707 6.72439 0 4.1868 2.4865 6.7245 5.88707 6.7245 2.87642 0 4.97939-1.8026 5.40769-4.3914l-1.9943-.0064c-.33882 1.6748-1.74507 2.5952-3.40061 2.5952-2.2436 0-3.9375-1.7194-3.9375-4.9219 0-3.1768 1.6875-4.92183 3.9439-4.92183 1.66832 0 3.06818.93963 3.39421 2.63352h1.9943zm4.5273 9.05111c1.6236 0 2.5376-.8245 2.902-1.5596h.0767V18h1.8664v-6.5199c0-2.85723-2.25-3.42612-3.8096-3.42612-1.777 0-3.4134.71591-4.0526 2.50572l1.7962.4091c.2812-.6968.9972-1.36795 2.282-1.36795 1.2336 0 1.8664.64555 1.8664 1.75785v.0447c0 .6967-.7159.684-2.4801.8885-1.8601.2173-3.7649.7031-3.7649 2.934 0 1.9303 1.451 2.9914 3.3175 2.9914zm.4155-1.5341c-1.0803 0-1.8601-.4858-1.8601-1.4318 0-1.0227.9076-1.3871 2.0135-1.5341.62-.0831 2.0902-.2493 2.365-.5241v1.2656c0 1.1634-.9268 2.2244-2.5184 2.2244zm6.4353 4.9986h1.9112v-5.2095h.1151c.3451.6264 1.0483 1.7195 2.838 1.7195 2.3779 0 4.1037-1.9049 4.1037-5.0817 0-3.18325-1.7514-5.05612-4.1229-5.05612-1.8217 0-2.4801 1.11221-2.8188 1.71946h-.1598V8.18182h-1.8665V21.6818zm1.8728-8.5909c0-2.0518.8949-3.41334 2.5633-3.41334 1.7322 0 2.6015 1.46374 2.6015 3.41334 0 1.9688-.8949 3.4709-2.6015 3.4709-1.6428 0-2.5633-1.4063-2.5633-3.4709zm11.5538 5.1264c1.6236 0 2.5376-.8245 2.902-1.5596h.0767V18h1.8665v-6.5199c0-2.85723-2.25-3.42612-3.8097-3.42612-1.777 0-3.4133.71591-4.0525 2.50572l1.7961.4091c.2813-.6968.9972-1.36795 2.282-1.36795 1.2336 0 1.8665.64555 1.8665 1.75785v.0447c0 .6967-.716.684-2.4802.8885-1.86.2173-3.7649.7031-3.7649 2.934 0 1.9303 1.451 2.9914 3.3175 2.9914zm.4155-1.5341c-1.0803 0-1.8601-.4858-1.8601-1.4318 0-1.0227.9077-1.3871 2.0135-1.5341.62-.0831 2.0902-.2493 2.365-.5241v1.2656c0 1.1634-.9268 2.2244-2.5184 2.2244zm10.571 1.515c2.3203 0 3.8224-1.3935 4.0333-3.3047h-1.8601c-.2429 1.061-1.0674 1.6875-2.1605 1.6875-1.6172 0-2.6591-1.3488-2.6591-3.4901 0-2.103 1.0611-3.42613 2.6591-3.42613 1.2145 0 1.956.76703 2.1605 1.68753h1.8601c-.2045-1.98156-1.8217-3.29832-4.0525-3.29832-2.7678 0-4.5576 2.08382-4.5576 5.08172 0 2.9595 1.7259 5.0625 4.5768 5.0625zM53.6395 18h1.9112V8.18182h-1.9112V18zm.9652-11.3331c.6584 0 1.2081-.51136 1.2081-1.13778s-.5497-1.14418-1.2081-1.14418c-.6648 0-1.2081.51776-1.2081 1.14418s.5433 1.13778 1.2081 1.13778zm6.6526 11.5249c1.7898 0 2.4929-1.0931 2.8381-1.7195h.1598V18h1.8665V4.90909h-1.9112v4.86435h-.1151c-.3452-.60725-.9972-1.71946-2.8253-1.71946-2.3714 0-4.1165 1.87287-4.1165 5.05612 0 3.1768 1.7195 5.0817 4.1037 5.0817zm.4219-1.63c-1.7067 0-2.5952-1.5021-2.5952-3.4709 0-1.9496.8694-3.41334 2.5952-3.41334 1.6683 0 2.5632 1.36154 2.5632 3.41334 0 2.0646-.914 3.4709-2.5632 3.4709zm9.4875 1.6555c1.6236 0 2.5377-.8245 2.902-1.5596h.0767V18h1.8665v-6.5199c0-2.85723-2.25-3.42612-3.8097-3.42612-1.7769 0-3.4133.71591-4.0525 2.50572l1.7962.4091c.2812-.6968.9971-1.36795 2.2819-1.36795 1.2337 0 1.8665.64555 1.8665 1.75785v.0447c0 .6967-.7159.684-2.4801.8885-1.8601.2173-3.7649.7031-3.7649 2.934 0 1.9303 1.451 2.9914 3.3174 2.9914zm.4155-1.5341c-1.0802 0-1.8601-.4858-1.8601-1.4318 0-1.0227.9077-1.3871 2.0135-1.5341.6201-.0831 2.0902-.2493 2.3651-.5241v1.2656c0 1.1634-.9269 2.2244-2.5185 2.2244zm10.1108 1.5086c1.7897 0 2.4929-1.0931 2.838-1.7195h.1598V18h1.8665V4.90909h-1.9112v4.86435h-.1151c-.3451-.60725-.9971-1.71946-2.8253-1.71946-2.3714 0-4.1164 1.87287-4.1164 5.05612 0 3.1768 1.7194 5.0817 4.1037 5.0817zm.4218-1.63c-1.7066 0-2.5951-1.5021-2.5951-3.4709 0-1.9496.8693-3.41334 2.5951-3.41334 1.6684 0 2.5632 1.36154 2.5632 3.41334 0 2.0646-.914 3.4709-2.5632 3.4709zm10.8618 1.6364c2.1414 0 3.6563-1.0547 4.091-2.6527l-1.809-.326c-.3452.9268-1.1761 1.3998-2.2628 1.3998-1.6363 0-2.7358-1.0611-2.7869-2.9531h6.9801v-.6776c0-3.54755-2.1222-4.93462-4.3466-4.93462-2.7358 0-4.5383 2.08382-4.5383 5.10082 0 3.049 1.777 5.0434 4.6725 5.0434zm-2.7613-5.9638c.0767-1.3935 1.0866-2.60159 2.6399-2.60159 1.483 0 2.4545 1.09939 2.4609 2.60159h-5.1008zm15.9117-1.6556c-.396-1.52766-1.592-2.52482-3.714-2.52482-2.218 0-3.7905 1.16974-3.7905 2.90842 0 1.3934.8438 2.3203 2.6845 2.7294l1.662.3643c.946.2109 1.387.6328 1.387 1.2465 0 .7606-.812 1.3551-2.064 1.3551-1.145 0-1.88-.4922-2.11-1.4574l-1.8471.2812c.3196 1.7387 1.7641 2.7167 3.9691 2.7167 2.372 0 4.015-1.2593 4.015-3.0363 0-1.387-.883-2.2436-2.685-2.6591l-1.56-.3579c-1.08-.2557-1.547-.62-1.54-1.2848-.007-.7543.812-1.29121 1.898-1.29121 1.189 0 1.739.65841 1.963 1.31681l1.732-.3069zM2.54403 40l1.20171-3.4645h5.11364L10.0547 40h2.0966L7.44034 26.9091H5.15838L.447443 40H2.54403zm1.77699-5.1264l1.9304-5.5867h.10227l1.9304 5.5867H4.32102zm9.02728 8.8082h1.9112v-5.2095h.1151c.3452.6264 1.0483 1.7195 2.8381 1.7195 2.3778 0 4.1037-1.9049 4.1037-5.0817 0-3.1833-1.7515-5.0561-4.1229-5.0561-1.8217 0-2.4801 1.1122-2.8189 1.7194h-.1598v-1.5916h-1.8665v13.5zm1.8729-8.5909c0-2.0518.8949-3.4133 2.5632-3.4133 1.7322 0 2.6016 1.4637 2.6016 3.4133 0 1.9688-.8949 3.4709-2.6016 3.4709-1.6428 0-2.5632-1.4063-2.5632-3.4709zM23.9177 40h1.9112v-5.9957c0-1.2848.9908-2.2117 2.3459-2.2117.3963 0 .8437.0703.9972.1151v-1.8282c-.1918-.0255-.5689-.0447-.8118-.0447-1.1506 0-2.135.652-2.4929 1.7067h-.1023v-1.5597h-1.8473V40zm10.2482.1982c2.1413 0 3.6562-1.0547 4.0909-2.6527l-1.809-.326c-.3451.9268-1.1761 1.3998-2.2628 1.3998-1.6363 0-2.7358-1.0611-2.7869-2.9531h6.9801v-.6776c0-3.5475-2.1221-4.9346-4.3466-4.9346-2.7358 0-4.5383 2.0838-4.5383 5.1008 0 3.049 1.777 5.0434 4.6726 5.0434zm-2.7614-5.9638c.0767-1.3935 1.0866-2.6016 2.6399-2.6016 1.483 0 2.4546 1.0994 2.461 2.6016h-5.1009zm10.4655-.0639c0-1.5661.9588-2.461 2.2884-2.461 1.2975 0 2.0838.8502 2.0838 2.2756V40h1.9112v-6.245c0-2.429-1.3359-3.701-3.3431-3.701-1.4765 0-2.4417.6839-2.8955 1.7258h-.1215v-1.598h-1.8345V40H41.87v-5.8295zm11.982 6.0213c1.7898 0 2.4929-1.0931 2.8381-1.7195h.1598V40h1.8665V26.9091h-1.9113v4.8643h-.115c-.3452-.6072-.9972-1.7194-2.8253-1.7194-2.3714 0-4.1165 1.8728-4.1165 5.0561 0 3.1768 1.7195 5.0817 4.1037 5.0817zm.4219-1.63c-1.7067 0-2.5952-1.5021-2.5952-3.4709 0-1.9496.8693-3.4133 2.5952-3.4133 1.6683 0 2.5632 1.3615 2.5632 3.4133 0 2.0646-.9141 3.4709-2.5632 3.4709zM60.9042 40h1.9112v-9.8182h-1.9112V40zm.9652-11.3331c.6584 0 1.2081-.5114 1.2081-1.1378s-.5497-1.1442-1.2081-1.1442c-.6648 0-1.2081.5178-1.2081 1.1442 0 .6264.5433 1.1378 1.2081 1.1378zm6.6526 11.5249c1.7898 0 2.4929-1.0931 2.8381-1.7195h.1598V40h1.8665V26.9091h-1.9112v4.8643h-.1151c-.3452-.6072-.9972-1.7194-2.8253-1.7194-2.3714 0-4.1165 1.8728-4.1165 5.0561 0 3.1768 1.7195 5.0817 4.1037 5.0817zm.4219-1.63c-1.7067 0-2.5952-1.5021-2.5952-3.4709 0-1.9496.8693-3.4133 2.5952-3.4133 1.6683 0 2.5632 1.3615 2.5632 3.4133 0 2.0646-.9141 3.4709-2.5632 3.4709zm9.4875 1.6555c1.6236 0 2.5377-.8245 2.902-1.5596h.0767V40h1.8665v-6.5199c0-2.8572-2.25-3.4261-3.8097-3.4261-1.777 0-3.4133.7159-4.0525 2.5057l1.7961.4091c.2813-.6968.9972-1.3679 2.282-1.3679 1.2337 0 1.8665.6455 1.8665 1.7578v.0447c0 .6967-.7159.684-2.4801.8885-1.8601.2173-3.765.7031-3.765 2.934 0 1.9303 1.451 2.9914 3.3175 2.9914zm.4155-1.5341c-1.0803 0-1.8601-.4858-1.8601-1.4318 0-1.0227.9077-1.3871 2.0135-1.5341.62-.0831 2.0902-.2493 2.3651-.5241v1.2656c0 1.1634-.9269 2.2244-2.5185 2.2244zm13.7926-6.1044c-.3963-1.5277-1.5917-2.5248-3.7138-2.5248-2.2181 0-3.7905 1.1697-3.7905 2.9084 0 1.3934.8438 2.3203 2.6847 2.7294l1.6619.3643c.946.2109 1.3871.6328 1.3871 1.2465 0 .7606-.8118 1.3551-2.0647 1.3551-1.1441 0-1.8792-.4922-2.1093-1.4574l-1.8473.2812c.3196 1.7387 1.7642 2.7167 3.9694 2.7167 2.3715 0 4.0142-1.2593 4.0142-3.0363 0-1.387-.8821-2.2436-2.6846-2.6591l-1.5597-.3579c-1.0802-.2557-1.5469-.62-1.5405-1.2848-.0064-.7543.8118-1.2912 1.8985-1.2912 1.1889 0 1.7386.6584 1.9623 1.3168l1.7323-.3069z" fill="#181717"/><path d="M0 21.5987h106.59v1.3935H0v-1.3935zm0 22h93.643v1.3935H0v-1.3935z" fill="#181717"/></svg>