<svg width="184" height="77" viewBox="0 0 184 77" fill="none" xmlns="http://www.w3.org/2000/svg"><path d="M40.3705 25.36c-2.08 0-3.88-.45-5.4-1.35-1.5-.92-2.66-2.19-3.48-3.81-.82-1.64-1.23-3.53-1.23-5.67 0-2.16.41-4.05 1.23-5.67.82-1.64 1.98-2.92 3.48-3.84 1.52-.92 3.32-1.38 5.4-1.38 2.46 0 4.47.6 6.03 1.8 1.56 1.2 2.55 2.88 2.97 5.04h-3.54c-.28-1.22-.88-2.19-1.8-2.91-.92-.72-2.15-1.08-3.69-1.08-2.1 0-3.76.72-4.98 2.16-1.22 1.42-1.83 3.38-1.83 5.88 0 2.48.61 4.43 1.83 5.85 1.22 1.42 2.88 2.13 4.98 2.13 1.54 0 2.77-.34 3.69-1.02.92-.68 1.52-1.61 1.8-2.79h3.54c-.42 2.08-1.41 3.71-2.97 4.89-1.56 1.18-3.57 1.77-6.03 1.77zm18.4354 0c-1.42 0-2.7-.32-3.84-.96-1.12-.66-2.01-1.57-2.67-2.73-.66-1.18-.99-2.55-.99-4.11 0-1.56.33-2.92.99-4.08.68-1.18 1.59-2.09 2.73-2.73 1.14-.66 2.41-.99 3.81-.99 1.42 0 2.69.33 3.81.99 1.14.64 2.04 1.55 2.7 2.73.68 1.16 1.02 2.52 1.02 4.08s-.34 2.93-1.02 4.11c-.66 1.16-1.56 2.07-2.7 2.73-1.14.64-2.42.96-3.84.96zm0-2.73c.76 0 1.46-.19 2.1-.57.66-.38 1.19-.94 1.59-1.68.4-.76.6-1.7.6-2.82 0-1.12-.2-2.05-.6-2.79-.38-.76-.9-1.33-1.56-1.71-.64-.38-1.34-.57-2.1-.57s-1.47.19-2.13.57c-.64.38-1.16.95-1.56 1.71-.4.74-.6 1.67-.6 2.79s.2 2.06.6 2.82c.4.74.92 1.3 1.56 1.68.64.38 1.34.57 2.1.57zM68.9049 25V10.12h2.82l.24 2.61c.46-.92 1.13-1.64 2.01-2.16.9-.54 1.93-.81 3.09-.81 1.8 0 3.21.56 4.23 1.68 1.04 1.12 1.56 2.79 1.56 5.01V25h-3.15v-8.22c0-2.88-1.18-4.32-3.54-4.32-1.18 0-2.16.42-2.94 1.26-.76.84-1.14 2.04-1.14 3.6V25h-3.18zm23.0353 0c-1.46 0-2.62-.35-3.48-1.05-.86-.72-1.29-1.99-1.29-3.81v-7.35h-2.55v-2.67h2.55l.39-3.78h2.79v3.78h4.2v2.67h-4.2v7.35c0 .82.17 1.39.51 1.71.36.3.97.45 1.83.45h1.71V25h-2.46zm10.0288.36c-1.26 0-2.2999-.21-3.1199-.63-.82-.42-1.43-.97-1.83-1.65-.4-.7-.6-1.46-.6-2.28 0-1.44.56-2.58 1.68-3.42 1.12-.84 2.7199-1.26 4.7999-1.26h3.9v-.27c0-1.16-.32-2.03-.96-2.61-.62-.58-1.43-.87-2.43-.87-.88 0-1.65.22-2.31.66-.64.42-1.03 1.05-1.1699 1.89h-3.18c.1-1.08.46-2 1.08-2.76.64-.78 1.44-1.37 2.3999-1.77.98-.42 2.05-.63 3.21-.63 2.08 0 3.69.55 4.83 1.65 1.14 1.08 1.71 2.56 1.71 4.44V25h-2.76l-.27-2.55c-.42.82-1.03 1.51-1.83 2.07-.8.56-1.85.84-3.15.84zm.63-2.58c.86 0 1.58-.2 2.16-.6.6-.42 1.06-.97 1.38-1.65.34-.68.55-1.43.63-2.25h-3.54c-1.26 0-2.16.22-2.7.66-.52.44-.7799.99-.7799 1.65 0 .68.25 1.22.7499 1.62.52.38 1.22.57 2.1.57zm17.238 2.58c-1.46 0-2.77-.33-3.93-.99-1.14-.66-2.04-1.57-2.7-2.73-.64-1.18-.96-2.54-.96-4.08s.32-2.89.96-4.05c.66-1.18 1.56-2.1 2.7-2.76 1.16-.66 2.47-.99 3.93-.99 1.84 0 3.38.48 4.62 1.44 1.26.96 2.07 2.26 2.43 3.9h-3.33c-.2-.82-.64-1.46-1.32-1.92-.68-.46-1.48-.69-2.4-.69-.78 0-1.5.2-2.16.6-.66.38-1.19.95-1.59 1.71-.4.74-.6 1.66-.6 2.76 0 1.1.2 2.03.6 2.79.4.74.93 1.31 1.59 1.71.66.4 1.38.6 2.16.6.92 0 1.72-.23 2.4-.69.68-.46 1.12-1.11 1.32-1.95h3.33c-.34 1.6-1.14 2.89-2.4 3.87s-2.81 1.47-4.65 1.47zm15.546-.36c-1.46 0-2.62-.35-3.48-1.05-.86-.72-1.29-1.99-1.29-3.81v-7.35h-2.55v-2.67h2.55l.39-3.78h2.79v3.78h4.2v2.67h-4.2v7.35c0 .82.17 1.39.51 1.71.36.3.97.45 1.83.45h1.71V25h-2.46zm10.029.36c-1.26 0-2.3-.21-3.12-.63-.82-.42-1.43-.97-1.83-1.65-.4-.7-.6-1.46-.6-2.28 0-1.44.56-2.58 1.68-3.42 1.12-.84 2.72-1.26 4.8-1.26h3.9v-.27c0-1.16-.32-2.03-.96-2.61-.62-.58-1.43-.87-2.43-.87-.88 0-1.65.22-2.31.66-.64.42-1.03 1.05-1.17 1.89h-3.18c.1-1.08.46-2 1.08-2.76.64-.78 1.44-1.37 2.4-1.77.98-.42 2.05-.63 3.21-.63 2.08 0 3.69.55 4.83 1.65 1.14 1.08 1.71 2.56 1.71 4.44V25h-2.76l-.27-2.55c-.42.82-1.03 1.51-1.83 2.07-.8.56-1.85.84-3.15.84zm.63-2.58c.86 0 1.58-.2 2.16-.6.6-.42 1.06-.97 1.38-1.65.34-.68.55-1.43.63-2.25h-3.54c-1.26 0-2.16.22-2.7.66-.52.44-.78.99-.78 1.65 0 .68.25 1.22.75 1.62.52.38 1.22.57 2.1.57zM42.5295 54.36c-1.46 0-2.77-.33-3.93-.99-1.14-.66-2.04-1.57-2.7-2.73-.64-1.18-.96-2.54-.96-4.08s.32-2.89.96-4.05c.66-1.18 1.56-2.1 2.7-2.76 1.16-.66 2.47-.99 3.93-.99 1.84 0 3.38.48 4.62 1.44 1.26.96 2.07 2.26 2.43 3.9h-3.33c-.2-.82-.64-1.46-1.32-1.92-.68-.46-1.48-.69-2.4-.69-.78 0-1.5.2-2.16.6-.66.38-1.19.95-1.59 1.71-.4.74-.6 1.66-.6 2.76 0 1.1.2 2.03.6 2.79.4.74.93 1.31 1.59 1.71.66.4 1.38.6 2.16.6.92 0 1.72-.23 2.4-.69.68-.46 1.12-1.11 1.32-1.95h3.33c-.34 1.6-1.14 2.89-2.4 3.87s-2.81 1.47-4.65 1.47zm16.5589 0c-1.42 0-2.7-.32-3.84-.96-1.12-.66-2.01-1.57-2.67-2.73-.66-1.18-.99-2.55-.99-4.11 0-1.56.33-2.92.99-4.08.68-1.18 1.59-2.09 2.73-2.73 1.14-.66 2.41-.99 3.81-.99 1.42 0 2.69.33 3.81.99 1.14.64 2.04 1.55 2.7 2.73.68 1.16 1.02 2.52 1.02 4.08s-.34 2.93-1.02 4.11c-.66 1.16-1.56 2.07-2.7 2.73-1.14.64-2.42.96-3.84.96zm0-2.73c.76 0 1.46-.19 2.1-.57.66-.38 1.19-.94 1.59-1.68.4-.76.6-1.7.6-2.82 0-1.12-.2-2.05-.6-2.79-.38-.76-.9-1.33-1.56-1.71-.64-.38-1.34-.57-2.1-.57s-1.47.19-2.13.57c-.64.38-1.16.95-1.56 1.71-.4.74-.6 1.67-.6 2.79s.2 2.06.6 2.82c.4.74.92 1.3 1.56 1.68.64.38 1.34.57 2.1.57zM69.1873 54V39.12h2.82l.24 2.61c.46-.92 1.13-1.64 2.01-2.16.9-.54 1.93-.81 3.09-.81 1.8 0 3.21.56 4.23 1.68 1.04 1.12 1.56 2.79 1.56 5.01V54h-3.15v-8.22c0-2.88-1.18-4.32-3.54-4.32-1.18 0-2.16.42-2.94 1.26-.76.84-1.14 2.04-1.14 3.6V54h-3.18zm16.7954 0V39.12h2.82l.27 2.1c.48-.76 1.11-1.36 1.89-1.8.8-.44 1.72-.66 2.76-.66 2.36 0 4 .93 4.92 2.79.54-.86 1.26-1.54 2.1603-2.04.92-.5 1.91-.75 2.97-.75 1.86 0 3.32.56 4.38 1.68 1.06 1.12 1.59 2.79 1.59 5.01V54h-3.18v-8.22c0-2.88-1.1-4.32-3.3-4.32-1.12 0-2.04.42-2.76 1.26-.7003.84-1.0503 2.04-1.0503 3.6V54h-3.18v-8.22c0-2.88-1.11-4.32-3.33-4.32-1.1 0-2.01.42-2.73 1.26-.7.84-1.05 2.04-1.05 3.6V54h-3.18zm28.3803-17.7c-.6 0-1.1-.18-1.5-.54-.38-.38-.57-.85-.57-1.41 0-.56.19-1.02.57-1.38.4-.38.9-.57 1.5-.57s1.09.19 1.47.57c.4.36.6.82.6 1.38 0 .56-.2 1.03-.6 1.41-.38.36-.87.54-1.47.54zm-1.59 17.7V39.12h3.18V54h-3.18zm12.568-4.56c-.78 0-1.5-.09-2.16-.27l-1.29 1.26c.22.14.49.26.81.36.32.1.77.19 1.35.27.58.08 1.37.16 2.37.24 1.98.18 3.41.66 4.29 1.44.88.76 1.32 1.78 1.32 3.06 0 .88-.24 1.71-.72 2.49-.46.8-1.19 1.44-2.19 1.92-.98.5-2.24.75-3.78.75-2.08 0-3.77-.4-5.07-1.2-1.28-.78-1.92-1.97-1.92-3.57 0-.62.16-1.24.48-1.86.34-.6.87-1.17 1.59-1.71-.42-.18-.79-.37-1.11-.57-.3-.22-.57-.44-.81-.66v-.72l2.58-2.64c-1.16-1-1.74-2.31-1.74-3.93 0-.98.23-1.87.69-2.67.48-.82 1.17-1.47 2.07-1.95.9-.48 1.98-.72 3.24-.72.84 0 1.62.12 2.34.36h5.55v2.1l-2.64.15c.48.82.72 1.73.72 2.73s-.24 1.9-.72 2.7c-.46.8-1.14 1.44-2.04 1.92-.88.48-1.95.72-3.21.72zm0-2.49c.92 0 1.66-.24 2.22-.72.58-.5.87-1.2.87-2.1 0-.92-.29-1.62-.87-2.1-.56-.48-1.3-.72-2.22-.72-.94 0-1.7.24-2.28.72-.56.48-.84 1.18-.84 2.1 0 .9.28 1.6.84 2.1.58.48 1.34.72 2.28.72zm-3.99 8.94c0 .86.38 1.5 1.14 1.92.76.44 1.71.66 2.85.66 1.1 0 1.99-.24 2.67-.72.68-.46 1.02-1.08 1.02-1.86 0-.58-.23-1.08-.69-1.5-.46-.4-1.33-.65-2.61-.75-.96-.06-1.81-.15-2.55-.27-.7.38-1.18.79-1.44 1.23-.26.44-.39.87-.39 1.29zm20.19-1.53c-1.42 0-2.7-.32-3.84-.96-1.12-.66-2.01-1.57-2.67-2.73-.66-1.18-.99-2.55-.99-4.11 0-1.56.33-2.92.99-4.08.68-1.18 1.59-2.09 2.73-2.73 1.14-.66 2.41-.99 3.81-.99 1.42 0 2.69.33 3.81.99 1.14.64 2.04 1.55 2.7 2.73.68 1.16 1.02 2.52 1.02 4.08s-.34 2.93-1.02 4.11c-.66 1.16-1.56 2.07-2.7 2.73-1.14.64-2.42.96-3.84.96zm0-2.73c.76 0 1.46-.19 2.1-.57.66-.38 1.19-.94 1.59-1.68.4-.76.6-1.7.6-2.82 0-1.12-.2-2.05-.6-2.79-.38-.76-.9-1.33-1.56-1.71-.64-.38-1.34-.57-2.1-.57s-1.47.19-2.13.57c-.64.38-1.16.95-1.56 1.71-.4.74-.6 1.67-.6 2.79s.2 2.06.6 2.82c.4.74.92 1.3 1.56 1.68.64.38 1.34.57 2.1.57z" fill="#000"/></svg>