<svg width="476" height="69" viewBox="0 0 476 69" fill="none" xmlns="http://www.w3.org/2000/svg"><path d="M155.498 46.6c-3.467 0-6.467-.75-9-2.25-2.5-1.5333-4.434-3.65-5.8-6.35-1.367-2.7333-2.05-5.8833-2.05-9.45 0-3.6.683-6.75 2.05-9.45 1.366-2.7333 3.3-4.8667 5.8-6.4 2.533-1.5333 5.533-2.3 9-2.3 4.1 0 7.45 1 10.05 3 2.6 2 4.25 4.8 4.95 8.4h-5.9c-.467-2.0333-1.467-3.65-3-4.85-1.534-1.2-3.584-1.8-6.15-1.8-3.5 0-6.267 1.2-8.3 3.6-2.034 2.3667-3.05 5.6333-3.05 9.8 0 4.1333 1.016 7.3833 3.05 9.75 2.033 2.3667 4.8 3.55 8.3 3.55 2.566 0 4.616-.5667 6.15-1.7 1.533-1.1333 2.533-2.6833 3-4.65h5.9c-.7 3.4667-2.35 6.1833-4.95 8.15-2.6 1.9667-5.95 2.95-10.05 2.95zm30.875 0c-2.566 0-4.816-.45-6.75-1.35-1.933-.9-3.45-2.1833-4.55-3.85-1.066-1.6667-1.616-3.65-1.65-5.95h5.6c.034 1.8667.684 3.45 1.95 4.75 1.267 1.3 3.05 1.95 5.35 1.95 2.034 0 3.617-.4833 4.75-1.45 1.167-1 1.75-2.2667 1.75-3.8 0-1.2333-.283-2.2333-.85-3-.533-.7667-1.283-1.4-2.25-1.9-.933-.5-2.016-.95-3.25-1.35-1.233-.4-2.533-.8333-3.9-1.3-2.7-.9-4.733-2.0667-6.1-3.5-1.333-1.4333-2-3.3167-2-5.65-.033-1.9667.417-3.6833 1.35-5.15.967-1.4667 2.3-2.6 4-3.4 1.734-.8333 3.75-1.25 6.05-1.25 2.267 0 4.25.4167 5.95 1.25 1.734.8333 3.084 2 4.05 3.5.967 1.4667 1.467 3.1833 1.5 5.15h-5.6c0-.9-.233-1.75-.7-2.55-.466-.8333-1.15-1.5167-2.05-2.05-.9-.5333-2-.8-3.3-.8-1.666-.0333-3.05.3833-4.15 1.25-1.066.8667-1.6 2.0667-1.6 3.6 0 1.3667.4 2.4167 1.2 3.15.8.7333 1.9 1.35 3.3 1.85 1.4.4667 3 1.0167 4.8 1.65 1.734.5667 3.284 1.25 4.65 2.05 1.367.8 2.45 1.85 3.25 3.15.834 1.3 1.25 2.95 1.25 4.95 0 1.7667-.45 3.4167-1.35 4.95-.9 1.5-2.25 2.7333-4.05 3.7-1.8.9333-4.016 1.4-6.65 1.4zm27.895 0c-2.567 0-4.817-.45-6.75-1.35-1.933-.9-3.45-2.1833-4.55-3.85-1.067-1.6667-1.617-3.65-1.65-5.95h5.6c.033 1.8667.683 3.45 1.95 4.75 1.267 1.3 3.05 1.95 5.35 1.95 2.033 0 3.617-.4833 4.75-1.45 1.167-1 1.75-2.2667 1.75-3.8 0-1.2333-.283-2.2333-.85-3-.533-.7667-1.283-1.4-2.25-1.9-.933-.5-2.017-.95-3.25-1.35-1.233-.4-2.533-.8333-3.9-1.3-2.7-.9-4.733-2.0667-6.1-3.5-1.333-1.4333-2-3.3167-2-5.65-.033-1.9667.417-3.6833 1.35-5.15.967-1.4667 2.3-2.6 4-3.4 1.733-.8333 3.75-1.25 6.05-1.25 2.267 0 4.25.4167 5.95 1.25 1.733.8333 3.083 2 4.05 3.5.967 1.4667 1.467 3.1833 1.5 5.15h-5.6c0-.9-.233-1.75-.7-2.55-.467-.8333-1.15-1.5167-2.05-2.05-.9-.5333-2-.8-3.3-.8-1.667-.0333-3.05.3833-4.15 1.25-1.067.8667-1.6 2.0667-1.6 3.6 0 1.3667.4 2.4167 1.2 3.15.8.7333 1.9 1.35 3.3 1.85 1.4.4667 3 1.0167 4.8 1.65 1.733.5667 3.283 1.25 4.65 2.05 1.367.8 2.45 1.85 3.25 3.15.833 1.3 1.25 2.95 1.25 4.95 0 1.7667-.45 3.4167-1.35 4.95-.9 1.5-2.25 2.7333-4.05 3.7-1.8.9333-4.017 1.4-6.65 1.4zm26.742-.6v-3.8c2.267-1.8 4.433-3.6167 6.5-5.45 2.067-1.8333 3.9-3.6333 5.5-5.4 1.633-1.8 2.917-3.55 3.85-5.25.933-1.7333 1.4-3.4 1.4-5 0-1.0667-.183-2.0667-.55-3-.367-.9667-.967-1.7333-1.8-2.3-.833-.6-1.95-.9-3.35-.9-2.1 0-3.683.6667-4.75 2-1.033 1.3333-1.533 2.9333-1.5 4.8h-5.15c.033-2.4667.55-4.5333 1.55-6.2 1.033-1.6667 2.4-2.9333 4.1-3.8 1.733-.8667 3.683-1.3 5.85-1.3 3.3 0 5.933.9333 7.9 2.8 2 1.8333 3 4.4 3 7.7 0 1.9667-.483 3.9167-1.45 5.85-.933 1.9333-2.167 3.8-3.7 5.6-1.5 1.7667-3.117 3.4333-4.85 5-1.733 1.5667-3.383 2.9833-4.95 4.25h16V46h-23.6zm41.423.6c-3.167 0-5.9-.75-8.2-2.25-2.267-1.5333-4.017-3.65-5.25-6.35-1.2-2.7333-1.8-5.9-1.8-9.5 0-3.6.6-6.75 1.8-9.45 1.233-2.7333 2.983-4.85 5.25-6.35 2.3-1.5333 5.033-2.3 8.2-2.3 3.166 0 5.883.7667 8.15 2.3 2.266 1.5 4 3.6167 5.2 6.35 1.233 2.7 1.85 5.85 1.85 9.45 0 3.6-.617 6.7667-1.85 9.5-1.2 2.7-2.934 4.8167-5.2 6.35-2.267 1.5-4.984 2.25-8.15 2.25zm0-4.75c1.9 0 3.583-.5333 5.05-1.6 1.5-1.0667 2.666-2.6 3.5-4.6.833-2 1.25-4.3833 1.25-7.15s-.417-5.15-1.25-7.15c-.834-2-2-3.5333-3.5-4.6-1.467-1.0667-3.15-1.6-5.05-1.6-1.934 0-3.634.5333-5.1 1.6-1.467 1.0667-2.617 2.6-3.45 4.6-.834 2-1.25 4.3833-1.25 7.15s.416 5.15 1.25 7.15c.833 2 1.983 3.5333 3.45 4.6 1.466 1.0667 3.166 1.6 5.1 1.6zM308.79 27.7c-1.566 0-2.983-.35-4.25-1.05-1.233-.7-2.216-1.6833-2.95-2.95-.733-1.3-1.1-2.85-1.1-4.65 0-1.7667.367-3.2833 1.1-4.55.734-1.3 1.734-2.3 3-3 1.267-.7 2.684-1.05 4.25-1.05 1.534 0 2.917.35 4.15 1.05 1.267.7 2.267 1.7 3 3 .734 1.2667 1.1 2.7833 1.1 4.55 0 1.8-.366 3.35-1.1 4.65-.733 1.2667-1.733 2.25-3 2.95-1.233.7-2.633 1.05-4.2 1.05zm-2.5 18.3l20.05-35h5.2l-20 35h-5.25zm2.5-22.1c1.067 0 1.984-.4 2.75-1.2.8-.8333 1.2-2.05 1.2-3.65s-.383-2.8-1.15-3.6c-.766-.8333-1.7-1.25-2.8-1.25-1.066 0-2 .4167-2.8 1.25-.8.8-1.2 2-1.2 3.6s.384 2.8167 1.15 3.65c.8.8 1.75 1.2 2.85 1.2zm20.55 22.7c-1.566 0-2.983-.35-4.25-1.05-1.233-.7-2.216-1.6833-2.95-2.95-.733-1.3-1.1-2.85-1.1-4.65 0-1.7667.367-3.3 1.1-4.6.734-1.3 1.734-2.3 3-3 1.267-.7 2.684-1.05 4.25-1.05 1.534 0 2.917.35 4.15 1.05 1.267.7 2.267 1.7 3 3 .734 1.3 1.1 2.8333 1.1 4.6 0 1.8-.366 3.35-1.1 4.65-.733 1.2667-1.733 2.25-3 2.95-1.233.7-2.633 1.05-4.2 1.05zm0-3.85c1.067 0 1.984-.4 2.75-1.2.8-.8 1.2-2 1.2-3.6s-.383-2.8-1.15-3.6c-.766-.8333-1.7-1.25-2.8-1.25-1.066 0-2 .4167-2.8 1.25-.8.8-1.2 2-1.2 3.6s.384 2.8 1.15 3.6c.8.8 1.75 1.2 2.85 1.2z" fill="#000"/></svg>