<svg width="471" height="75" viewBox="0 0 471 75" fill="none" xmlns="http://www.w3.org/2000/svg"><path d="M16.1799 46V11h22.25v4.3h-16.95v10.9h15.45v4.2h-15.45v11.3h16.95V46h-22.25zm36.7644.6c-3.1333 0-5.7166-.7667-7.75-2.3-2.0333-1.5333-3.2-3.5667-3.5-6.1h5.35c.2667 1.1333.9 2.1167 1.9 2.95 1 .8 2.3167 1.2 3.95 1.2 1.6 0 2.7667-.3333 3.5-1 .7334-.6667 1.1-1.4333 1.1-2.3 0-1.2667-.5166-2.1167-1.55-2.55-1-.4667-2.4-.8833-4.2-1.25-1.4-.3-2.8-.7-4.2-1.2-1.3666-.5-2.5166-1.2-3.45-2.1-.9-.9333-1.35-2.1833-1.35-3.75 0-2.1667.8334-3.9667 2.5-5.4 1.6667-1.4667 4-2.2 7-2.2 2.7667 0 5 .6667 6.7 2 1.7334 1.3333 2.75 3.2167 3.05 5.65h-5.1c-.1666-1.0667-.6666-1.9-1.5-2.5-.8-.6-1.8833-.9-3.25-.9-1.3333 0-2.3666.2833-3.1.85-.7333.5333-1.1 1.2333-1.1 2.1s.5 1.55 1.5 2.05c1.0334.5 2.3834.95 4.05 1.35 1.6667.3667 3.2.8 4.6 1.3 1.4334.4667 2.5834 1.1667 3.45 2.1.8667.9333 1.3 2.3 1.3 4.1.0334 2.2667-.85 4.15-2.65 5.65-1.7666 1.5-4.1833 2.25-7.25 2.25zm25.936 0c-2.4334 0-4.6167-.55-6.55-1.65-1.9-1.1-3.4-2.6167-4.5-4.55-1.0667-1.9667-1.6-4.2333-1.6-6.8s.5333-4.8167 1.6-6.75c1.1-1.9667 2.6-3.5 4.5-4.6 1.9333-1.1 4.1166-1.65 6.55-1.65 3.0666 0 5.6333.8 7.7 2.4 2.1 1.6 3.45 3.7667 4.05 6.5h-5.55c-.3334-1.3667-1.0667-2.4333-2.2-3.2-1.1334-.7667-2.4667-1.15-4-1.15-1.3 0-2.5.3333-3.6 1-1.1.6333-1.9834 1.5833-2.65 2.85-.6667 1.2333-1 2.7667-1 4.6 0 1.8333.3333 3.3833 1 4.65.6666 1.2333 1.55 2.1833 2.65 2.85 1.1.6667 2.3 1 3.6 1 1.5333 0 2.8666-.3833 4-1.15 1.1333-.7667 1.8666-1.85 2.2-3.25h5.55c-.5667 2.6667-1.9 4.8167-4 6.45-2.1 1.6333-4.6834 2.45-7.75 2.45zm25.1477 0c-3 0-5.3663-.9333-7.0997-2.8-1.7-1.8667-2.55-4.65-2.55-8.35V21.2h5.3v13.7c0 4.8 1.9667 7.2 5.8997 7.2 1.967 0 3.584-.7 4.85-2.1 1.267-1.4 1.9-3.4 1.9-6V21.2h5.3V46h-4.7l-.4-4.35c-.766 1.5333-1.9 2.75-3.4 3.65-1.466.8667-3.166 1.3-5.1 1.3zm30.593 0c-2.434 0-4.617-.55-6.55-1.65-1.9-1.1-3.4-2.6167-4.5-4.55-1.067-1.9667-1.6-4.2333-1.6-6.8s.533-4.8167 1.6-6.75c1.1-1.9667 2.6-3.5 4.5-4.6 1.933-1.1 4.116-1.65 6.55-1.65 3.066 0 5.633.8 7.7 2.4 2.1 1.6 3.45 3.7667 4.05 6.5h-5.55c-.334-1.3667-1.067-2.4333-2.2-3.2-1.134-.7667-2.467-1.15-4-1.15-1.3 0-2.5.3333-3.6 1-1.1.6333-1.984 1.5833-2.65 2.85-.667 1.2333-1 2.7667-1 4.6 0 1.8333.333 3.3833 1 4.65.666 1.2333 1.55 2.1833 2.65 2.85 1.1.6667 2.3 1 3.6 1 1.533 0 2.866-.3833 4-1.15 1.133-.7667 1.866-1.85 2.2-3.25h5.55c-.567 2.6667-1.9 4.8167-4 6.45-2.1 1.6333-4.684 2.45-7.75 2.45zm15.998-.6V10h5.3v15.2c.833-1.4333 1.983-2.55 3.45-3.35 1.5-.8333 3.15-1.25 4.95-1.25 2.966 0 5.3.9333 7 2.8 1.7 1.8667 2.55 4.65 2.55 8.35V46h-5.25V32.3c0-4.8-1.917-7.2-5.75-7.2-2 0-3.667.7-5 2.1-1.3 1.4-1.95 3.4-1.95 6V46h-5.3zm36.392.6c-2.1 0-3.834-.35-5.2-1.05-1.367-.7-2.384-1.6167-3.05-2.75-.667-1.1667-1-2.4333-1-3.8 0-2.4.933-4.3 2.8-5.7 1.866-1.4 4.533-2.1 8-2.1h6.5v-.45c0-1.9333-.534-3.3833-1.6-4.35-1.034-.9667-2.384-1.45-4.05-1.45-1.467 0-2.75.3667-3.85 1.1-1.067.7-1.717 1.75-1.95 3.15h-5.3c.166-1.8.766-3.3333 1.8-4.6 1.066-1.3 2.4-2.2833 4-2.95 1.633-.7 3.416-1.05 5.35-1.05 3.466 0 6.15.9167 8.05 2.75 1.9 1.8 2.85 4.2667 2.85 7.4V46h-4.6l-.45-4.25c-.7 1.3667-1.717 2.5167-3.05 3.45-1.334.9333-3.084 1.4-5.25 1.4zm1.05-4.3c1.433 0 2.633-.3333 3.6-1 1-.7 1.766-1.6167 2.3-2.75.566-1.1333.916-2.3833 1.05-3.75h-5.9c-2.1 0-3.6.3667-4.5 1.1-.867.7333-1.3 1.65-1.3 2.75 0 1.1333.416 2.0333 1.25 2.7.866.6333 2.033.95 3.5.95zm36.477 4.3c-2.1 0-3.833-.35-5.2-1.05-1.367-.7-2.383-1.6167-3.05-2.75-.667-1.1667-1-2.4333-1-3.8 0-2.4.933-4.3 2.8-5.7 1.867-1.4 4.533-2.1 8-2.1h6.5v-.45c0-1.9333-.533-3.3833-1.6-4.35-1.033-.9667-2.383-1.45-4.05-1.45-1.467 0-2.75.3667-3.85 1.1-1.067.7-1.717 1.75-1.95 3.15h-5.3c.167-1.8.767-3.3333 1.8-4.6 1.067-1.3 2.4-2.2833 4-2.95 1.633-.7 3.417-1.05 5.35-1.05 3.467 0 6.15.9167 8.05 2.75 1.9 1.8 2.85 4.2667 2.85 7.4V46h-4.6l-.45-4.25c-.7 1.3667-1.717 2.5167-3.05 3.45-1.333.9333-3.083 1.4-5.25 1.4zm1.05-4.3c1.433 0 2.633-.3333 3.6-1 1-.7 1.767-1.6167 2.3-2.75.567-1.1333.917-2.3833 1.05-3.75h-5.9c-2.1 0-3.6.3667-4.5 1.1-.867.7333-1.3 1.65-1.3 2.75 0 1.1333.417 2.0333 1.25 2.7.867.6333 2.033.95 3.5.95zm28.73 4.3c-2.434 0-4.617-.55-6.55-1.65-1.9-1.1-3.4-2.6167-4.5-4.55-1.067-1.9667-1.6-4.2333-1.6-6.8s.533-4.8167 1.6-6.75c1.1-1.9667 2.6-3.5 4.5-4.6 1.933-1.1 4.116-1.65 6.55-1.65 3.066 0 5.633.8 7.7 2.4 2.1 1.6 3.45 3.7667 4.05 6.5h-5.55c-.334-1.3667-1.067-2.4333-2.2-3.2-1.134-.7667-2.467-1.15-4-1.15-1.3 0-2.5.3333-3.6 1-1.1.6333-1.984 1.5833-2.65 2.85-.667 1.2333-1 2.7667-1 4.6 0 1.8333.333 3.3833 1 4.65.666 1.2333 1.55 2.1833 2.65 2.85 1.1.6667 2.3 1 3.6 1 1.533 0 2.866-.3833 4-1.15 1.133-.7667 1.866-1.85 2.2-3.25h5.55c-.567 2.6667-1.9 4.8167-4 6.45-2.1 1.6333-4.684 2.45-7.75 2.45zm25.91-.6c-2.434 0-4.367-.5833-5.8-1.75-1.434-1.2-2.15-3.3167-2.15-6.35V25.65h-4.25V21.2h4.25l.65-6.3h4.65v6.3h7v4.45h-7V37.9c0 1.3667.283 2.3167.85 2.85.6.5 1.616.75 3.05.75h2.85V46h-4.1zm11.314-29.5c-1 0-1.833-.3-2.5-.9-.633-.6333-.95-1.4167-.95-2.35s.317-1.7.95-2.3c.667-.6333 1.5-.95 2.5-.95s1.817.3167 2.45.95c.667.6 1 1.3667 1 2.3 0 .9333-.333 1.7167-1 2.35-.633.6-1.45.9-2.45.9zm-2.65 29.5V21.2h5.3V46h-5.3zm17.747 0l-9.3-24.8h5.55l6.9 19.75 6.9-19.75h5.5l-9.25 24.8h-6.3zm25.389.6c-2.1 0-3.833-.35-5.2-1.05-1.366-.7-2.383-1.6167-3.05-2.75-.666-1.1667-1-2.4333-1-3.8 0-2.4.934-4.3 2.8-5.7 1.867-1.4 4.534-2.1 8-2.1h6.5v-.45c0-1.9333-.533-3.3833-1.6-4.35-1.033-.9667-2.383-1.45-4.05-1.45-1.466 0-2.75.3667-3.85 1.1-1.066.7-1.716 1.75-1.95 3.15h-5.3c.167-1.8.767-3.3333 1.8-4.6 1.067-1.3 2.4-2.2833 4-2.95 1.634-.7 3.417-1.05 5.35-1.05 3.467 0 6.15.9167 8.05 2.75 1.9 1.8 2.85 4.2667 2.85 7.4V46h-4.6l-.45-4.25c-.7 1.3667-1.716 2.5167-3.05 3.45-1.333.9333-3.083 1.4-5.25 1.4zm1.05-4.3c1.434 0 2.634-.3333 3.6-1 1-.7 1.767-1.6167 2.3-2.75.567-1.1333.917-2.3833 1.05-3.75h-5.9c-2.1 0-3.6.3667-4.5 1.1-.866.7333-1.3 1.65-1.3 2.75 0 1.1333.417 2.0333 1.25 2.7.867.6333 2.034.95 3.5.95zm40.028 4.3c-2.3 0-4.267-.45-5.9-1.35-1.634-.9-2.917-2.1-3.85-3.6-.9-1.5-1.45-3.1333-1.65-4.9h4.95c.3 1.7333 1.016 3.0667 2.15 4 1.133.9333 2.583 1.4 4.35 1.4 2.433 0 4.433-1.1333 6-3.4 1.6-2.3 2.45-5.8167 2.55-10.55-.8 1.4667-2.05 2.7167-3.75 3.75-1.667 1.0333-3.6 1.55-5.8 1.55-1.967 0-3.817-.4667-5.55-1.4-1.734-.9333-3.134-2.2333-4.2-3.9-1.067-1.7-1.6-3.7-1.6-6 0-2.0333.5-3.95 1.5-5.75 1-1.8 2.4-3.25 4.2-4.35 1.833-1.1333 4-1.7 6.5-1.7 2.566 0 4.733.4833 6.5 1.45 1.766.9667 3.183 2.25 4.25 3.85 1.066 1.6 1.833 3.4 2.3 5.4.5 2 .75 4.05.75 6.15 0 3.8667-.55 7.25-1.65 10.15-1.067 2.9-2.617 5.1667-4.65 6.8-2.034 1.6-4.5 2.4-7.4 2.4zm.25-17.65c1.4 0 2.65-.3167 3.75-.95s1.966-1.4667 2.6-2.5c.666-1.0667 1-2.2333 1-3.5 0-1.3667-.334-2.5667-1-3.6-.634-1.0667-1.517-1.9-2.65-2.5-1.1-.6-2.35-.9-3.75-.9s-2.65.3-3.75.9c-1.1.6-1.984 1.4333-2.65 2.5-.634 1.0333-.95 2.2167-.95 3.55 0 2.1333.7 3.8333 2.1 5.1 1.4 1.2667 3.166 1.9 5.3 1.9zm30.291 17.65c-2.466 0-4.6-.4333-6.4-1.3-1.8-.9-3.233-2.1167-4.3-3.65-1.033-1.5667-1.666-3.3333-1.9-5.3h5.2c.334 1.6667 1.167 3.05 2.5 4.15 1.334 1.0667 2.984 1.6 4.95 1.6 1.467 0 2.734-.35 3.8-1.05 1.067-.7333 1.9-1.7 2.5-2.9.6-1.2.9-2.55.9-4.05 0-2.3667-.666-4.25-2-5.65-1.333-1.4333-3.016-2.15-5.05-2.15-1.733 0-3.216.4167-4.45 1.25-1.233.8-2.133 1.8167-2.7 3.05h-5.05l3-19.6h18.9v4.65h-14.9l-1.8 9.35c.767-.8667 1.817-1.5833 3.15-2.15 1.367-.6 2.9-.9 4.6-.9 2.367 0 4.4.55 6.1 1.65 1.7 1.0667 3 2.5167 3.9 4.35.934 1.8333 1.4 3.8667 1.4 6.1 0 2.3333-.5 4.45-1.5 6.35-1 1.9-2.433 3.4167-4.3 4.55-1.833 1.1-4.016 1.65-6.55 1.65zm23.861-18.9c-1.567 0-2.983-.35-4.25-1.05-1.233-.7-2.217-1.6833-2.95-2.95-.733-1.3-1.1-2.85-1.1-4.65 0-1.7667.367-3.2833 1.1-4.55.733-1.3 1.733-2.3 3-3 1.267-.7 2.683-1.05 4.25-1.05 1.533 0 2.917.35 4.15 1.05 1.267.7 2.267 1.7 3 3 .733 1.2667 1.1 2.7833 1.1 4.55 0 1.8-.367 3.35-1.1 4.65-.733 1.2667-1.733 2.25-3 2.95-1.233.7-2.633 1.05-4.2 1.05zm-2.5 18.3l20.05-35h5.2l-20 35h-5.25zm2.5-22.1c1.067 0 1.983-.4 2.75-1.2.8-.8333 1.2-2.05 1.2-3.65s-.383-2.8-1.15-3.6c-.767-.8333-1.7-1.25-2.8-1.25-1.067 0-2 .4167-2.8 1.25-.8.8-1.2 2-1.2 3.6s.383 2.8167 1.15 3.65c.8.8 1.75 1.2 2.85 1.2zm20.55 22.7c-1.567 0-2.983-.35-4.25-1.05-1.233-.7-2.217-1.6833-2.95-2.95-.733-1.3-1.1-2.85-1.1-4.65 0-1.7667.367-3.3 1.1-4.6.733-1.3 1.733-2.3 3-3 1.267-.7 2.683-1.05 4.25-1.05 1.533 0 2.917.35 4.15 1.05 1.267.7 2.267 1.7 3 3 .733 1.3 1.1 2.8333 1.1 4.6 0 1.8-.367 3.35-1.1 4.65-.733 1.2667-1.733 2.25-3 2.95-1.233.7-2.633 1.05-4.2 1.05zm0-3.85c1.067 0 1.983-.4 2.75-1.2.8-.8 1.2-2 1.2-3.6s-.383-2.8-1.15-3.6c-.767-.8333-1.7-1.25-2.8-1.25-1.067 0-2 .4167-2.8 1.25-.8.8-1.2 2-1.2 3.6s.383 2.8 1.15 3.6c.8.8 1.75 1.2 2.85 1.2z" fill="#000"/></svg>