<svg width="124" height="45" viewBox="0 0 124 45" fill="none" xmlns="http://www.w3.org/2000/svg"><path d="M1.43821 18H9.7223v-1.7003H3.41335v-4.0078h5.80398V10.598H3.41335V6.60938H9.6456V4.90909H1.43821V18zm17.50949-7.4212c-.3963-1.52766-1.5916-2.52482-3.7137-2.52482-2.2181 0-3.7905 1.16974-3.7905 2.90842 0 1.3934.8437 2.3203 2.6846 2.7294l1.662.3643c.946.2109 1.3871.6328 1.3871 1.2465 0 .7606-.8118 1.3551-2.0647 1.3551-1.1442 0-1.8792-.4922-2.1094-1.4574l-1.8473.2812c.3196 1.7387 1.7642 2.7167 3.9695 2.7167 2.3715 0 4.0142-1.2593 4.0142-3.0363 0-1.387-.8821-2.2436-2.6846-2.6591l-1.5597-.3579c-1.0803-.2557-1.5469-.62-1.5405-1.2848-.0064-.7543.8118-1.29121 1.8984-1.29121 1.189 0 1.7387.65841 1.9624 1.31681l1.7322-.3069zm6.3363-2.39698h-2.0135V5.82955h-1.9112v2.35227h-1.4382v1.53409h1.4382v5.79759c-.0064 1.7834 1.3551 2.6463 2.8636 2.6143.6073-.0064 1.0163-.1214 1.2401-.2045l-.3452-1.5788c-.1278.0255-.3643.0831-.6712.0831-.62 0-1.1761-.2046-1.1761-1.3104V9.71591h2.0135V8.18182zm7.7936 5.74648c.0064 1.6683-1.2336 2.4609-2.3075 2.4609-1.1825 0-2.0007-.8565-2.0007-2.1925V8.18182h-1.9112v6.24498c0 2.4354 1.3359 3.701 3.2216 3.701 1.4765 0 2.4801-.7798 2.9339-1.8281h.1023V18h1.8792V8.18182h-1.9176v5.74648zm7.6211 4.2635c1.7897 0 2.4929-1.0931 2.838-1.7195h.1598V18h1.8665V4.90909h-1.9112v4.86435h-.1151c-.3451-.60725-.9971-1.71946-2.8253-1.71946-2.3714 0-4.1164 1.87287-4.1164 5.05612 0 3.1768 1.7194 5.0817 4.1037 5.0817zm.4218-1.63c-1.7066 0-2.5951-1.5021-2.5951-3.4709 0-1.9496.8693-3.41334 2.5951-3.41334 1.6684 0 2.5633 1.36154 2.5633 3.41334 0 2.0646-.9141 3.4709-2.5633 3.4709zM47.7508 18h1.9112V8.18182h-1.9112V18zm.9652-11.3331c.6584 0 1.2081-.51136 1.2081-1.13778s-.5497-1.14418-1.2081-1.14418c-.6648 0-1.2081.51776-1.2081 1.14418s.5433 1.13778 1.2081 1.13778zm7.1129 11.5313c2.7677 0 4.5767-2.0263 4.5767-5.0625 0-3.0554-1.809-5.08172-4.5767-5.08172-2.7678 0-4.5767 2.02632-4.5767 5.08172 0 3.0362 1.8089 5.0625 4.5767 5.0625zm.0064-1.6044c-1.809 0-2.6527-1.5789-2.6527-3.4645 0-1.8793.8437-3.47731 2.6527-3.47731 1.7961 0 2.6399 1.59801 2.6399 3.47731 0 1.8856-.8438 3.4645-2.6399 3.4645zm13.5209-6.015c-.3963-1.52766-1.5916-2.52482-3.7138-2.52482-2.218 0-3.7905 1.16974-3.7905 2.90842 0 1.3934.8438 2.3203 2.6847 2.7294l1.6619.3643c.946.2109 1.3871.6328 1.3871 1.2465 0 .7606-.8118 1.3551-2.0646 1.3551-1.1442 0-1.8793-.4922-2.1094-1.4574l-1.8473.2812c.3196 1.7387 1.7642 2.7167 3.9694 2.7167 2.3715 0 4.0142-1.2593 4.0142-3.0363 0-1.387-.8821-2.2436-2.6846-2.6591l-1.5597-.3579c-1.0802-.2557-1.5468-.62-1.5405-1.2848-.0063-.7543.8118-1.29121 1.8985-1.29121 1.1889 0 1.7386.65841 1.9623 1.31681l1.7323-.3069zM1.43821 40h1.97514v-4.6023h2.68466c3.03622 0 4.53839-1.8345 4.53839-4.2507 0-2.4098-1.48938-4.2379-4.532-4.2379H1.43821V40zm1.97514-6.277v-5.12h2.48012c1.95596 0 2.75497 1.0611 2.75497 2.544 0 1.483-.79901 2.576-2.72941 2.576H3.41335zM12.2585 40h1.9112v-5.9957c0-1.2848.9908-2.2117 2.3459-2.2117.3963 0 .8437.0703.9971.1151v-1.8282c-.1917-.0255-.5689-.0447-.8118-.0447-1.1505 0-2.1349.652-2.4929 1.7067h-.1022v-1.5597h-1.8473V40zm6.3682 0h1.9112v-9.8182h-1.9112V40zm.9652-11.3331c.6584 0 1.2081-.5114 1.2081-1.1378s-.5497-1.1442-1.2081-1.1442c-.6648 0-1.2081.5178-1.2081 1.1442 0 .6264.5433 1.1378 1.2081 1.1378zm4.8884 5.5036c0-1.5661.9588-2.461 2.2884-2.461 1.2976 0 2.0838.8502 2.0838 2.2756V40h1.9112v-6.245c0-2.429-1.3359-3.701-3.343-3.701-1.4766 0-2.4418.6839-2.8956 1.7258h-.1215v-1.598h-1.8345V40h1.9112v-5.8295zm12.4423 6.0277c2.3203 0 3.8224-1.3935 4.0333-3.3047h-1.86c-.2429 1.061-1.0675 1.6875-2.1606 1.6875-1.6171 0-2.659-1.3488-2.659-3.4901 0-2.103 1.061-3.4261 2.659-3.4261 1.2145 0 1.956.767 2.1606 1.6875h1.86c-.2045-1.9816-1.8217-3.2983-4.0525-3.2983-2.7678 0-4.5575 2.0838-4.5575 5.0817 0 2.9595 1.7258 5.0625 4.5767 5.0625zM42.4598 40h1.9112v-9.8182h-1.9112V40zm.9652-11.3331c.6584 0 1.2081-.5114 1.2081-1.1378s-.5497-1.1442-1.2081-1.1442c-.6648 0-1.2081.5178-1.2081 1.1442 0 .6264.5433 1.1378 1.2081 1.1378zm2.9772 15.0149h1.9112v-5.2095h.1151c.3452.6264 1.0483 1.7195 2.8381 1.7195 2.3778 0 4.1037-1.9049 4.1037-5.0817 0-3.1833-1.7515-5.0561-4.1229-5.0561-1.8217 0-2.4801 1.1122-2.8189 1.7194h-.1598v-1.5916h-1.8665v13.5zm1.8729-8.5909c0-2.0518.8949-3.4133 2.5632-3.4133 1.7322 0 2.6016 1.4637 2.6016 3.4133 0 1.9688-.8949 3.4709-2.6016 3.4709-1.6428 0-2.5632-1.4063-2.5632-3.4709zm11.5537 5.1264c1.6236 0 2.5377-.8245 2.902-1.5596h.0767V40h1.8665v-6.5199c0-2.8572-2.25-3.4261-3.8096-3.4261-1.777 0-3.4134.7159-4.0526 2.5057l1.7962.4091c.2812-.6968.9971-1.3679 2.2819-1.3679 1.2337 0 1.8665.6455 1.8665 1.7578v.0447c0 .6967-.7159.684-2.4801.8885-1.8601.2173-3.7649.7031-3.7649 2.934 0 1.9303 1.451 2.9914 3.3174 2.9914zm.4155-1.5341c-1.0802 0-1.8601-.4858-1.8601-1.4318 0-1.0227.9077-1.3871 2.0135-1.5341.6201-.0831 2.0902-.2493 2.3651-.5241v1.2656c0 1.1634-.9269 2.2244-2.5185 2.2244zm8.3466-11.7741h-1.9113V40h1.9113V26.9091zm6.2627 13.2891c2.1413 0 3.6563-1.0547 4.0909-2.6527l-1.8089-.326c-.3452.9268-1.1762 1.3998-2.2628 1.3998-1.6364 0-2.7358-1.0611-2.787-2.9531h6.9802v-.6776c0-3.5475-2.1222-4.9346-4.3466-4.9346-2.7358 0-4.5384 2.0838-4.5384 5.1008 0 3.049 1.777 5.0434 4.6726 5.0434zm-2.7614-5.9638c.0767-1.3935 1.0867-2.6016 2.64-2.6016 1.4829 0 2.4545 1.0994 2.4609 2.6016h-5.1009zm15.9116-1.6556c-.3963-1.5277-1.5917-2.5248-3.7138-2.5248-2.2181 0-3.7905 1.1697-3.7905 2.9084 0 1.3934.8438 2.3203 2.6847 2.7294l1.6619.3643c.946.2109 1.3871.6328 1.3871 1.2465 0 .7606-.8118 1.3551-2.0647 1.3551-1.1441 0-1.8792-.4922-2.1093-1.4574l-1.8473.2812c.3196 1.7387 1.7642 2.7167 3.9694 2.7167 2.3715 0 4.0142-1.2593 4.0142-3.0363 0-1.387-.8821-2.2436-2.6846-2.6591l-1.5597-.3579c-1.0802-.2557-1.5469-.62-1.5405-1.2848-.0064-.7543.8118-1.2912 1.8985-1.2912 1.1889 0 1.7386.6584 1.9623 1.3168l1.7323-.3069z" fill="#181717"/><path d="M0 21.5987h69.8197v1.3935H0v-1.3935zm0 22h89.0073v1.3935H0v-1.3935z" fill="#181717"/></svg>