<svg width="511" height="64" viewBox="0 0 511 64" fill="none" xmlns="http://www.w3.org/2000/svg"><path d="M137.493 46V11h5.3v15h16.95V11h5.3v35h-5.3V30.35h-16.95V46h-5.3zm41.368 0V15.3h-10.35V11h25.95v4.3h-10.3V46h-5.3zm19.06 0V11h6.25l11.85 23.3 11.8-23.3h6.25v35h-5.3V20.15L218.071 41h-4.1l-10.75-20.8V46h-5.3zm41.762 0V11h5.3v30.8h15.9V46h-21.2zm52.452 0v-7h-17.55v-4.2l16.7-23.8h6.1v23.4h4.9V39h-4.9v7h-5.25zm-11.8-11.6h12.1V16.85l-12.1 17.55zm39.502 12.2c-3.167 0-5.9-.75-8.2-2.25-2.267-1.5333-4.017-3.65-5.25-6.35-1.2-2.7333-1.8-5.9-1.8-9.5 0-3.6.6-6.75 1.8-9.45 1.233-2.7333 2.983-4.85 5.25-6.35 2.3-1.5333 5.033-2.3 8.2-2.3 3.167 0 5.883.7667 8.15 2.3 2.267 1.5 4 3.6167 5.2 6.35 1.233 2.7 1.85 5.85 1.85 9.45 0 3.6-.617 6.7667-1.85 9.5-1.2 2.7-2.933 4.8167-5.2 6.35-2.267 1.5-4.983 2.25-8.15 2.25zm0-4.75c1.9 0 3.583-.5333 5.05-1.6 1.5-1.0667 2.667-2.6 3.5-4.6.833-2 1.25-4.3833 1.25-7.15s-.417-5.15-1.25-7.15-2-3.5333-3.5-4.6c-1.467-1.0667-3.15-1.6-5.05-1.6-1.933 0-3.633.5333-5.1 1.6-1.467 1.0667-2.617 2.6-3.45 4.6-.833 2-1.25 4.3833-1.25 7.15s.417 5.15 1.25 7.15 1.983 3.5333 3.45 4.6c1.467 1.0667 3.167 1.6 5.1 1.6zm26.358-14.15c-1.567 0-2.984-.35-4.25-1.05-1.234-.7-2.217-1.6833-2.95-2.95-.734-1.3-1.1-2.85-1.1-4.65 0-1.7667.366-3.2833 1.1-4.55.733-1.3 1.733-2.3 3-3 1.266-.7 2.683-1.05 4.25-1.05 1.533 0 2.916.35 4.15 1.05 1.266.7 2.266 1.7 3 3 .733 1.2667 1.1 2.7833 1.1 4.55 0 1.8-.367 3.35-1.1 4.65-.734 1.2667-1.734 2.25-3 2.95-1.234.7-2.634 1.05-4.2 1.05zm-2.5 18.3l20.05-35h5.2l-20 35h-5.25zm2.5-22.1c1.066 0 1.983-.4 2.75-1.2.8-.8333 1.2-2.05 1.2-3.65s-.384-2.8-1.15-3.6c-.767-.8333-1.7-1.25-2.8-1.25-1.067 0-2 .4167-2.8 1.25-.8.8-1.2 2-1.2 3.6s.383 2.8167 1.15 3.65c.8.8 1.75 1.2 2.85 1.2zm20.55 22.7c-1.567 0-2.984-.35-4.25-1.05-1.234-.7-2.217-1.6833-2.95-2.95-.734-1.3-1.1-2.85-1.1-4.65 0-1.7667.366-3.3 1.1-4.6.733-1.3 1.733-2.3 3-3 1.266-.7 2.683-1.05 4.25-1.05 1.533 0 2.916.35 4.15 1.05 1.266.7 2.266 1.7 3 3 .733 1.3 1.1 2.8333 1.1 4.6 0 1.8-.367 3.35-1.1 4.65-.734 1.2667-1.734 2.25-3 2.95-1.234.7-2.634 1.05-4.2 1.05zm0-3.85c1.066 0 1.983-.4 2.75-1.2.8-.8 1.2-2 1.2-3.6s-.384-2.8-1.15-3.6c-.767-.8333-1.7-1.25-2.8-1.25-1.067 0-2 .4167-2.8 1.25-.8.8-1.2 2-1.2 3.6s.383 2.8 1.15 3.6c.8.8 1.75 1.2 2.85 1.2z" fill="#000"/></svg>