<svg width="445" height="68" viewBox="0 0 445 68" fill="none" xmlns="http://www.w3.org/2000/svg"><path d="M60.8557 46V11h5.3v30.8h15.9V46h-21.2zM89.06 16.5c-1 0-1.8334-.3-2.5-.9-.6334-.6333-.95-1.4167-.95-2.35s.3166-1.7.95-2.3c.6666-.6333 1.5-.95 2.5-.95s1.8166.3167 2.45.95c.6666.6 1 1.3667 1 2.3 0 .9333-.3334 1.7167-1 2.35-.6334.6-1.45.9-2.45.9zM86.41 46V21.2h5.3V46h-5.3zm22.096.6c-2.4 0-4.516-.5667-6.35-1.7-1.833-1.1333-3.2662-2.6833-4.2996-4.65-1.0333-1.9667-1.55-4.2-1.55-6.7s.5167-4.7167 1.55-6.65c1.0334-1.9667 2.4666-3.5 4.2996-4.6 1.867-1.1333 4-1.7 6.4-1.7 1.967 0 3.684.3833 5.15 1.15 1.5.7667 2.667 1.85 3.5 3.25V10h5.3v36h-4.75l-.55-3.85c-.8 1.1667-1.9 2.2-3.3 3.1-1.4.9-3.2 1.35-5.4 1.35zm.95-4.6c2.267 0 4.117-.7833 5.55-2.35 1.467-1.5667 2.2-3.5833 2.2-6.05 0-2.5-.733-4.5167-2.2-6.05-1.433-1.5667-3.283-2.35-5.55-2.35-2.266 0-4.133.7833-5.6 2.35-1.466 1.5333-2.2 3.55-2.2 6.05 0 1.6333.334 3.0833 1 4.35.667 1.2667 1.584 2.2667 2.75 3 1.2.7 2.55 1.05 4.05 1.05zm29.833 4.6c-2.433 0-4.6-.5333-6.5-1.6-1.867-1.1-3.333-2.6167-4.4-4.55-1.067-1.9333-1.6-4.1833-1.6-6.75 0-2.6.517-4.8833 1.55-6.85 1.067-1.9667 2.533-3.5 4.4-4.6 1.9-1.1 4.1-1.65 6.6-1.65 2.433 0 4.55.55 6.35 1.65 1.8 1.0667 3.2 2.5 4.2 4.3 1 1.8 1.5 3.7833 1.5 5.95 0 .3333-.017.7-.05 1.1 0 .3667-.017.7833-.05 1.25h-19.3c.167 2.4.95 4.2333 2.35 5.5 1.433 1.2333 3.083 1.85 4.95 1.85 1.5 0 2.75-.3333 3.75-1 1.033-.7 1.8-1.6333 2.3-2.8h5.3c-.667 2.3333-2 4.2833-4 5.85-1.967 1.5667-4.417 2.35-7.35 2.35zm0-21.65c-1.767 0-3.333.5333-4.7 1.6-1.367 1.0333-2.2 2.6-2.5 4.7h14c-.1-1.9333-.783-3.4667-2.05-4.6-1.267-1.1333-2.85-1.7-4.75-1.7zM155.388 46V21.2h4.75l.45 4.7c.867-1.6333 2.067-2.9167 3.6-3.85 1.567-.9667 3.45-1.45 5.65-1.45v5.55h-1.45c-1.467 0-2.783.25-3.95.75-1.133.4667-2.05 1.2833-2.75 2.45-.667 1.1333-1 2.7167-1 4.75V46h-5.3zm25.894.6c-2.1 0-3.833-.35-5.2-1.05-1.366-.7-2.383-1.6167-3.05-2.75-.666-1.1667-1-2.4333-1-3.8 0-2.4.934-4.3 2.8-5.7 1.867-1.4 4.534-2.1 8-2.1h6.5v-.45c0-1.9333-.533-3.3833-1.6-4.35-1.033-.9667-2.383-1.45-4.05-1.45-1.466 0-2.75.3667-3.85 1.1-1.066.7-1.716 1.75-1.95 3.15h-5.3c.167-1.8.767-3.3333 1.8-4.6 1.067-1.3 2.4-2.2833 4-2.95 1.634-.7 3.417-1.05 5.35-1.05 3.467 0 6.15.9167 8.05 2.75 1.9 1.8 2.85 4.2667 2.85 7.4V46h-4.6l-.45-4.25c-.7 1.3667-1.716 2.5167-3.05 3.45-1.333.9333-3.083 1.4-5.25 1.4zm1.05-4.3c1.434 0 2.634-.3333 3.6-1 1-.7 1.767-1.6167 2.3-2.75.567-1.1333.917-2.3833 1.05-3.75h-5.9c-2.1 0-3.6.3667-4.5 1.1-.866.7333-1.3 1.65-1.3 2.75 0 1.1333.417 2.0333 1.25 2.7.867.6333 2.034.95 3.5.95zm15.33 3.7v-4.3l13.25-16.1h-13.05v-4.4h19.05v4.3l-13.35 16.1h13.6V46h-19.5zm33.591-7.6c-1.3 0-2.5-.15-3.6-.45l-2.15 2.1c.367.2333.817.4333 1.35.6.533.1667 1.283.3167 2.25.45.967.1333 2.283.2667 3.95.4 3.3.3 5.683 1.1 7.15 2.4 1.467 1.2667 2.2 2.9667 2.2 5.1 0 1.4667-.4 2.85-1.2 4.15-.767 1.3333-1.983 2.4-3.65 3.2-1.633.8333-3.733 1.25-6.3 1.25-3.467 0-6.283-.6667-8.45-2-2.133-1.3-3.2-3.2833-3.2-5.95 0-1.0333.267-2.0667.8-3.1.567-1 1.45-1.95 2.65-2.85-.7-.3-1.317-.6167-1.85-.95-.5-.3667-.95-.7333-1.35-1.1v-1.2l4.3-4.4c-1.933-1.6667-2.9-3.85-2.9-6.55 0-1.6333.383-3.1167 1.15-4.45.8-1.3667 1.95-2.45 3.45-3.25 1.5-.8 3.3-1.2 5.4-1.2 1.4 0 2.7.2 3.9.6h9.25v3.5l-4.4.25c.8 1.3667 1.2 2.8833 1.2 4.55 0 1.6667-.4 3.1667-1.2 4.5-.767 1.3333-1.9 2.4-3.4 3.2-1.467.8-3.25 1.2-5.35 1.2zm0-4.15c1.533 0 2.767-.4 3.7-1.2.967-.8333 1.45-2 1.45-3.5 0-1.5333-.483-2.7-1.45-3.5-.933-.8-2.167-1.2-3.7-1.2-1.567 0-2.833.4-3.8 1.2-.933.8-1.4 1.9667-1.4 3.5 0 1.5.467 2.6667 1.4 3.5.967.8 2.233 1.2 3.8 1.2zm-6.65 14.9c0 1.4333.633 2.5 1.9 3.2 1.267.7333 2.85 1.1 4.75 1.1 1.833 0 3.317-.4 4.45-1.2 1.133-.7667 1.7-1.8 1.7-3.1 0-.9667-.383-1.8-1.15-2.5-.767-.6667-2.217-1.0833-4.35-1.25-1.6-.1-3.017-.25-4.25-.45-1.167.6333-1.967 1.3167-2.4 2.05-.433.7333-.65 1.45-.65 2.15zm33.651-2.55c-2.367 0-4.5-.5333-6.4-1.6-1.867-1.1-3.35-2.6167-4.45-4.55-1.1-1.9667-1.65-4.25-1.65-6.85 0-2.6.55-4.8667 1.65-6.8 1.133-1.9667 2.65-3.4833 4.55-4.55 1.9-1.1 4.016-1.65 6.35-1.65 2.366 0 4.483.55 6.35 1.65 1.9 1.0667 3.4 2.5833 4.5 4.55 1.133 1.9333 1.7 4.2 1.7 6.8 0 2.6-.567 4.8833-1.7 6.85-1.1 1.9333-2.6 3.45-4.5 4.55-1.9 1.0667-4.034 1.6-6.4 1.6zm0-4.55c1.266 0 2.433-.3167 3.5-.95 1.1-.6333 1.983-1.5667 2.65-2.8.666-1.2667 1-2.8333 1-4.7 0-1.8667-.334-3.4167-1-4.65-.634-1.2667-1.5-2.2167-2.6-2.85-1.067-.6333-2.234-.95-3.5-.95-1.267 0-2.45.3167-3.55.95-1.067.6333-1.934 1.5833-2.6 2.85-.667 1.2333-1 2.7833-1 4.65 0 1.8667.333 3.4333 1 4.7.666 1.2333 1.533 2.1667 2.6 2.8 1.066.6333 2.233.95 3.5.95zm40.979 4.55c-2.567 0-4.733-.4833-6.5-1.45-1.767-.9667-3.2-2.25-4.3-3.85-1.067-1.6-1.833-3.4-2.3-5.4-.467-2-.7-4.05-.7-6.15 0-3.8667.533-7.25 1.6-10.15 1.1-2.9 2.667-5.15 4.7-6.75 2.033-1.6333 4.5-2.45 7.4-2.45 2.3 0 4.267.45 5.9 1.35 1.633.9 2.9 2.1 3.8 3.6.933 1.5 1.5 3.1333 1.7 4.9h-4.95c-.3-1.7333-1.017-3.0667-2.15-4s-2.583-1.4-4.35-1.4c-2.433 0-4.45 1.15-6.05 3.45-1.567 2.2667-2.4 5.7667-2.5 10.5.8-1.4667 2.033-2.7167 3.7-3.75 1.7-1.0333 3.65-1.55 5.85-1.55 1.967 0 3.8.4667 5.5 1.4 1.733.9333 3.133 2.25 4.2 3.95 1.1 1.6667 1.65 3.65 1.65 5.95 0 2.0333-.5 3.95-1.5 5.75-1 1.8-2.417 3.2667-4.25 4.4-1.8 1.1-3.95 1.65-6.45 1.65zm-.3-4.6c1.4 0 2.65-.3 3.75-.9 1.1-.6 1.967-1.4167 2.6-2.45.633-1.0667.95-2.2667.95-3.6 0-2.1333-.7-3.8333-2.1-5.1-1.367-1.2667-3.117-1.9-5.25-1.9-1.4 0-2.667.3167-3.8.95-1.1.6333-1.967 1.4833-2.6 2.55-.633 1.0333-.95 2.1833-.95 3.45 0 1.3667.317 2.5833.95 3.65.667 1.0333 1.55 1.85 2.65 2.45 1.133.6 2.4.9 3.8.9zm31.542 4.6c-3.167 0-5.9-.75-8.2-2.25-2.267-1.5333-4.017-3.65-5.25-6.35-1.2-2.7333-1.8-5.9-1.8-9.5 0-3.6.6-6.75 1.8-9.45 1.233-2.7333 2.983-4.85 5.25-6.35 2.3-1.5333 5.033-2.3 8.2-2.3 3.166 0 5.883.7667 8.15 2.3 2.266 1.5 4 3.6167 5.2 6.35 1.233 2.7 1.85 5.85 1.85 9.45 0 3.6-.617 6.7667-1.85 9.5-1.2 2.7-2.934 4.8167-5.2 6.35-2.267 1.5-4.984 2.25-8.15 2.25zm0-4.75c1.9 0 3.583-.5333 5.05-1.6 1.5-1.0667 2.666-2.6 3.5-4.6.833-2 1.25-4.3833 1.25-7.15s-.417-5.15-1.25-7.15c-.834-2-2-3.5333-3.5-4.6-1.467-1.0667-3.15-1.6-5.05-1.6-1.934 0-3.634.5333-5.1 1.6-1.467 1.0667-2.617 2.6-3.45 4.6-.834 2-1.25 4.3833-1.25 7.15s.416 5.15 1.25 7.15c.833 2 1.983 3.5333 3.45 4.6 1.466 1.0667 3.166 1.6 5.1 1.6zm26.357-14.15c-1.566 0-2.983-.35-4.25-1.05-1.233-.7-2.216-1.6833-2.95-2.95-.733-1.3-1.1-2.85-1.1-4.65 0-1.7667.367-3.2833 1.1-4.55.734-1.3 1.734-2.3 3-3 1.267-.7 2.684-1.05 4.25-1.05 1.534 0 2.917.35 4.15 1.05 1.267.7 2.267 1.7 3 3 .734 1.2667 1.1 2.7833 1.1 4.55 0 1.8-.366 3.35-1.1 4.65-.733 1.2667-1.733 2.25-3 2.95-1.233.7-2.633 1.05-4.2 1.05zm-2.5 18.3l20.05-35h5.2l-20 35h-5.25zm2.5-22.1c1.067 0 1.984-.4 2.75-1.2.8-.8333 1.2-2.05 1.2-3.65s-.383-2.8-1.15-3.6c-.766-.8333-1.7-1.25-2.8-1.25-1.066 0-2 .4167-2.8 1.25-.8.8-1.2 2-1.2 3.6s.384 2.8167 1.15 3.65c.8.8 1.75 1.2 2.85 1.2zm20.55 22.7c-1.566 0-2.983-.35-4.25-1.05-1.233-.7-2.216-1.6833-2.95-2.95-.733-1.3-1.1-2.85-1.1-4.65 0-1.7667.367-3.3 1.1-4.6.734-1.3 1.734-2.3 3-3 1.267-.7 2.684-1.05 4.25-1.05 1.534 0 2.917.35 4.15 1.05 1.267.7 2.267 1.7 3 3 .734 1.3 1.1 2.8333 1.1 4.6 0 1.8-.366 3.35-1.1 4.65-.733 1.2667-1.733 2.25-3 2.95-1.233.7-2.633 1.05-4.2 1.05zm0-3.85c1.067 0 1.984-.4 2.75-1.2.8-.8 1.2-2 1.2-3.6s-.383-2.8-1.15-3.6c-.766-.8333-1.7-1.25-2.8-1.25-1.066 0-2 .4167-2.8 1.25-.8.8-1.2 2-1.2 3.6s.384 2.8 1.15 3.6c.8.8 1.75 1.2 2.85 1.2z" fill="#000"/></svg>