<svg width="401" height="66" viewBox="0 0 401 66" fill="none" xmlns="http://www.w3.org/2000/svg"><path d="M1.58523 4.90909V18h1.48295V8.05398h.12784L7.28693 18h1.43182l4.09095-9.94602h.1278V18h1.483V4.90909h-1.8921L8.07955 15.7756h-.15341L3.47727 4.90909H1.58523zM19.7436 18.2301c1.713 0 2.6079-.9204 2.9147-1.5596h.0767V18h1.5086v-6.4688c0-3.11927-2.3779-3.47722-3.6307-3.47722-1.483 0-3.1705.51136-3.9375 2.30112l1.4318.5114c.3324-.7159 1.1186-1.48298 2.5568-1.48298 1.3871 0 2.071.73508 2.071 1.99428v.0512c0 .7287-.7414.6648-2.5312.8949-1.8217.2365-3.8097.6392-3.8097 2.8892 0 1.9176 1.483 3.017 3.3495 3.017zm.2301-1.3551c-1.2017 0-2.0711-.5369-2.0711-1.5852 0-1.1506 1.0483-1.5086 2.2245-1.662.6392-.0767 2.3523-.2556 2.6079-.5625v1.3807c0 1.2273-.9716 2.429-2.7613 2.429zm7.9918-4.7812c0-1.7131 1.061-2.68471 2.5056-2.68471 1.3999 0 2.25.91411 2.25 2.45451V18h1.5086v-6.2386c0-2.50572-1.336-3.70742-3.3239-3.70742-1.483 0-2.4034.66477-2.8636 1.66193h-.1279V8.18182h-1.4574V18h1.5086v-5.9062zm12.5972 6.1107c1.9943 0 3.4517-.9971 3.9119-2.4801l-1.4573-.4091c-.3836 1.0228-1.2721 1.5341-2.4546 1.5341-1.7706 0-2.9915-1.1441-3.0618-3.2471h7.1271v-.6392c0-3.65628-2.1732-4.90912-4.2187-4.90912-2.6591 0-4.4233 2.09662-4.4233 5.11362 0 3.0171 1.7386 5.0369 4.5767 5.0369zm-3.0618-5.9062c.1023-1.5277 1.1825-2.88921 2.9084-2.88921 1.6364 0 2.6847 1.22731 2.6847 2.88921h-5.5931zm8.8819-4.11648V18.7159c0 .9972-.4091 1.5597-1.3296 1.5597h-.2812v1.4062h.3068c1.8921 0 2.8125-1.1506 2.8125-2.9659V8.18182h-1.5085zm.7415-1.63637c.588 0 1.0738-.46022 1.0738-1.02272S47.7123 4.5 47.1243 4.5c-.5881 0-1.0739.46023-1.0739 1.02273s.4858 1.02272 1.0739 1.02272zm6.9786 11.65905c2.6591 0 4.4489-2.0198 4.4489-5.0625 0-3.0681-1.7898-5.08802-4.4489-5.08802S49.654 10.0739 49.654 13.142c0 3.0427 1.7898 5.0625 4.4489 5.0625zm0-1.3551c-2.0199 0-2.9403-1.7386-2.9403-3.7074 0-1.9687.9204-3.73291 2.9403-3.73291 2.0199 0 2.9404 1.76421 2.9404 3.73291 0 1.9688-.9205 3.7074-2.9404 3.7074zm14.4415 1.3551c1.892 0 2.5312-1.1761 2.8636-1.713h.179V18h1.4574V4.90909h-1.5085v4.83239h-.1279c-.3324-.51137-.9204-1.6875-2.838-1.6875-2.4801 0-4.1932 1.96872-4.1932 5.06252 0 3.1193 1.7131 5.088 4.1676 5.088zm.2045-1.3551c-1.892 0-2.8636-1.6619-2.8636-3.7585 0-2.071.946-3.68181 2.8636-3.68181 1.841 0 2.8125 1.48291 2.8125 3.68181 0 2.2244-.9971 3.7585-2.8125 3.7585zm10.8443 1.3551c1.9943 0 3.4517-.9971 3.9119-2.4801l-1.4574-.4091c-.3835 1.0228-1.272 1.5341-2.4545 1.5341-1.7706 0-2.9915-1.1441-3.0618-3.2471h7.1271v-.6392c0-3.65628-2.1733-4.90912-4.2187-4.90912-2.6591 0-4.4233 2.09662-4.4233 5.11362 0 3.0171 1.7386 5.0369 4.5767 5.0369zm-3.0618-5.9062c.1023-1.5277 1.1825-2.88921 2.9084-2.88921 1.6363 0 2.6846 1.22731 2.6846 2.88921h-5.593zm10.3904-7.38921h-1.5085V18h1.5085V4.90909zm14.7742 3.27273h-1.637l-2.7099 7.82388h-.1023l-2.7102-7.82388h-1.6364L96.5309 18h1.5341l3.631-9.81818zM103.147 18h1.508V8.18182h-1.508V18zm.767-11.45455c.588 0 1.074-.46022 1.074-1.02272S104.502 4.5 103.914 4.5c-.588 0-1.074.46023-1.074 1.02273s.486 1.02272 1.074 1.02272zm9.919 3.83525c-.473-1.39348-1.534-2.32672-3.477-2.32672-2.071 0-3.606 1.17613-3.606 2.83802 0 1.3552.806 2.2628 2.608 2.6847l1.637.3835c.991.2301 1.457.7032 1.457 1.3807 0 .8438-.895 1.5341-2.301 1.5341-1.234 0-2.007-.5305-2.276-1.5852l-1.431.3579c.351 1.6684 1.725 2.5568 3.733 2.5568 2.282 0 3.835-1.2464 3.835-2.9403 0-1.3679-.857-2.2308-2.608-2.6591l-1.458-.3579c-1.163-.2877-1.687-.6776-1.687-1.4319 0-.84371.895-1.45735 2.097-1.45735 1.316 0 1.86.72865 2.122 1.40625l1.355-.3835zm8.097 3.6051c0 1.8409-1.406 2.6847-2.531 2.6847-1.253 0-2.148-.9205-2.148-2.3523V8.18182h-1.508v6.23868c0 2.5056 1.329 3.7073 3.17 3.7073 1.483 0 2.455-.7926 2.915-1.7897h.102V18h1.509V8.18182h-1.509v5.80398zm6.621 4.2443c1.713 0 2.608-.9204 2.915-1.5596h.076V18h1.509v-6.4688c0-3.11927-2.378-3.47722-3.631-3.47722-1.483 0-3.17.51136-3.937 2.30112l1.431.5114c.333-.7159 1.119-1.48298 2.557-1.48298 1.387 0 2.071.73508 2.071 1.99428v.0512c0 .7287-.741.6648-2.531.8949-1.822.2365-3.81.6392-3.81 2.8892 0 1.9176 1.483 3.017 3.35 3.017zm.23-1.3551c-1.202 0-2.071-.5369-2.071-1.5852 0-1.1506 1.048-1.5086 2.224-1.662.639-.0767 2.353-.2556 2.608-.5625v1.3807c0 1.2273-.971 2.429-2.761 2.429zm7.992-11.96591h-1.509V18h1.509V4.90909zm13.7 5.47161c-.473-1.39348-1.534-2.32672-3.478-2.32672-2.071 0-3.605 1.17613-3.605 2.83802 0 1.3552.806 2.2628 2.608 2.6847l1.637.3835c.99.2301 1.457.7032 1.457 1.3807 0 .8438-.895 1.5341-2.301 1.5341-1.234 0-2.007-.5305-2.276-1.5852l-1.432.3579c.352 1.6684 1.726 2.5568 3.733 2.5568 2.282 0 3.836-1.2464 3.836-2.9403 0-1.3679-.857-2.2308-2.608-2.6591l-1.458-.3579c-1.163-.2877-1.687-.6776-1.687-1.4319 0-.84371.895-1.45735 2.096-1.45735 1.317 0 1.86.72865 2.123 1.40625l1.355-.3835zm6.179-2.19888h-2.096V5.82955h-1.509v2.35227h-1.483v1.27841h1.483v6.13637c0 1.7131 1.381 2.5312 2.659 2.5312.563 0 .921-.1022 1.125-.1789l-.307-1.3551c-.127.0255-.332.0767-.664.0767-.665 0-1.304-.2046-1.304-1.483V9.46023h2.096V8.18182zm7.917 5.80398c0 1.8409-1.406 2.6847-2.531 2.6847-1.253 0-2.148-.9205-2.148-2.3523V8.18182h-1.509v6.23868c0 2.5056 1.33 3.7073 3.171 3.7073 1.483 0 2.454-.7926 2.915-1.7897h.102V18h1.508V8.18182h-1.508v5.80398zm7.439 4.2187c1.892 0 2.531-1.1761 2.863-1.713h.179V18h1.458V4.90909h-1.509v4.83239h-.128c-.332-.51137-.92-1.6875-2.838-1.6875-2.48 0-4.193 1.96872-4.193 5.06252 0 3.1193 1.713 5.088 4.168 5.088zm.204-1.3551c-1.892 0-2.863-1.6619-2.863-3.7585 0-2.071.946-3.68181 2.863-3.68181 1.841 0 2.813 1.48291 2.813 3.68181 0 2.2244-.997 3.7585-2.813 3.7585zM178.94 18h1.509V8.18182h-1.509V18zm.767-11.45455c.588 0 1.074-.46022 1.074-1.02272S180.295 4.5 179.707 4.5c-.588 0-1.074.46023-1.074 1.02273s.486 1.02272 1.074 1.02272zm6.953 11.65905c2.659 0 4.449-2.0198 4.449-5.0625 0-3.0681-1.79-5.08802-4.449-5.08802s-4.449 2.01992-4.449 5.08802c0 3.0427 1.79 5.0625 4.449 5.0625zm0-1.3551c-2.02 0-2.94-1.7386-2.94-3.7074 0-1.9687.92-3.73291 2.94-3.73291s2.941 1.76421 2.941 3.73291c0 1.9688-.921 3.7074-2.941 3.7074zm8.462-.6392h-1.637l-.076.7159c-.186 1.7323-.55 3.4581-.716 4.2699h1.15c.307-.8693.959-2.838 1.177-4.2954l.102-.6904zM202.104 18h1.585v-4.7812h2.864c3.049 0 4.423-1.8537 4.423-4.16766 0-2.31392-1.374-4.14205-4.449-4.14205h-4.423V18zm1.585-6.1875V6.31534h2.787c2.129 0 2.94 1.16335 2.94 2.7358 0 1.57246-.811 2.76136-2.914 2.76136h-2.813zM212.785 18h1.509v-6.2131c0-1.3295 1.048-2.3011 2.48-2.3011.402 0 .818.0767.92.10227V8.05398c-.172-.01279-.569-.02557-.792-.02557-1.177 0-2.199.66477-2.557 1.63636h-.103V8.18182h-1.457V18zm9.975.2045c1.994 0 3.452-.9971 3.912-2.4801l-1.457-.4091c-.384 1.0228-1.272 1.5341-2.455 1.5341-1.771 0-2.992-1.1441-3.062-3.2471h7.127v-.6392c0-3.65628-2.173-4.90912-4.218-4.90912-2.66 0-4.424 2.09662-4.424 5.11362 0 3.0171 1.739 5.0369 4.577 5.0369zm-3.062-5.9062c.102-1.5277 1.183-2.88921 2.909-2.88921 1.636 0 2.684 1.22731 2.684 2.88921h-5.593zm15.837-1.9176c-.473-1.39348-1.534-2.32672-3.478-2.32672-2.071 0-3.605 1.17613-3.605 2.83802 0 1.3552.806 2.2628 2.608 2.6847l1.637.3835c.99.2301 1.457.7032 1.457 1.3807 0 .8438-.895 1.5341-2.301 1.5341-1.234 0-2.007-.5305-2.276-1.5852l-1.432.3579c.352 1.6684 1.726 2.5568 3.733 2.5568 2.282 0 3.836-1.2464 3.836-2.9403 0-1.3679-.857-2.2308-2.608-2.6591l-1.458-.3579c-1.163-.2877-1.687-.6776-1.687-1.4319 0-.84371.895-1.45735 2.096-1.45735 1.317 0 1.86.72865 2.122 1.40625l1.356-.3835zm6.026 7.8238c1.994 0 3.452-.9971 3.912-2.4801l-1.458-.4091c-.383 1.0228-1.272 1.5341-2.454 1.5341-1.771 0-2.992-1.1441-3.062-3.2471h7.127v-.6392c0-3.65628-2.173-4.90912-4.219-4.90912-2.659 0-4.423 2.09662-4.423 5.11362 0 3.0171 1.739 5.0369 4.577 5.0369zm-3.062-5.9062c.102-1.5277 1.183-2.88921 2.908-2.88921 1.637 0 2.685 1.22731 2.685 2.88921h-5.593zm10.39-.2045c0-1.7131 1.062-2.68471 2.506-2.68471 1.4 0 2.25.91411 2.25 2.45451V18h1.509v-6.2386c0-2.50572-1.336-3.70742-3.324-3.70742-1.483 0-2.404.66477-2.864 1.66193h-.128V8.18182h-1.457V18h1.508v-5.9062zm12.751-3.91198h-2.096V5.82955h-1.509v2.35227h-1.483v1.27841h1.483v6.13637c0 1.7131 1.381 2.5312 2.659 2.5312.563 0 .921-.1022 1.125-.1789l-.307-1.3551c-.128.0255-.332.0767-.665.0767-.664 0-1.303-.2046-1.303-1.483V9.46023h2.096V8.18182zm4.618 10.04828c1.714 0 2.608-.9204 2.915-1.5596h.077V18h1.508v-6.4688c0-3.11927-2.377-3.47722-3.63-3.47722-1.483 0-3.171.51136-3.938 2.30112l1.432.5114c.332-.7159 1.119-1.48298 2.557-1.48298 1.387 0 2.071.73508 2.071 1.99428v.0512c0 .7287-.742.6648-2.531.8949-1.822.2365-3.81.6392-3.81 2.8892 0 1.9176 1.483 3.017 3.349 3.017zm.231-1.3551c-1.202 0-2.071-.5369-2.071-1.5852 0-1.1506 1.048-1.5086 2.224-1.662.639-.0767 2.352-.2556 2.608-.5625v1.3807c0 1.2273-.972 2.429-2.761 2.429zm10.471 1.3295c2.174 0 3.606-1.3295 3.861-3.0681h-1.508c-.282 1.0738-1.176 1.713-2.353 1.713-1.789 0-2.94-1.4829-2.94-3.7585 0-2.2244 1.176-3.68181 2.94-3.68181 1.33 0 2.123.81821 2.353 1.71311h1.508c-.255-1.84095-1.815-3.06822-3.886-3.06822-2.659 0-4.423 2.09662-4.423 5.08802 0 2.9404 1.687 5.0625 4.448 5.0625zM282.487 18h1.508V8.18182h-1.508V18zm.767-11.45455c.588 0 1.073-.46022 1.073-1.02272S283.842 4.5 283.254 4.5s-1.074.46023-1.074 1.02273.486 1.02272 1.074 1.02272zm6.953 11.65905c2.659 0 4.449-2.0198 4.449-5.0625 0-3.0681-1.79-5.08802-4.449-5.08802s-4.449 2.01992-4.449 5.08802c0 3.0427 1.79 5.0625 4.449 5.0625zm0-1.3551c-2.02 0-2.941-1.7386-2.941-3.7074 0-1.9687.921-3.73291 2.941-3.73291 2.02 0 2.94 1.76421 2.94 3.73291 0 1.9688-.92 3.7074-2.94 3.7074zm7.72-4.7556c0-1.7131 1.061-2.68471 2.505-2.68471 1.4 0 2.25.91411 2.25 2.45451V18h1.509v-6.2386c0-2.50572-1.336-3.70742-3.324-3.70742-1.483 0-2.403.66477-2.864 1.66193h-.127V8.18182h-1.458V18h1.509v-5.9062zm12.597 6.1107c1.994 0 3.452-.9971 3.912-2.4801l-1.457-.4091c-.384 1.0228-1.272 1.5341-2.455 1.5341-1.771 0-2.991-1.1441-3.062-3.2471h7.127v-.6392c0-3.65628-2.173-4.90912-4.218-4.90912-2.659 0-4.424 2.09662-4.424 5.11362 0 3.0171 1.739 5.0369 4.577 5.0369zm-3.062-5.9062c.103-1.5277 1.183-2.88921 2.909-2.88921 1.636 0 2.684 1.22731 2.684 2.88921h-5.593zm15.837-1.9176c-.473-1.39348-1.534-2.32672-3.478-2.32672-2.071 0-3.605 1.17613-3.605 2.83802 0 1.3552.806 2.2628 2.608 2.6847l1.637.3835c.99.2301 1.457.7032 1.457 1.3807 0 .8438-.895 1.5341-2.301 1.5341-1.234 0-2.007-.5305-2.276-1.5852l-1.432.3579c.352 1.6684 1.726 2.5568 3.733 2.5568 2.282 0 3.836-1.2464 3.836-2.9403 0-1.3679-.857-2.2308-2.608-2.6591l-1.458-.3579c-1.163-.2877-1.687-.6776-1.687-1.4319 0-.84371.895-1.45735 2.096-1.45735 1.317 0 1.86.72865 2.123 1.40625l1.355-.3835zm7.403 11.3011c1.362 0 2.321-.7223 2.89-2.25l4.18-11.22441-1.649-.02557-2.71 7.82388h-.103l-2.71-7.82388h-1.636l3.631 9.86928-.282.7671c-.549 1.4957-1.227 1.6363-2.326 1.3551l-.384 1.3295c.153.0767.588.179 1.099.179zm-329.32132 22H2.8892v-5.1903h.12785c.33238.5369.97159 1.713 2.86363 1.713 2.45455 0 4.16762-1.9687 4.16762-5.088 0-3.0938-1.71307-5.0625-4.19319-5.0625-1.91761 0-2.50568 1.1761-2.83806 1.6875h-.17898v-1.5597H1.38068v13.5zm1.48296-8.5909c0-2.1989.97159-3.6818 2.8125-3.6818 1.91761 0 2.86363 1.6108 2.86363 3.6818 0 2.0966-.97159 3.7585-2.86363 3.7585-1.81534 0-2.8125-1.5341-2.8125-3.7585zM13.318 26.9091h-1.5086V40h1.5086V26.9091zm5.1121 13.321c1.7131 0 2.608-.9204 2.9148-1.5596h.0767V40h1.5085v-6.4688c0-3.1193-2.3778-3.4772-3.6307-3.4772-1.4829 0-3.1704.5113-3.9375 2.3011l1.4319.5114c.3323-.7159 1.1186-1.483 2.5568-1.483 1.387 0 2.071.7351 2.071 1.9943v.0512c0 .7287-.7415.6648-2.5313.8949-1.8217.2365-3.8096.6392-3.8096 2.8892 0 1.9176 1.4829 3.017 3.3494 3.017zm.2301-1.3551c-1.2017 0-2.071-.5369-2.071-1.5852 0-1.1506 1.0483-1.5086 2.2244-1.662.6392-.0767 2.3523-.2556 2.608-.5625v1.3807c0 1.2273-.9716 2.429-2.7614 2.429zm7.9918-4.7812c0-1.7131 1.0611-2.6847 2.5057-2.6847 1.3999 0 2.25.9141 2.25 2.4545V40h1.5085v-6.2386c0-2.5057-1.3359-3.7074-3.3238-3.7074-1.483 0-2.4035.6648-2.8637 1.6619h-.1278v-1.5341h-1.4574V40h1.5085v-5.9062zm12.7507-3.912h-2.0966v-2.3523h-1.5085v2.3523h-1.483v1.2784h1.483v6.1364c0 1.7131 1.3806 2.5312 2.6591 2.5312.5625 0 .9204-.1022 1.125-.1789l-.3069-1.3551c-.1278.0255-.3323.0767-.6647.0767-.6648 0-1.304-.2046-1.304-1.483v-5.7273h2.0966v-1.2784zM41.1319 40h1.5085v-9.8182h-1.5085V40zm.767-11.4545c.5881 0 1.0739-.4603 1.0739-1.0228S42.487 26.5 41.8989 26.5c-.5881 0-1.0739.4602-1.0739 1.0227s.4858 1.0228 1.0739 1.0228zm4.473-1.6364h-1.5086V40h1.5086V26.9091zm3.7314 0h-1.5085V40h1.5085V26.9091zm5.1122 13.321c1.7131 0 2.608-.9204 2.9148-1.5596h.0767V40h1.5085v-6.4688c0-3.1193-2.3778-3.4772-3.6307-3.4772-1.4829 0-3.1704.5113-3.9375 2.3011l1.4318.5114c.3324-.7159 1.1187-1.483 2.5569-1.483 1.387 0 2.071.7351 2.071 1.9943v.0512c0 .7287-.7415.6648-2.5313.8949-1.8217.2365-3.8096.6392-3.8096 2.8892 0 1.9176 1.4829 3.017 3.3494 3.017zm.2301-1.3551c-1.2017 0-2.071-.5369-2.071-1.5852 0-1.1506 1.0483-1.5086 2.2244-1.662.6392-.0767 2.3523-.2556 2.608-.5625v1.3807c0 1.2273-.9716 2.429-2.7614 2.429zm13.4378-6.4943c-.473-1.3935-1.5341-2.3267-3.4772-2.3267-2.0711 0-3.6052 1.1761-3.6052 2.838 0 1.3552.8054 2.2628 2.608 2.6847l1.6364.3835c.9907.2301 1.4573.7032 1.4573 1.3807 0 .8438-.8948 1.5341-2.3011 1.5341-1.2337 0-2.0071-.5305-2.2756-1.5852l-1.4318.3579c.3516 1.6684 1.7259 2.5568 3.733 2.5568 2.2819 0 3.8352-1.2464 3.8352-2.9403 0-1.3679-.8565-2.2308-2.6079-2.6591l-1.4574-.3579c-1.1634-.2877-1.6875-.6776-1.6875-1.4319 0-.8437.8949-1.4573 2.0966-1.4573 1.3167 0 1.86.7286 2.1221 1.4062l1.3551-.3835zm10.5488 7.8238c1.9943 0 3.4517-.9971 3.9119-2.4801l-1.4574-.4091c-.3835 1.0228-1.272 1.5341-2.4545 1.5341-1.7706 0-2.9915-1.1441-3.0618-3.2471h7.1271v-.6392c0-3.6563-2.1733-4.9091-4.2188-4.9091-2.659 0-4.4232 2.0966-4.4232 5.1136 0 3.0171 1.7386 5.0369 4.5767 5.0369zm-3.0618-5.9062c.1022-1.5277 1.1825-2.8892 2.9083-2.8892 1.6364 0 2.6847 1.2273 2.6847 2.8892h-5.593zm10.3904-.2045c0-1.7131 1.061-2.6847 2.5056-2.6847 1.3999 0 2.25.9141 2.25 2.4545V40h1.5086v-6.2386c0-2.5057-1.336-3.7074-3.3239-3.7074-1.4829 0-2.4034.6648-2.8636 1.6619h-.1279v-1.5341h-1.4574V40h1.5086v-5.9062zm16.9922 6.1107c2.173 0 3.605-1.3295 3.86-3.0681h-1.508c-.281 1.0738-1.176 1.713-2.352 1.713-1.79 0-2.941-1.4829-2.941-3.7585 0-2.2244 1.176-3.6818 2.941-3.6818 1.329 0 2.122.8182 2.352 1.7131h1.508c-.255-1.841-1.815-3.0682-3.886-3.0682-2.659 0-4.4232 2.0966-4.4232 5.088 0 2.9404 1.6872 5.0625 4.4492 5.0625zm8.415.0256c1.713 0 2.608-.9204 2.915-1.5596h.076V40h1.509v-6.4688c0-3.1193-2.378-3.4772-3.631-3.4772-1.483 0-3.17.5113-3.937 2.3011l1.432.5114c.332-.7159 1.118-1.483 2.556-1.483 1.387 0 2.071.7351 2.071 1.9943v.0512c0 .7287-.741.6648-2.531.8949-1.822.2365-3.809.6392-3.809 2.8892 0 1.9176 1.482 3.017 3.349 3.017zm.23-1.3551c-1.202 0-2.071-.5369-2.071-1.5852 0-1.1506 1.048-1.5086 2.224-1.662.64-.0767 2.353-.2556 2.608-.5625v1.3807c0 1.2273-.971 2.429-2.761 2.429zm7.992-4.7812c0-1.7131 1.061-2.6847 2.506-2.6847 1.399 0 2.25.9141 2.25 2.4545V40h1.508v-6.2386c0-2.5057-1.336-3.7074-3.324-3.7074-1.483 0-2.403.6648-2.863 1.6619h-.128v-1.5341h-1.458V40h1.509v-5.9062zm16.157-3.912h-1.636l-2.71 7.8239h-.102l-2.711-7.8239h-1.636L131.383 40h1.534l3.63-9.8182zm4.042 10.0483c1.713 0 2.608-.9204 2.915-1.5596h.076V40h1.509v-6.4688c0-3.1193-2.378-3.4772-3.631-3.4772-1.483 0-3.17.5113-3.937 2.3011l1.432.5114c.332-.7159 1.118-1.483 2.556-1.483 1.387 0 2.071.7351 2.071 1.9943v.0512c0 .7287-.741.6648-2.531.8949-1.822.2365-3.809.6392-3.809 2.8892 0 1.9176 1.482 3.017 3.349 3.017zm.23-1.3551c-1.202 0-2.071-.5369-2.071-1.5852 0-1.1506 1.048-1.5086 2.224-1.662.64-.0767 2.353-.2556 2.608-.5625v1.3807c0 1.2273-.971 2.429-2.761 2.429zm7.583 1.2273c.633 0 1.15-.5178 1.15-1.1506s-.517-1.1506-1.15-1.1506c-.633 0-1.151.5178-1.151 1.1506s.518 1.1506 1.151 1.1506zM166.98 31c-.485-2.6847-2.633-4.2699-5.267-4.2699-3.349 0-5.778 2.5824-5.778 6.7244 0 4.1421 2.429 6.7245 5.778 6.7245 2.634 0 4.782-1.5852 5.267-4.2699h-1.585c-.383 1.8153-1.943 2.7869-3.682 2.7869-2.377 0-4.244-1.8409-4.244-5.2415 0-3.4005 1.867-5.2414 4.244-5.2414 1.739 0 3.299.9716 3.682 2.7869h1.585zm1.818 9h1.508v-6.2131c0-1.3295 1.048-2.3011 2.48-2.3011.403 0 .818.0767.921.1023V30.054c-.173-.0128-.569-.0256-.793-.0256-1.176 0-2.199.6648-2.557 1.6364h-.102v-1.483h-1.457V40zm9.974.2045c1.995 0 3.452-.9971 3.912-2.4801l-1.457-.4091c-.384 1.0228-1.272 1.5341-2.455 1.5341-1.77 0-2.991-1.1441-3.061-3.2471h7.127v-.6392c0-3.6563-2.173-4.9091-4.219-4.9091-2.659 0-4.423 2.0966-4.423 5.1136 0 3.0171 1.738 5.0369 4.576 5.0369zm-3.061-5.9062c.102-1.5277 1.182-2.8892 2.908-2.8892 1.636 0 2.685 1.2273 2.685 2.8892h-5.593zm11.771 5.9318c1.713 0 2.608-.9204 2.915-1.5596h.076V40h1.509v-6.4688c0-3.1193-2.378-3.4772-3.631-3.4772-1.483 0-3.17.5113-3.937 2.3011l1.431.5114c.333-.7159 1.119-1.483 2.557-1.483 1.387 0 2.071.7351 2.071 1.9943v.0512c0 .7287-.741.6648-2.531.8949-1.822.2365-3.81.6392-3.81 2.8892 0 1.9176 1.483 3.017 3.35 3.017zm.23-1.3551c-1.202 0-2.071-.5369-2.071-1.5852 0-1.1506 1.048-1.5086 2.224-1.662.639-.0767 2.353-.2556 2.608-.5625v1.3807c0 1.2273-.971 2.429-2.761 2.429zm10.472 1.3295c2.173 0 3.605-1.3295 3.861-3.0681h-1.509c-.281 1.0738-1.176 1.713-2.352 1.713-1.79 0-2.941-1.4829-2.941-3.7585 0-2.2244 1.177-3.6818 2.941-3.6818 1.329 0 2.122.8182 2.352 1.7131h1.509c-.256-1.841-1.816-3.0682-3.887-3.0682-2.659 0-4.423 2.0966-4.423 5.088 0 2.9404 1.687 5.0625 4.449 5.0625zM203.71 40h1.508v-9.8182h-1.508V40zm.767-11.4545c.588 0 1.074-.4603 1.074-1.0228s-.486-1.0227-1.074-1.0227c-.588 0-1.074.4602-1.074 1.0227s.486 1.0228 1.074 1.0228zm6.953 11.659c2.659 0 4.449-2.0198 4.449-5.0625 0-3.0681-1.79-5.088-4.449-5.088s-4.449 2.0199-4.449 5.088c0 3.0427 1.79 5.0625 4.449 5.0625zm0-1.3551c-2.02 0-2.94-1.7386-2.94-3.7074 0-1.9687.92-3.7329 2.94-3.7329s2.94 1.7642 2.94 3.7329c0 1.9688-.92 3.7074-2.94 3.7074zm7.72-4.7556c0-1.7131 1.061-2.6847 2.506-2.6847 1.4 0 2.25.9141 2.25 2.4545V40h1.508v-6.2386c0-2.5057-1.336-3.7074-3.324-3.7074-1.483 0-2.403.6648-2.863 1.6619h-.128v-1.5341h-1.457V40h1.508v-5.9062zm16.711 6.1107c1.892 0 2.531-1.1761 2.863-1.713h.179V40h1.458V26.9091h-1.509v4.8324h-.128c-.332-.5114-.92-1.6875-2.838-1.6875-2.48 0-4.193 1.9687-4.193 5.0625 0 3.1193 1.713 5.088 4.168 5.088zm.204-1.3551c-1.892 0-2.863-1.6619-2.863-3.7585 0-2.071.946-3.6818 2.863-3.6818 1.841 0 2.813 1.4829 2.813 3.6818 0 2.2244-.997 3.7585-2.813 3.7585zm10.844 1.3551c1.995 0 3.452-.9971 3.912-2.4801l-1.457-.4091c-.383 1.0228-1.272 1.5341-2.455 1.5341-1.77 0-2.991-1.1441-3.061-3.2471h7.127v-.6392c0-3.6563-2.173-4.9091-4.219-4.9091-2.659 0-4.423 2.0966-4.423 5.1136 0 3.0171 1.738 5.0369 4.576 5.0369zm-3.061-5.9062c.102-1.5277 1.182-2.8892 2.908-2.8892 1.636 0 2.685 1.2273 2.685 2.8892h-5.593zM257.252 40h1.509v-6.2131c0-1.3295 1.048-2.3011 2.48-2.3011.402 0 .818.0767.92.1023V30.054c-.172-.0128-.569-.0256-.792-.0256-1.177 0-2.199.6648-2.557 1.6364h-.103v-1.483h-1.457V40zm9.975.2045c1.994 0 3.452-.9971 3.912-2.4801l-1.457-.4091c-.384 1.0228-1.272 1.5341-2.455 1.5341-1.771 0-2.991-1.1441-3.062-3.2471h7.127v-.6392c0-3.6563-2.173-4.9091-4.218-4.9091-2.66 0-4.424 2.0966-4.424 5.1136 0 3.0171 1.739 5.0369 4.577 5.0369zm-3.062-5.9062c.102-1.5277 1.183-2.8892 2.909-2.8892 1.636 0 2.684 1.2273 2.684 2.8892h-5.593zm8.882 9.3835h1.509v-5.1903h.127c.333.5369.972 1.713 2.864 1.713 2.455 0 4.168-1.9687 4.168-5.088 0-3.0938-1.713-5.0625-4.193-5.0625-1.918 0-2.506 1.1761-2.839 1.6875h-.179v-1.5597h-1.457v13.5zm1.483-8.5909c0-2.1989.972-3.6818 2.813-3.6818 1.917 0 2.863 1.6108 2.863 3.6818 0 2.0966-.971 3.7585-2.863 3.7585-1.816 0-2.813-1.5341-2.813-3.7585zm12.934 5.1136c2.66 0 4.449-2.0198 4.449-5.0625 0-3.0681-1.789-5.088-4.449-5.088-2.659 0-4.448 2.0199-4.448 5.088 0 3.0427 1.789 5.0625 4.448 5.0625zm0-1.3551c-2.019 0-2.94-1.7386-2.94-3.7074 0-1.9687.921-3.7329 2.94-3.7329 2.02 0 2.941 1.7642 2.941 3.7329 0 1.9688-.921 3.7074-2.941 3.7074zm13.167-6.4687c-.473-1.3935-1.534-2.3267-3.478-2.3267-2.071 0-3.605 1.1761-3.605 2.838 0 1.3552.806 2.2628 2.608 2.6847l1.637.3835c.99.2301 1.457.7032 1.457 1.3807 0 .8438-.895 1.5341-2.301 1.5341-1.234 0-2.007-.5305-2.276-1.5852l-1.432.3579c.352 1.6684 1.726 2.5568 3.733 2.5568 2.282 0 3.836-1.2464 3.836-2.9403 0-1.3679-.857-2.2308-2.608-2.6591l-1.458-.3579c-1.163-.2877-1.687-.6776-1.687-1.4319 0-.8437.895-1.4573 2.096-1.4573 1.317 0 1.86.7286 2.122 1.4062l1.356-.3835zM302.54 40h1.509v-9.8182h-1.509V40zm.767-11.4545c.588 0 1.074-.4603 1.074-1.0228s-.486-1.0227-1.074-1.0227c-.588 0-1.073.4602-1.073 1.0227s.485 1.0228 1.073 1.0228zm7.235 1.6363h-2.097v-2.3523h-1.508v2.3523h-1.483v1.2784h1.483v6.1364c0 1.7131 1.38 2.5312 2.659 2.5312.562 0 .92-.1022 1.125-.1789l-.307-1.3551c-.128.0255-.332.0767-.665.0767-.665 0-1.304-.2046-1.304-1.483v-5.7273h2.097v-1.2784zm5.612 10.0227c2.659 0 4.449-2.0198 4.449-5.0625 0-3.0681-1.79-5.088-4.449-5.088s-4.449 2.0199-4.449 5.088c0 3.0427 1.79 5.0625 4.449 5.0625zm0-1.3551c-2.02 0-2.94-1.7386-2.94-3.7074 0-1.9687.92-3.7329 2.94-3.7329s2.94 1.7642 2.94 3.7329c0 1.9688-.92 3.7074-2.94 3.7074zM322.366 40h1.508v-6.2131c0-1.3295 1.048-2.3011 2.48-2.3011.403 0 .818.0767.921.1023V30.054c-.173-.0128-.569-.0256-.793-.0256-1.176 0-2.199.6648-2.557 1.6364h-.102v-1.483h-1.457V40zm6.157 0h1.508v-9.8182h-1.508V40zm.767-11.4545c.588 0 1.074-.4603 1.074-1.0228S329.878 26.5 329.29 26.5c-.588 0-1.074.4602-1.074 1.0227s.486 1.0228 1.074 1.0228zm6.953 11.659c2.659 0 4.449-2.0198 4.449-5.0625 0-3.0681-1.79-5.088-4.449-5.088s-4.449 2.0199-4.449 5.088c0 3.0427 1.79 5.0625 4.449 5.0625zm0-1.3551c-2.02 0-2.94-1.7386-2.94-3.7074 0-1.9687.92-3.7329 2.94-3.7329s2.94 1.7642 2.94 3.7329c0 1.9688-.92 3.7074-2.94 3.7074zm13.166-6.4687c-.473-1.3935-1.534-2.3267-3.477-2.3267-2.071 0-3.605 1.1761-3.605 2.838 0 1.3552.805 2.2628 2.608 2.6847l1.636.3835c.991.2301 1.458.7032 1.458 1.3807 0 .8438-.895 1.5341-2.302 1.5341-1.233 0-2.007-.5305-2.275-1.5852l-1.432.3579c.352 1.6684 1.726 2.5568 3.733 2.5568 2.282 0 3.835-1.2464 3.835-2.9403 0-1.3679-.856-2.2308-2.608-2.6591l-1.457-.3579c-1.164-.2877-1.688-.6776-1.688-1.4319 0-.8437.895-1.4573 2.097-1.4573 1.317 0 1.86.7286 2.122 1.4062l1.355-.3835zm6.432 11.3011h1.509v-5.1903h.128c.332.5369.971 1.713 2.863 1.713 2.455 0 4.168-1.9687 4.168-5.088 0-3.0938-1.713-5.0625-4.193-5.0625-1.918 0-2.506 1.1761-2.838 1.6875h-.179v-1.5597h-1.458v13.5zm1.483-8.5909c0-2.1989.972-3.6818 2.813-3.6818 1.918 0 2.864 1.6108 2.864 3.6818 0 2.0966-.972 3.7585-2.864 3.7585-1.815 0-2.813-1.5341-2.813-3.7585zm11.835 5.1392c1.713 0 2.608-.9204 2.915-1.5596h.077V40h1.508v-6.4688c0-3.1193-2.377-3.4772-3.63-3.4772-1.483 0-3.171.5113-3.938 2.3011l1.432.5114c.332-.7159 1.119-1.483 2.557-1.483 1.387 0 2.071.7351 2.071 1.9943v.0512c0 .7287-.742.6648-2.531.8949-1.822.2365-3.81.6392-3.81 2.8892 0 1.9176 1.483 3.017 3.349 3.017zm.231-1.3551c-1.202 0-2.071-.5369-2.071-1.5852 0-1.1506 1.048-1.5086 2.224-1.662.639-.0767 2.352-.2556 2.608-.5625v1.3807c0 1.2273-.972 2.429-2.761 2.429zM375.873 40h1.508v-6.2131c0-1.3295 1.049-2.3011 2.48-2.3011.403 0 .819.0767.921.1023V30.054c-.173-.0128-.569-.0256-.793-.0256-1.176 0-2.199.6648-2.557 1.6364h-.102v-1.483h-1.457V40zm9.046.2301c1.713 0 2.608-.9204 2.915-1.5596h.077V40h1.508v-6.4688c0-3.1193-2.378-3.4772-3.63-3.4772-1.483 0-3.171.5113-3.938 2.3011l1.432.5114c.332-.7159 1.119-1.483 2.557-1.483 1.387 0 2.071.7351 2.071 1.9943v.0512c0 .7287-.742.6648-2.532.8949-1.821.2365-3.809.6392-3.809 2.8892 0 1.9176 1.483 3.017 3.349 3.017zm.23-1.3551c-1.201 0-2.071-.5369-2.071-1.5852 0-1.1506 1.049-1.5086 2.225-1.662.639-.0767 2.352-.2556 2.608-.5625v1.3807c0 1.2273-.972 2.429-2.762 2.429zM5.49716 62.2045c1.99432 0 3.4517-.9971 3.91193-2.4801l-1.45739-.4091c-.38352 1.0228-1.27201 1.5341-2.45454 1.5341-1.7706 0-2.99148-1.1441-3.06179-3.2471H9.5625v-.6392c0-3.6563-2.1733-4.9091-4.21875-4.9091-2.65909 0-4.423295 2.0966-4.423295 5.1136 0 3.0171 1.738635 5.0369 4.576705 5.0369zm-3.06179-5.9062c.10227-1.5277 1.18253-2.8892 2.90838-2.8892 1.63636 0 2.68466 1.2273 2.68466 2.8892H2.43537zm10.39043-7.3892h-1.5086V62h1.5086V48.9091zM19.5712 62h1.5086v-6.1364c0-1.4382 1.0482-2.4545 2.2244-2.4545 1.1442 0 1.9432.7479 1.9432 1.8665V62h1.5341v-6.392c0-1.2657.7926-2.1989 2.1733-2.1989 1.0738 0 1.9943.5689 1.9943 2.0199V62h1.5085v-6.571c0-2.3076-1.2401-3.375-2.9915-3.375-1.4062 0-2.4354.6456-2.9403 1.6619h-.1023c-.4858-1.0483-1.3423-1.6619-2.6335-1.6619-1.2784 0-2.2245.6136-2.6335 1.6619h-.1279v-1.5341h-1.4574V62zm19.221.2045c1.9944 0 3.4517-.9971 3.912-2.4801l-1.4574-.4091c-.3835 1.0228-1.272 1.5341-2.4546 1.5341-1.7706 0-2.9914-1.1441-3.0618-3.2471h7.1272v-.6392c0-3.6563-2.1733-4.9091-4.2188-4.9091-2.6591 0-4.4233 2.0966-4.4233 5.1136 0 3.0171 1.7387 5.0369 4.5767 5.0369zm-3.0618-5.9062c.1023-1.5277 1.1826-2.8892 2.9084-2.8892 1.6364 0 2.6847 1.2273 2.6847 2.8892h-5.5931zm8.8819-4.1165v10.5341c0 .9972-.4091 1.5597-1.3295 1.5597h-.2813v1.4062h.3068c1.8921 0 2.8125-1.1506 2.8125-2.9659V52.1818h-1.5085zm.7415-1.6363c.5881 0 1.0739-.4603 1.0739-1.0228S45.9419 48.5 45.3538 48.5c-.5881 0-1.0739.4602-1.0739 1.0227s.4858 1.0228 1.0739 1.0228zm6.9786 11.659c2.6591 0 4.4489-2.0198 4.4489-5.0625 0-3.0681-1.7898-5.088-4.4489-5.088-2.659 0-4.4488 2.0199-4.4488 5.088 0 3.0427 1.7898 5.0625 4.4488 5.0625zm0-1.3551c-2.0198 0-2.9403-1.7386-2.9403-3.7074 0-1.9687.9205-3.7329 2.9403-3.7329 2.0199 0 2.9404 1.7642 2.9404 3.7329 0 1.9688-.9205 3.7074-2.9404 3.7074zM58.544 62h1.5086v-6.2131c0-1.3295 1.0483-2.3011 2.4801-2.3011.4027 0 .8182.0767.9204.1023V52.054c-.1726-.0128-.5689-.0256-.7926-.0256-1.1761 0-2.1988.6648-2.5568 1.6364h-.1023v-1.483H58.544V62zm10.6798 0h1.5085v-6.1364c0-1.4382 1.0483-2.4545 2.2245-2.4545 1.1441 0 1.9431.7479 1.9431 1.8665V62h1.5341v-6.392c0-1.2657.7926-2.1989 2.1733-2.1989 1.0739 0 1.9943.5689 1.9943 2.0199V62h1.5086v-6.571c0-2.3076-1.2401-3.375-2.9915-3.375-1.4063 0-2.4354.6456-2.9403 1.6619h-.1023c-.4858-1.0483-1.3424-1.6619-2.6335-1.6619-1.2785 0-2.2245.6136-2.6336 1.6619h-.1278v-1.5341h-1.4574V62zm17.9937.2301c1.7131 0 2.608-.9204 2.9148-1.5596h.0767V62h1.5085v-6.4688c0-3.1193-2.3778-3.4772-3.6306-3.4772-1.483 0-3.1705.5113-3.9375 2.3011l1.4318.5114c.3324-.7159 1.1186-1.483 2.5568-1.483 1.3871 0 2.071.7351 2.071 1.9943v.0512c0 .7287-.7415.6648-2.5312.8949-1.8218.2365-3.8097.6392-3.8097 2.8892 0 1.9176 1.483 3.017 3.3494 3.017zm.2302-1.3551c-1.2017 0-2.0711-.5369-2.0711-1.5852 0-1.1506 1.0483-1.5086 2.2245-1.662.6392-.0767 2.3522-.2556 2.6079-.5625v1.3807c0 1.2273-.9716 2.429-2.7613 2.429zm7.9917-4.7812c0-1.7131 1.0611-2.6847 2.5057-2.6847 1.3999 0 2.2499.9141 2.2499 2.4545V62h1.509v-6.2386c0-2.5057-1.336-3.7074-3.3242-3.7074-1.483 0-2.4034.6648-2.8637 1.6619h-.1278v-1.5341h-1.4574V62h1.5085v-5.9062zm12.5976 6.1107c1.994 0 3.451-.9971 3.912-2.4801l-1.458-.4091c-.383 1.0228-1.272 1.5341-2.454 1.5341-1.771 0-2.992-1.1441-3.062-3.2471h7.127v-.6392c0-3.6563-2.173-4.9091-4.219-4.9091-2.659 0-4.423 2.0966-4.423 5.1136 0 3.0171 1.739 5.0369 4.577 5.0369zm-3.062-5.9062c.102-1.5277 1.182-2.8892 2.908-2.8892 1.637 0 2.685 1.2273 2.685 2.8892h-5.593zm8.882-4.1165v10.5341c0 .9972-.409 1.5597-1.33 1.5597h-.281v1.4062h.307c1.892 0 2.812-1.1506 2.812-2.9659V52.1818h-1.508zm.741-1.6363c.588 0 1.074-.4603 1.074-1.0228s-.486-1.0227-1.074-1.0227c-.588 0-1.074.4602-1.074 1.0227s.486 1.0228 1.074 1.0228zm6.979 11.659c2.659 0 4.449-2.0198 4.449-5.0625 0-3.0681-1.79-5.088-4.449-5.088s-4.449 2.0199-4.449 5.088c0 3.0427 1.79 5.0625 4.449 5.0625zm0-1.3551c-2.02 0-2.94-1.7386-2.94-3.7074 0-1.9687.92-3.7329 2.94-3.7329s2.94 1.7642 2.94 3.7329c0 1.9688-.92 3.7074-2.94 3.7074zm14.441 1.3551c1.892 0 2.532-1.1761 2.864-1.713h.179V62h1.457V48.9091h-1.508v4.8324h-.128c-.332-.5114-.92-1.6875-2.838-1.6875-2.48 0-4.193 1.9687-4.193 5.0625 0 3.1193 1.713 5.088 4.167 5.088zm.205-1.3551c-1.892 0-2.864-1.6619-2.864-3.7585 0-2.071.946-3.6818 2.864-3.6818 1.841 0 2.812 1.4829 2.812 3.6818 0 2.2244-.997 3.7585-2.812 3.7585zm10.844 1.3551c1.994 0 3.452-.9971 3.912-2.4801l-1.457-.4091c-.384 1.0228-1.272 1.5341-2.455 1.5341-1.77 0-2.991-1.1441-3.062-3.2471h7.127v-.6392c0-3.6563-2.173-4.9091-4.218-4.9091-2.659 0-4.424 2.0966-4.424 5.1136 0 3.0171 1.739 5.0369 4.577 5.0369zm-3.062-5.9062c.103-1.5277 1.183-2.8892 2.909-2.8892 1.636 0 2.684 1.2273 2.684 2.8892h-5.593zM157.41 62h1.508v-6.1364c0-1.4382 1.049-2.4545 2.225-2.4545 1.144 0 1.943.7479 1.943 1.8665V62h1.534v-6.392c0-1.2657.793-2.1989 2.173-2.1989 1.074 0 1.995.5689 1.995 2.0199V62h1.508v-6.571c0-2.3076-1.24-3.375-2.991-3.375-1.407 0-2.436.6456-2.941 1.6619h-.102c-.486-1.0483-1.342-1.6619-2.633-1.6619-1.279 0-2.225.6136-2.634 1.6619h-.128v-1.5341h-1.457V62zm15.104 0h1.509v-9.8182h-1.509V62zm.767-11.4545c.588 0 1.074-.4603 1.074-1.0228s-.486-1.0227-1.074-1.0227c-.588 0-1.074.4602-1.074 1.0227s.486 1.0228 1.074 1.0228zm9.919 3.8352c-.473-1.3935-1.534-2.3267-3.477-2.3267-2.071 0-3.605 1.1761-3.605 2.838 0 1.3552.805 2.2628 2.608 2.6847l1.636.3835c.991.2301 1.458.7032 1.458 1.3807 0 .8438-.895 1.5341-2.302 1.5341-1.233 0-2.007-.5305-2.275-1.5852l-1.432.3579c.352 1.6684 1.726 2.5568 3.733 2.5568 2.282 0 3.835-1.2464 3.835-2.9403 0-1.3679-.856-2.2308-2.608-2.6591l-1.457-.3579c-1.163-.2877-1.688-.6776-1.688-1.4319 0-.8437.895-1.4573 2.097-1.4573 1.317 0 1.86.7286 2.122 1.4062l1.355-.3835zm9.322 7.8494c1.713 0 2.608-.9204 2.915-1.5596h.076V62h1.509v-6.4688c0-3.1193-2.378-3.4772-3.631-3.4772-1.483 0-3.17.5113-3.937 2.3011l1.431.5114c.333-.7159 1.119-1.483 2.557-1.483 1.387 0 2.071.7351 2.071 1.9943v.0512c0 .7287-.741.6648-2.531.8949-1.822.2365-3.81.6392-3.81 2.8892 0 1.9176 1.483 3.017 3.35 3.017zm.23-1.3551c-1.202 0-2.071-.5369-2.071-1.5852 0-1.1506 1.048-1.5086 2.224-1.662.639-.0767 2.353-.2556 2.608-.5625v1.3807c0 1.2273-.971 2.429-2.761 2.429zm10.472 1.3295c2.173 0 3.605-1.3295 3.861-3.0681h-1.509c-.281 1.0738-1.176 1.713-2.352 1.713-1.79 0-2.941-1.4829-2.941-3.7585 0-2.2244 1.177-3.6818 2.941-3.6818 1.329 0 2.122.8182 2.352 1.7131h1.509c-.256-1.841-1.816-3.0682-3.887-3.0682-2.659 0-4.423 2.0966-4.423 5.088 0 2.9404 1.687 5.0625 4.449 5.0625zm9.796-10.0227h-2.097v-2.3523h-1.508v2.3523h-1.483v1.2784h1.483v6.1364c0 1.7131 1.38 2.5312 2.659 2.5312.562 0 .92-.1022 1.125-.1789l-.307-1.3551c-.128.0255-.333.0767-.665.0767-.665 0-1.304-.2046-1.304-1.483v-5.7273h2.097v-1.2784zM214.749 62h1.508v-9.8182h-1.508V62zm.767-11.4545c.588 0 1.074-.4603 1.074-1.0228s-.486-1.0227-1.074-1.0227c-.588 0-1.074.4602-1.074 1.0227s.486 1.0228 1.074 1.0228zm10.993 1.6363h-1.637l-2.71 7.8239h-.102l-2.71-7.8239h-1.637L221.344 62h1.534l3.631-9.8182zM227.96 62h1.508v-9.8182h-1.508V62zm.767-11.4545c.588 0 1.074-.4603 1.074-1.0228s-.486-1.0227-1.074-1.0227c-.588 0-1.074.4602-1.074 1.0227s.486 1.0228 1.074 1.0228zm6.672 11.659c1.892 0 2.531-1.1761 2.863-1.713h.179V62h1.458V48.9091h-1.509v4.8324h-.128c-.332-.5114-.92-1.6875-2.838-1.6875-2.48 0-4.193 1.9687-4.193 5.0625 0 3.1193 1.713 5.088 4.168 5.088zm.204-1.3551c-1.892 0-2.863-1.6619-2.863-3.7585 0-2.071.946-3.6818 2.863-3.6818 1.841 0 2.813 1.4829 2.813 3.6818 0 2.2244-.997 3.7585-2.813 3.7585zm9.617 1.3807c1.713 0 2.608-.9204 2.915-1.5596h.077V62h1.508v-6.4688c0-3.1193-2.378-3.4772-3.63-3.4772-1.483 0-3.171.5113-3.938 2.3011l1.432.5114c.332-.7159 1.119-1.483 2.557-1.483 1.387 0 2.071.7351 2.071 1.9943v.0512c0 .7287-.742.6648-2.531.8949-1.822.2365-3.81.6392-3.81 2.8892 0 1.9176 1.483 3.017 3.349 3.017zm.23-1.3551c-1.201 0-2.071-.5369-2.071-1.5852 0-1.1506 1.049-1.5086 2.225-1.662.639-.0767 2.352-.2556 2.608-.5625v1.3807c0 1.2273-.972 2.429-2.762 2.429zm10.191 1.3295c1.892 0 2.531-1.1761 2.864-1.713h.179V62h1.457V48.9091h-1.508v4.8324h-.128c-.333-.5114-.921-1.6875-2.838-1.6875-2.481 0-4.194 1.9687-4.194 5.0625 0 3.1193 1.713 5.088 4.168 5.088zm.205-1.3551c-1.892 0-2.864-1.6619-2.864-3.7585 0-2.071.946-3.6818 2.864-3.6818 1.84 0 2.812 1.4829 2.812 3.6818 0 2.2244-.997 3.7585-2.812 3.7585zm10.844 1.3551c1.994 0 3.452-.9971 3.912-2.4801l-1.458-.4091c-.383 1.0228-1.272 1.5341-2.454 1.5341-1.771 0-2.992-1.1441-3.062-3.2471h7.127v-.6392c0-3.6563-2.173-4.9091-4.219-4.9091-2.659 0-4.423 2.0966-4.423 5.1136 0 3.0171 1.739 5.0369 4.577 5.0369zm-3.062-5.9062c.102-1.5277 1.183-2.8892 2.908-2.8892 1.637 0 2.685 1.2273 2.685 2.8892h-5.593zm15.836-1.9176c-.473-1.3935-1.534-2.3267-3.477-2.3267-2.071 0-3.605 1.1761-3.605 2.838 0 1.3552.805 2.2628 2.608 2.6847l1.636.3835c.991.2301 1.458.7032 1.458 1.3807 0 .8438-.895 1.5341-2.301 1.5341-1.234 0-2.007-.5305-2.276-1.5852l-1.432.3579c.352 1.6684 1.726 2.5568 3.733 2.5568 2.282 0 3.835-1.2464 3.835-2.9403 0-1.3679-.856-2.2308-2.608-2.6591l-1.457-.3579c-1.163-.2877-1.687-.6776-1.687-1.4319 0-.8437.894-1.4573 2.096-1.4573 1.317 0 1.86.7286 2.122 1.4062l1.355-.3835zm10.421 7.8238c2.174 0 3.605-1.3295 3.861-3.0681h-1.508c-.282 1.0738-1.177 1.713-2.353 1.713-1.789 0-2.94-1.4829-2.94-3.7585 0-2.2244 1.176-3.6818 2.94-3.6818 1.33 0 2.122.8182 2.353 1.7131h1.508c-.256-1.841-1.815-3.0682-3.886-3.0682-2.659 0-4.424 2.0966-4.424 5.088 0 2.9404 1.688 5.0625 4.449 5.0625zm9.515 0c2.659 0 4.449-2.0198 4.449-5.0625 0-3.0681-1.79-5.088-4.449-5.088s-4.449 2.0199-4.449 5.088c0 3.0427 1.79 5.0625 4.449 5.0625zm0-1.3551c-2.02 0-2.94-1.7386-2.94-3.7074 0-1.9687.92-3.7329 2.94-3.7329s2.94 1.7642 2.94 3.7329c0 1.9688-.92 3.7074-2.94 3.7074zm7.72-4.7556c0-1.7131 1.061-2.6847 2.506-2.6847 1.4 0 2.25.9141 2.25 2.4545V62h1.508v-6.2386c0-2.5057-1.336-3.7074-3.324-3.7074-1.482 0-2.403.6648-2.863 1.6619h-.128v-1.5341h-1.457V62h1.508v-5.9062zM329.277 53h1.636c-.486-2.5312-2.608-4.2699-5.369-4.2699-3.356 0-5.727 2.5824-5.727 6.7244 0 4.1421 2.352 6.7245 5.829 6.7245 3.119 0 5.344-2.0774 5.344-5.3182v-1.4063h-4.986v1.4063h3.452c-.045 2.3523-1.592 3.8352-3.81 3.8352-2.429 0-4.295-1.8409-4.295-5.2415 0-3.4005 1.866-5.2414 4.193-5.2414 1.892 0 3.177 1.0674 3.733 2.7869zm5.473-4.0909h-1.585V62h1.585V48.9091zm1.923 1.4062h4.116V62h1.585V50.3153h4.117v-1.4062h-9.818v1.4062zM348.397 62h1.586v-5.8551h6.98V62h1.585V48.9091h-1.585v5.8295h-6.98v-5.8295h-1.586V62zm21.376-13.0909v8.5398c0 1.9176-1.317 3.2983-3.503 3.2983s-3.503-1.3807-3.503-3.2983v-8.5398h-1.585v8.6676c0 2.6847 2.007 4.6534 5.088 4.6534s5.088-1.9687 5.088-4.6534v-8.6676h-1.585zM373.983 62h4.731c3.093 0 4.372-1.5085 4.372-3.4773 0-2.071-1.432-3.196-2.634-3.2727v-.1278c1.125-.3069 2.122-1.0483 2.122-2.7358 0-1.9176-1.278-3.4773-4.014-3.4773h-4.577V62zm1.586-1.4062v-4.5512h3.221c1.713 0 2.787 1.1506 2.787 2.4801 0 1.1506-.792 2.0711-2.863 2.0711h-3.145zm0-5.9319v-4.3466h2.991c1.739 0 2.506.9205 2.506 2.0711 0 1.3806-1.125 2.2755-2.557 2.2755h-2.94z" fill="#181717"/></svg>