<svg width="1250" height="130" viewBox="0 0 1250 130" fill="none" xmlns="http://www.w3.org/2000/svg"><path d="M263.072 46V11h5.3l17.55 26.35V11h5.3v35h-5.3l-17.55-26.35V46h-5.3zm36.554-29.5c-1 0-1.833-.3-2.5-.9-.633-.6333-.95-1.4167-.95-2.35s.317-1.7.95-2.3c.667-.6333 1.5-.95 2.5-.95s1.817.3167 2.45.95c.667.6 1 1.3667 1 2.3 0 .9333-.333 1.7167-1 2.35-.633.6-1.45.9-2.45.9zm-2.65 29.5V21.2h5.3V46h-5.3zm17.747 0l-9.3-24.8h5.55l6.9 19.75 6.9-19.75h5.5l-9.25 24.8h-6.3zm28.736.6c-2.434 0-4.6-.5333-6.5-1.6-1.867-1.1-3.334-2.6167-4.4-4.55-1.067-1.9333-1.6-4.1833-1.6-6.75 0-2.6.516-4.8833 1.55-6.85 1.066-1.9667 2.533-3.5 4.4-4.6 1.9-1.1 4.1-1.65 6.6-1.65 2.433 0 4.55.55 6.35 1.65 1.8 1.0667 3.2 2.5 4.2 4.3 1 1.8 1.5 3.7833 1.5 5.95 0 .3333-.017.7-.05 1.1 0 .3667-.017.7833-.05 1.25h-19.3c.166 2.4.95 4.2333 2.35 5.5 1.433 1.2333 3.083 1.85 4.95 1.85 1.5 0 2.75-.3333 3.75-1 1.033-.7 1.8-1.6333 2.3-2.8h5.3c-.667 2.3333-2 4.2833-4 5.85-1.967 1.5667-4.417 2.35-7.35 2.35zm0-21.65c-1.767 0-3.334.5333-4.7 1.6-1.367 1.0333-2.2 2.6-2.5 4.7h14c-.1-1.9333-.784-3.4667-2.05-4.6-1.267-1.1333-2.85-1.7-4.75-1.7zM359.558 46V10h5.3v36h-5.3zm22.112.6c-2.434 0-4.6-.5333-6.5-1.6-1.867-1.1-3.334-2.6167-4.4-4.55-1.067-1.9333-1.6-4.1833-1.6-6.75 0-2.6.516-4.8833 1.55-6.85 1.066-1.9667 2.533-3.5 4.4-4.6 1.9-1.1 4.1-1.65 6.6-1.65 2.433 0 4.55.55 6.35 1.65 1.8 1.0667 3.2 2.5 4.2 4.3 1 1.8 1.5 3.7833 1.5 5.95 0 .3333-.017.7-.05 1.1 0 .3667-.017.7833-.05 1.25h-19.3c.166 2.4.95 4.2333 2.35 5.5 1.433 1.2333 3.083 1.85 4.95 1.85 1.5 0 2.75-.3333 3.75-1 1.033-.7 1.8-1.6333 2.3-2.8h5.3c-.667 2.3333-2 4.2833-4 5.85-1.967 1.5667-4.417 2.35-7.35 2.35zm0-21.65c-1.767 0-3.334.5333-4.7 1.6-1.367 1.0333-2.2 2.6-2.5 4.7h14c-.1-1.9333-.784-3.4667-2.05-4.6-1.267-1.1333-2.85-1.7-4.75-1.7zm25.999 21.65c-3.133 0-5.717-.7667-7.75-2.3-2.033-1.5333-3.2-3.5667-3.5-6.1h5.35c.267 1.1333.9 2.1167 1.9 2.95 1 .8 2.317 1.2 3.95 1.2 1.6 0 2.767-.3333 3.5-1 .733-.6667 1.1-1.4333 1.1-2.3 0-1.2667-.517-2.1167-1.55-2.55-1-.4667-2.4-.8833-4.2-1.25-1.4-.3-2.8-.7-4.2-1.2-1.367-.5-2.517-1.2-3.45-2.1-.9-.9333-1.35-2.1833-1.35-3.75 0-2.1667.833-3.9667 2.5-5.4 1.667-1.4667 4-2.2 7-2.2 2.767 0 5 .6667 6.7 2 1.733 1.3333 2.75 3.2167 3.05 5.65h-5.1c-.167-1.0667-.667-1.9-1.5-2.5-.8-.6-1.883-.9-3.25-.9-1.333 0-2.367.2833-3.1.85-.733.5333-1.1 1.2333-1.1 2.1s.5 1.55 1.5 2.05c1.033.5 2.383.95 4.05 1.35 1.667.3667 3.2.8 4.6 1.3 1.433.4667 2.583 1.1667 3.45 2.1s1.3 2.3 1.3 4.1c.033 2.2667-.85 4.15-2.65 5.65-1.767 1.5-4.183 2.25-7.25 2.25zm36.584 0c-2.4 0-4.517-.5667-6.35-1.7-1.834-1.1333-3.267-2.6833-4.3-4.65-1.034-1.9667-1.55-4.2-1.55-6.7s.516-4.7167 1.55-6.65c1.033-1.9667 2.466-3.5 4.3-4.6 1.866-1.1333 4-1.7 6.4-1.7 1.966 0 3.683.3833 5.15 1.15 1.5.7667 2.666 1.85 3.5 3.25V10h5.3v36h-4.75l-.55-3.85c-.8 1.1667-1.9 2.2-3.3 3.1-1.4.9-3.2 1.35-5.4 1.35zm.95-4.6c2.266 0 4.116-.7833 5.55-2.35 1.466-1.5667 2.2-3.5833 2.2-6.05 0-2.5-.734-4.5167-2.2-6.05-1.434-1.5667-3.284-2.35-5.55-2.35-2.267 0-4.134.7833-5.6 2.35-1.467 1.5333-2.2 3.55-2.2 6.05 0 1.6333.333 3.0833 1 4.35.666 1.2667 1.583 2.2667 2.75 3 1.2.7 2.55 1.05 4.05 1.05zm29.832 4.6c-2.433 0-4.6-.5333-6.5-1.6-1.867-1.1-3.333-2.6167-4.4-4.55-1.067-1.9333-1.6-4.1833-1.6-6.75 0-2.6.517-4.8833 1.55-6.85 1.067-1.9667 2.533-3.5 4.4-4.6 1.9-1.1 4.1-1.65 6.6-1.65 2.433 0 4.55.55 6.35 1.65 1.8 1.0667 3.2 2.5 4.2 4.3 1 1.8 1.5 3.7833 1.5 5.95 0 .3333-.017.7-.05 1.1 0 .3667-.017.7833-.05 1.25h-19.3c.167 2.4.95 4.2333 2.35 5.5 1.433 1.2333 3.083 1.85 4.95 1.85 1.5 0 2.75-.3333 3.75-1 1.033-.7 1.8-1.6333 2.3-2.8h5.3c-.667 2.3333-2 4.2833-4 5.85-1.967 1.5667-4.417 2.35-7.35 2.35zm0-21.65c-1.767 0-3.333.5333-4.7 1.6-1.367 1.0333-2.2 2.6-2.5 4.7h14c-.1-1.9333-.783-3.4667-2.05-4.6-1.267-1.1333-2.85-1.7-4.75-1.7zM502.232 46V21.2h4.7l.45 3.5c.8-1.2667 1.85-2.2667 3.15-3 1.333-.7333 2.867-1.1 4.6-1.1 3.933 0 6.667 1.55 8.2 4.65.9-1.4333 2.1-2.5667 3.6-3.4 1.533-.8333 3.183-1.25 4.95-1.25 3.1 0 5.533.9333 7.3 2.8 1.767 1.8667 2.65 4.65 2.65 8.35V46h-5.3V32.3c0-4.8-1.833-7.2-5.5-7.2-1.867 0-3.4.7-4.6 2.1-1.167 1.4-1.75 3.4-1.75 6V46h-5.3V32.3c0-4.8-1.85-7.2-5.55-7.2-1.833 0-3.35.7-4.55 2.1-1.167 1.4-1.75 3.4-1.75 6V46h-5.3zm47.301-29.5c-1 0-1.834-.3-2.5-.9-.634-.6333-.95-1.4167-.95-2.35s.316-1.7.95-2.3c.666-.6333 1.5-.95 2.5-.95s1.816.3167 2.45.95c.666.6 1 1.3667 1 2.3 0 .9333-.334 1.7167-1 2.35-.634.6-1.45.9-2.45.9zm-2.65 29.5V21.2h5.3V46h-5.3zm32.294 0c-2.434 0-4.367-.5833-5.8-1.75-1.434-1.2-2.15-3.3167-2.15-6.35V25.65h-4.25V21.2h4.25l.65-6.3h4.65v6.3h7v4.45h-7V37.9c0 1.3667.283 2.3167.85 2.85.6.5 1.616.75 3.05.75h2.85V46h-4.1zm8.315 0V21.2h4.75l.45 4.7c.866-1.6333 2.066-2.9167 3.6-3.85 1.566-.9667 3.45-1.45 5.65-1.45v5.55h-1.45c-1.467 0-2.784.25-3.95.75-1.134.4667-2.05 1.2833-2.75 2.45-.667 1.1333-1 2.7167-1 4.75V46h-5.3zm25.894.6c-2.1 0-3.834-.35-5.2-1.05-1.367-.7-2.384-1.6167-3.05-2.75-.667-1.1667-1-2.4333-1-3.8 0-2.4.933-4.3 2.8-5.7 1.866-1.4 4.533-2.1 8-2.1h6.5v-.45c0-1.9333-.534-3.3833-1.6-4.35-1.034-.9667-2.384-1.45-4.05-1.45-1.467 0-2.75.3667-3.85 1.1-1.067.7-1.717 1.75-1.95 3.15h-5.3c.166-1.8.766-3.3333 1.8-4.6 1.066-1.3 2.4-2.2833 4-2.95 1.633-.7 3.416-1.05 5.35-1.05 3.466 0 6.15.9167 8.05 2.75 1.9 1.8 2.85 4.2667 2.85 7.4V46h-4.6l-.45-4.25c-.7 1.3667-1.717 2.5167-3.05 3.45-1.334.9333-3.084 1.4-5.25 1.4zm1.05-4.3c1.433 0 2.633-.3333 3.6-1 1-.7 1.766-1.6167 2.3-2.75.566-1.1333.916-2.3833 1.05-3.75h-5.9c-2.1 0-3.6.3667-4.5 1.1-.867.7333-1.3 1.65-1.3 2.75 0 1.1333.416 2.0333 1.25 2.7.866.6333 2.033.95 3.5.95zm30.929 4.3c-1.933 0-3.65-.3833-5.15-1.15-1.466-.7667-2.633-1.85-3.5-3.25l-.55 3.8h-4.75V10h5.3v15.05c.8-1.1667 1.9-2.2 3.3-3.1 1.4-.9 3.2-1.35 5.4-1.35 2.4 0 4.517.5667 6.35 1.7 1.834 1.1333 3.267 2.6833 4.3 4.65 1.067 1.9667 1.6 4.2 1.6 6.7s-.533 4.7333-1.6 6.7c-1.033 1.9333-2.466 3.4667-4.3 4.6-1.833 1.1-3.966 1.65-6.4 1.65zm-.9-4.6c2.267 0 4.134-.7667 5.6-2.3 1.467-1.5667 2.2-3.6 2.2-6.1 0-1.6333-.333-3.0833-1-4.35-.666-1.2667-1.583-2.25-2.75-2.95-1.166-.7333-2.516-1.1-4.05-1.1-2.266 0-4.133.7833-5.6 2.35-1.433 1.5667-2.15 3.5833-2.15 6.05 0 2.5.717 4.5333 2.15 6.1 1.467 1.5333 3.334 2.3 5.6 2.3zm25.833 4.6c-2.1 0-3.833-.35-5.2-1.05-1.367-.7-2.383-1.6167-3.05-2.75-.667-1.1667-1-2.4333-1-3.8 0-2.4.933-4.3 2.8-5.7 1.867-1.4 4.533-2.1 8-2.1h6.5v-.45c0-1.9333-.533-3.3833-1.6-4.35-1.033-.9667-2.383-1.45-4.05-1.45-1.467 0-2.75.3667-3.85 1.1-1.067.7-1.717 1.75-1.95 3.15h-5.3c.167-1.8.767-3.3333 1.8-4.6 1.067-1.3 2.4-2.2833 4-2.95 1.633-.7 3.417-1.05 5.35-1.05 3.467 0 6.15.9167 8.05 2.75 1.9 1.8 2.85 4.2667 2.85 7.4V46h-4.6l-.45-4.25c-.7 1.3667-1.717 2.5167-3.05 3.45-1.333.9333-3.083 1.4-5.25 1.4zm1.05-4.3c1.433 0 2.633-.3333 3.6-1 1-.7 1.767-1.6167 2.3-2.75.567-1.1333.917-2.3833 1.05-3.75h-5.9c-2.1 0-3.6.3667-4.5 1.1-.867.7333-1.3 1.65-1.3 2.75 0 1.1333.417 2.0333 1.25 2.7.867.6333 2.033.95 3.5.95zm20.13-25.8c-1 0-1.834-.3-2.5-.9-.634-.6333-.95-1.4167-.95-2.35s.316-1.7.95-2.3c.666-.6333 1.5-.95 2.5-.95s1.816.3167 2.45.95c.666.6 1 1.3667 1 2.3 0 .9333-.334 1.7167-1 2.35-.634.6-1.45.9-2.45.9zm-7.9 40.5v-4.5h1.95c1.166 0 2-.25 2.5-.75.5-.4667.75-1.2667.75-2.4V21.2h5.3v28.2c0 2.7-.684 4.6333-2.05 5.8-1.367 1.2-3.267 1.8-5.7 1.8h-2.75zm27.594-10.4c-2.367 0-4.5-.5333-6.4-1.6-1.867-1.1-3.35-2.6167-4.45-4.55-1.1-1.9667-1.65-4.25-1.65-6.85 0-2.6.55-4.8667 1.65-6.8 1.133-1.9667 2.65-3.4833 4.55-4.55 1.9-1.1 4.016-1.65 6.35-1.65 2.366 0 4.483.55 6.35 1.65 1.9 1.0667 3.4 2.5833 4.5 4.55 1.133 1.9333 1.7 4.2 1.7 6.8 0 2.6-.567 4.8833-1.7 6.85-1.1 1.9333-2.6 3.45-4.5 4.55-1.9 1.0667-4.034 1.6-6.4 1.6zm0-4.55c1.266 0 2.433-.3167 3.5-.95 1.1-.6333 1.983-1.5667 2.65-2.8.666-1.2667 1-2.8333 1-4.7 0-1.8667-.334-3.4167-1-4.65-.634-1.2667-1.5-2.2167-2.6-2.85-1.067-.6333-2.234-.95-3.5-.95-1.267 0-2.45.3167-3.55.95-1.067.6333-1.934 1.5833-2.6 2.85-.667 1.2333-1 2.7833-1 4.65 0 1.8667.333 3.4333 1 4.7.666 1.2333 1.533 2.1667 2.6 2.8 1.066.6333 2.233.95 3.5.95zM742.001 57l5.95-13.05h-1.45l-9.8-22.75h5.75l7.6 18.35 7.95-18.35h5.6l-16 35.8h-5.6zm43.955-10.4c-2.1 0-3.833-.35-5.2-1.05-1.367-.7-2.383-1.6167-3.05-2.75-.667-1.1667-1-2.4333-1-3.8 0-2.4.933-4.3 2.8-5.7 1.867-1.4 4.533-2.1 8-2.1h6.5v-.45c0-1.9333-.533-3.3833-1.6-4.35-1.033-.9667-2.383-1.45-4.05-1.45-1.467 0-2.75.3667-3.85 1.1-1.067.7-1.717 1.75-1.95 3.15h-5.3c.167-1.8.767-3.3333 1.8-4.6 1.067-1.3 2.4-2.2833 4-2.95 1.633-.7 3.417-1.05 5.35-1.05 3.467 0 6.15.9167 8.05 2.75 1.9 1.8 2.85 4.2667 2.85 7.4V46h-4.6l-.45-4.25c-.7 1.3667-1.717 2.5167-3.05 3.45-1.333.9333-3.083 1.4-5.25 1.4zm1.05-4.3c1.433 0 2.633-.3333 3.6-1 1-.7 1.767-1.6167 2.3-2.75.567-1.1333.917-2.3833 1.05-3.75h-5.9c-2.1 0-3.6.3667-4.5 1.1-.867.7333-1.3 1.65-1.3 2.75 0 1.1333.417 2.0333 1.25 2.7.867.6333 2.033.95 3.5.95zm16.98 14.7V21.2h4.75l.55 3.85c.8-1.1667 1.9-2.2 3.3-3.1 1.4-.9 3.2-1.35 5.4-1.35 2.4 0 4.516.5667 6.35 1.7 1.833 1.1333 3.266 2.6833 4.3 4.65 1.066 1.9667 1.6 4.2 1.6 6.7s-.534 4.7333-1.6 6.7c-1.034 1.9333-2.467 3.4667-4.3 4.6-1.834 1.1-3.967 1.65-6.4 1.65-1.934 0-3.65-.3833-5.15-1.15-1.467-.7667-2.634-1.85-3.5-3.25V57h-5.3zm13.05-15c2.266 0 4.133-.7667 5.6-2.3 1.466-1.5667 2.2-3.6 2.2-6.1 0-1.6333-.334-3.0833-1-4.35-.667-1.2667-1.584-2.25-2.75-2.95-1.167-.7333-2.517-1.1-4.05-1.1-2.267 0-4.134.7833-5.6 2.35-1.434 1.5667-2.15 3.5833-2.15 6.05 0 2.5.716 4.5333 2.15 6.1 1.466 1.5333 3.333 2.3 5.6 2.3zm26.856 4c-2.434 0-4.367-.5833-5.8-1.75-1.434-1.2-2.15-3.3167-2.15-6.35V25.65h-4.25V21.2h4.25l.65-6.3h4.65v6.3h7v4.45h-7V37.9c0 1.3667.283 2.3167.85 2.85.6.5 1.616.75 3.05.75h2.85V46h-4.1zm11.314-29.5c-1 0-1.833-.3-2.5-.9-.633-.6333-.95-1.4167-.95-2.35s.317-1.7.95-2.3c.667-.6333 1.5-.95 2.5-.95s1.817.3167 2.45.95c.667.6 1 1.3667 1 2.3 0 .9333-.333 1.7167-1 2.35-.633.6-1.45.9-2.45.9zm-2.65 29.5V21.2h5.3V46h-5.3zm21.197 0c-2.433 0-4.367-.5833-5.8-1.75-1.433-1.2-2.15-3.3167-2.15-6.35V25.65h-4.25V21.2h4.25l.65-6.3h4.65v6.3h7v4.45h-7V37.9c0 1.3667.283 2.3167.85 2.85.6.5 1.617.75 3.05.75h2.85V46h-4.1zm17.465.6c-3 0-5.367-.9333-7.1-2.8-1.7-1.8667-2.55-4.65-2.55-8.35V21.2h5.3v13.7c0 4.8 1.966 7.2 5.9 7.2 1.966 0 3.583-.7 4.85-2.1 1.266-1.4 1.9-3.4 1.9-6V21.2h5.3V46h-4.7l-.4-4.35c-.767 1.5333-1.9 2.75-3.4 3.65-1.467.8667-3.167 1.3-5.1 1.3zm30.142 0c-2.4 0-4.517-.5667-6.35-1.7-1.833-1.1333-3.267-2.6833-4.3-4.65-1.033-1.9667-1.55-4.2-1.55-6.7s.517-4.7167 1.55-6.65c1.033-1.9667 2.467-3.5 4.3-4.6 1.867-1.1333 4-1.7 6.4-1.7 1.967 0 3.683.3833 5.15 1.15 1.5.7667 2.667 1.85 3.5 3.25V10h5.3v36h-4.75l-.55-3.85c-.8 1.1667-1.9 2.2-3.3 3.1-1.4.9-3.2 1.35-5.4 1.35zm.95-4.6c2.267 0 4.117-.7833 5.55-2.35 1.467-1.5667 2.2-3.5833 2.2-6.05 0-2.5-.733-4.5167-2.2-6.05-1.433-1.5667-3.283-2.35-5.55-2.35s-4.133.7833-5.6 2.35c-1.467 1.5333-2.2 3.55-2.2 6.05 0 1.6333.333 3.0833 1 4.35.667 1.2667 1.583 2.2667 2.75 3 1.2.7 2.55 1.05 4.05 1.05zm29.832 4.6c-2.433 0-4.6-.5333-6.5-1.6-1.866-1.1-3.333-2.6167-4.4-4.55-1.066-1.9333-1.6-4.1833-1.6-6.75 0-2.6.517-4.8833 1.55-6.85 1.067-1.9667 2.534-3.5 4.4-4.6 1.9-1.1 4.1-1.65 6.6-1.65 2.434 0 4.55.55 6.35 1.65 1.8 1.0667 3.2 2.5 4.2 4.3 1 1.8 1.5 3.7833 1.5 5.95 0 .3333-.016.7-.05 1.1 0 .3667-.016.7833-.05 1.25h-19.3c.167 2.4.95 4.2333 2.35 5.5 1.434 1.2333 3.084 1.85 4.95 1.85 1.5 0 2.75-.3333 3.75-1 1.034-.7 1.8-1.6333 2.3-2.8h5.3c-.666 2.3333-2 4.2833-4 5.85-1.966 1.5667-4.416 2.35-7.35 2.35zm0-21.65c-1.766 0-3.333.5333-4.7 1.6-1.366 1.0333-2.2 2.6-2.5 4.7h14c-.1-1.9333-.783-3.4667-2.05-4.6-1.266-1.1333-2.85-1.7-4.75-1.7zm26 21.65c-3.134 0-5.717-.7667-7.75-2.3-2.034-1.5333-3.2-3.5667-3.5-6.1h5.35c.266 1.1333.9 2.1167 1.9 2.95 1 .8 2.316 1.2 3.95 1.2 1.6 0 2.766-.3333 3.5-1 .733-.6667 1.1-1.4333 1.1-2.3 0-1.2667-.517-2.1167-1.55-2.55-1-.4667-2.4-.8833-4.2-1.25-1.4-.3-2.8-.7-4.2-1.2-1.367-.5-2.517-1.2-3.45-2.1-.9-.9333-1.35-2.1833-1.35-3.75 0-2.1667.833-3.9667 2.5-5.4 1.666-1.4667 4-2.2 7-2.2 2.766 0 5 .6667 6.7 2 1.733 1.3333 2.75 3.2167 3.05 5.65h-5.1c-.167-1.0667-.667-1.9-1.5-2.5-.8-.6-1.884-.9-3.25-.9-1.334 0-2.367.2833-3.1.85-.734.5333-1.1 1.2333-1.1 2.1s.5 1.55 1.5 2.05c1.033.5 2.383.95 4.05 1.35 1.666.3667 3.2.8 4.6 1.3 1.433.4667 2.583 1.1667 3.45 2.1.866.9333 1.3 2.3 1.3 4.1.033 2.2667-.85 4.15-2.65 5.65-1.767 1.5-4.184 2.25-7.25 2.25z" fill="#000"/></svg>