<svg width="506" height="78" viewBox="0 0 506 78" fill="none" xmlns="http://www.w3.org/2000/svg"><path d="M107.171 46.6c-3.467 0-6.5-.7667-9.1003-2.3-2.6-1.5333-4.6333-3.65-6.1-6.35-1.4667-2.7333-2.2-5.8833-2.2-9.45 0-3.5667.7333-6.7 2.2-9.4 1.4667-2.7333 3.5-4.8667 6.1-6.4 2.6003-1.5333 5.6333-2.3 9.1003-2.3 3.466 0 6.5.7667 9.1 2.3 2.6 1.5333 4.616 3.6667 6.05 6.4 1.466 2.7 2.2 5.8333 2.2 9.4s-.734 6.7167-2.2 9.45c-1.434 2.7-3.45 4.8167-6.05 6.35-2.6 1.5333-5.634 2.3-9.1 2.3zm0-4.75c2.4 0 4.483-.5333 6.25-1.6 1.8-1.0667 3.2-2.6 4.2-4.6 1-2 1.5-4.3833 1.5-7.15s-.5-5.15-1.5-7.15-2.4-3.5333-4.2-4.6c-1.767-1.0667-3.85-1.6-6.25-1.6s-4.5.5333-6.3 1.6c-1.8003 1.0667-3.2003 2.6-4.2003 4.6-.9667 2-1.45 4.3833-1.45 7.15s.4833 5.15 1.45 7.15c1 2 2.4 3.5333 4.2003 4.6 1.8 1.0667 3.9 1.6 6.3 1.6zM129.975 46V25.65h-3.55V21.2h3.55v-3.6c0-2.7.667-4.6333 2-5.8 1.367-1.2 3.283-1.8 5.75-1.8h2.6v4.5h-1.8c-1.167 0-2 .25-2.5.75-.5.4667-.75 1.2667-.75 2.4v3.55h15.7V46h-5.3V25.65h-10.4V46h-5.3zm18.4-28.95c-1 0-1.833-.3-2.5-.9-.633-.6333-.95-1.4333-.95-2.4 0-.9333.317-1.7.95-2.3.667-.6 1.5-.9 2.5-.9s1.817.3 2.45.9c.667.6 1 1.3667 1 2.3 0 .9667-.333 1.7667-1 2.4-.633.6-1.45.9-2.45.9zM156.522 46V21.2h4.7l.45 3.5c.8-1.2667 1.85-2.2667 3.15-3 1.333-.7333 2.867-1.1 4.6-1.1 3.933 0 6.667 1.55 8.2 4.65.9-1.4333 2.1-2.5667 3.6-3.4 1.533-.8333 3.183-1.25 4.95-1.25 3.1 0 5.533.9333 7.3 2.8 1.767 1.8667 2.65 4.65 2.65 8.35V46h-5.3V32.3c0-4.8-1.833-7.2-5.5-7.2-1.867 0-3.4.7-4.6 2.1-1.167 1.4-1.75 3.4-1.75 6V46h-5.3V32.3c0-4.8-1.85-7.2-5.55-7.2-1.833 0-3.35.7-4.55 2.1-1.167 1.4-1.75 3.4-1.75 6V46h-5.3zm52.701.6c-2.1 0-3.834-.35-5.2-1.05-1.367-.7-2.384-1.6167-3.05-2.75-.667-1.1667-1-2.4333-1-3.8 0-2.4.933-4.3 2.8-5.7 1.866-1.4 4.533-2.1 8-2.1h6.5v-.45c0-1.9333-.534-3.3833-1.6-4.35-1.034-.9667-2.384-1.45-4.05-1.45-1.467 0-2.75.3667-3.85 1.1-1.067.7-1.717 1.75-1.95 3.15h-5.3c.166-1.8.766-3.3333 1.8-4.6 1.066-1.3 2.4-2.2833 4-2.95 1.633-.7 3.416-1.05 5.35-1.05 3.466 0 6.15.9167 8.05 2.75 1.9 1.8 2.85 4.2667 2.85 7.4V46h-4.6l-.45-4.25c-.7 1.3667-1.717 2.5167-3.05 3.45-1.334.9333-3.084 1.4-5.25 1.4zm1.05-4.3c1.433 0 2.633-.3333 3.6-1 1-.7 1.766-1.6167 2.3-2.75.566-1.1333.916-2.3833 1.05-3.75h-5.9c-2.1 0-3.6.3667-4.5 1.1-.867.7333-1.3 1.65-1.3 2.75 0 1.1333.416 2.0333 1.25 2.7.866.6333 2.033.95 3.5.95zm26.891 3.7c-2.433 0-4.367-.5833-5.8-1.75-1.433-1.2-2.15-3.3167-2.15-6.35V25.65h-4.25V21.2h4.25l.65-6.3h4.65v6.3h7v4.45h-7V37.9c0 1.3667.283 2.3167.85 2.85.6.5 1.617.75 3.05.75h2.85V46h-4.1zm11.315-29.5c-1 0-1.833-.3-2.5-.9-.633-.6333-.95-1.4167-.95-2.35s.317-1.7.95-2.3c.667-.6333 1.5-.95 2.5-.95s1.817.3167 2.45.95c.667.6 1 1.3667 1 2.3 0 .9333-.333 1.7167-1 2.35-.633.6-1.45.9-2.45.9zm-2.65 29.5V21.2h5.3V46h-5.3zm22.546.6c-2.433 0-4.616-.55-6.55-1.65-1.9-1.1-3.4-2.6167-4.5-4.55-1.066-1.9667-1.6-4.2333-1.6-6.8s.534-4.8167 1.6-6.75c1.1-1.9667 2.6-3.5 4.5-4.6 1.934-1.1 4.117-1.65 6.55-1.65 3.067 0 5.634.8 7.7 2.4 2.1 1.6 3.45 3.7667 4.05 6.5h-5.55c-.333-1.3667-1.066-2.4333-2.2-3.2-1.133-.7667-2.466-1.15-4-1.15-1.3 0-2.5.3333-3.6 1-1.1.6333-1.983 1.5833-2.65 2.85-.666 1.2333-1 2.7667-1 4.6 0 1.8333.334 3.3833 1 4.65.667 1.2333 1.55 2.1833 2.65 2.85 1.1.6667 2.3 1 3.6 1 1.534 0 2.867-.3833 4-1.15 1.134-.7667 1.867-1.85 2.2-3.25h5.55c-.566 2.6667-1.9 4.8167-4 6.45-2.1 1.6333-4.683 2.45-7.75 2.45zm24.398 0c-2.1 0-3.833-.35-5.2-1.05-1.366-.7-2.383-1.6167-3.05-2.75-.666-1.1667-1-2.4333-1-3.8 0-2.4.934-4.3 2.8-5.7 1.867-1.4 4.534-2.1 8-2.1h6.5v-.45c0-1.9333-.533-3.3833-1.6-4.35-1.033-.9667-2.383-1.45-4.05-1.45-1.466 0-2.75.3667-3.85 1.1-1.066.7-1.716 1.75-1.95 3.15h-5.3c.167-1.8.767-3.3333 1.8-4.6 1.067-1.3 2.4-2.2833 4-2.95 1.634-.7 3.417-1.05 5.35-1.05 3.467 0 6.15.9167 8.05 2.75 1.9 1.8 2.85 4.2667 2.85 7.4V46h-4.6l-.45-4.25c-.7 1.3667-1.716 2.5167-3.05 3.45-1.333.9333-3.083 1.4-5.25 1.4zm1.05-4.3c1.434 0 2.634-.3333 3.6-1 1-.7 1.767-1.6167 2.3-2.75.567-1.1333.917-2.3833 1.05-3.75h-5.9c-2.1 0-3.6.3667-4.5 1.1-.866.7333-1.3 1.65-1.3 2.75 0 1.1333.417 2.0333 1.25 2.7.867.6333 2.034.95 3.5.95zm40.228 4.3c-2.334 0-4.45-.4167-6.35-1.25-1.867-.8667-3.367-2.0667-4.5-3.6-1.1-1.5333-1.65-3.3333-1.65-5.4 0-2.1.583-3.9833 1.75-5.65 1.2-1.6667 2.783-2.8 4.75-3.4-1.767-.7-3.134-1.7167-4.1-3.05-.967-1.3667-1.45-2.8667-1.45-4.5 0-1.7.45-3.25 1.35-4.65.9-1.4333 2.2-2.5667 3.9-3.4 1.733-.8667 3.833-1.3 6.3-1.3 2.466 0 4.55.4333 6.25 1.3 1.733.8333 3.05 1.9667 3.95 3.4.9 1.4 1.35 2.95 1.35 4.65 0 1.6-.5 3.1-1.5 4.5-.967 1.3667-2.334 2.3833-4.1 3.05 1.966.6333 3.533 1.7833 4.7 3.45 1.2 1.6333 1.8 3.5 1.8 5.6 0 2.0667-.55 3.8667-1.65 5.4-1.1 1.5333-2.6 2.7333-4.5 3.6-1.867.8333-3.967 1.25-6.3 1.25zm0-21c1.933 0 3.45-.5 4.55-1.5 1.133-1 1.7-2.2833 1.7-3.85 0-1.7667-.55-3.1167-1.65-4.05-1.1-.9333-2.634-1.4-4.6-1.4-1.967 0-3.5.4667-4.6 1.4-1.1.9333-1.65 2.2833-1.65 4.05 0 1.5667.55 2.85 1.65 3.85 1.1 1 2.633 1.5 4.6 1.5zm0 16.5c2.4 0 4.2-.5667 5.4-1.7 1.2-1.1667 1.8-2.65 1.8-4.45 0-2-.65-3.5333-1.95-4.6-1.267-1.1-3.017-1.65-5.25-1.65-2.234 0-4 .55-5.3 1.65-1.3 1.0667-1.95 2.6-1.95 4.6 0 1.8.6 3.2833 1.8 4.45 1.233 1.1333 3.05 1.7 5.45 1.7zm29.756 4.5c-2.467 0-4.6-.4333-6.4-1.3-1.8-.9-3.234-2.1167-4.3-3.65-1.034-1.5667-1.667-3.3333-1.9-5.3h5.2c.333 1.6667 1.166 3.05 2.5 4.15 1.333 1.0667 2.983 1.6 4.95 1.6 1.466 0 2.733-.35 3.8-1.05 1.066-.7333 1.9-1.7 2.5-2.9.6-1.2.9-2.55.9-4.05 0-2.3667-.667-4.25-2-5.65-1.334-1.4333-3.017-2.15-5.05-2.15-1.734 0-3.217.4167-4.45 1.25-1.234.8-2.134 1.8167-2.7 3.05h-5.05l3-19.6h18.9v4.65h-14.9l-1.8 9.35c.766-.8667 1.816-1.5833 3.15-2.15 1.366-.6 2.9-.9 4.6-.9 2.366 0 4.4.55 6.1 1.65 1.7 1.0667 3 2.5167 3.9 4.35.933 1.8333 1.4 3.8667 1.4 6.1 0 2.3333-.5 4.45-1.5 6.35-1 1.9-2.434 3.4167-4.3 4.55-1.834 1.1-4.017 1.65-6.55 1.65zm23.86-18.9c-1.566 0-2.983-.35-4.25-1.05-1.233-.7-2.216-1.6833-2.95-2.95-.733-1.3-1.1-2.85-1.1-4.65 0-1.7667.367-3.2833 1.1-4.55.734-1.3 1.734-2.3 3-3 1.267-.7 2.684-1.05 4.25-1.05 1.534 0 2.917.35 4.15 1.05 1.267.7 2.267 1.7 3 3 .734 1.2667 1.1 2.7833 1.1 4.55 0 1.8-.366 3.35-1.1 4.65-.733 1.2667-1.733 2.25-3 2.95-1.233.7-2.633 1.05-4.2 1.05zm-2.5 18.3l20.05-35h5.2l-20 35h-5.25zm2.5-22.1c1.067 0 1.984-.4 2.75-1.2.8-.8333 1.2-2.05 1.2-3.65s-.383-2.8-1.15-3.6c-.766-.8333-1.7-1.25-2.8-1.25-1.066 0-2 .4167-2.8 1.25-.8.8-1.2 2-1.2 3.6s.384 2.8167 1.15 3.65c.8.8 1.75 1.2 2.85 1.2zm20.55 22.7c-1.566 0-2.983-.35-4.25-1.05-1.233-.7-2.216-1.6833-2.95-2.95-.733-1.3-1.1-2.85-1.1-4.65 0-1.7667.367-3.3 1.1-4.6.734-1.3 1.734-2.3 3-3 1.267-.7 2.684-1.05 4.25-1.05 1.534 0 2.917.35 4.15 1.05 1.267.7 2.267 1.7 3 3 .734 1.3 1.1 2.8333 1.1 4.6 0 1.8-.366 3.35-1.1 4.65-.733 1.2667-1.733 2.25-3 2.95-1.233.7-2.633 1.05-4.2 1.05zm0-3.85c1.067 0 1.984-.4 2.75-1.2.8-.8 1.2-2 1.2-3.6s-.383-2.8-1.15-3.6c-.766-.8333-1.7-1.25-2.8-1.25-1.066 0-2 .4167-2.8 1.25-.8.8-1.2 2-1.2 3.6s.384 2.8 1.15 3.6c.8.8 1.75 1.2 2.85 1.2z" fill="#000"/></svg>