<svg width="456" height="105" viewBox="0 0 456 105" fill="none" xmlns="http://www.w3.org/2000/svg"><path d="M60.8617 46.6c-2.5666 0-4.8166-.45-6.75-1.35-1.9333-.9-3.45-2.1833-4.55-3.85-1.0666-1.6667-1.6166-3.65-1.65-5.95h5.6c.0334 1.8667.6834 3.45 1.95 4.75 1.2667 1.3 3.05 1.95 5.35 1.95 2.0334 0 3.6167-.4833 4.75-1.45 1.1667-1 1.75-2.2667 1.75-3.8 0-1.2333-.2833-2.2333-.85-3-.5333-.7667-1.2833-1.4-2.25-1.9-.9333-.5-2.0166-.95-3.25-1.35-1.2333-.4-2.5333-.8333-3.9-1.3-2.7-.9-4.7333-2.0667-6.1-3.5-1.3333-1.4333-2-3.3167-2-5.65-.0333-1.9667.4167-3.6833 1.35-5.15.9667-1.4667 2.3-2.6 4-3.4 1.7334-.8333 3.75-1.25 6.05-1.25 2.2667 0 4.25.4167 5.95 1.25 1.7334.8333 3.0834 2 4.05 3.5.9667 1.4667 1.4667 3.1833 1.5 5.15h-5.6c0-.9-.2333-1.75-.7-2.55-.4666-.8333-1.15-1.5167-2.05-2.05-.9-.5333-2-.8-3.3-.8-1.6666-.0333-3.05.3833-4.15 1.25-1.0666.8667-1.6 2.0667-1.6 3.6 0 1.3667.4 2.4167 1.2 3.15.8.7333 1.9 1.35 3.3 1.85 1.4.4667 3 1.0167 4.8 1.65 1.7334.5667 3.2834 1.25 4.65 2.05 1.3667.8 2.45 1.85 3.25 3.15.8334 1.3 1.25 2.95 1.25 4.95 0 1.7667-.45 3.4167-1.35 4.95-.9 1.5-2.25 2.7333-4.05 3.7-1.8.9333-4.0166 1.4-6.65 1.4zm27.7446 0c-2.4334 0-4.6-.5333-6.5-1.6-1.8667-1.1-3.3334-2.6167-4.4-4.55-1.0667-1.9333-1.6-4.1833-1.6-6.75 0-2.6.5166-4.8833 1.55-6.85 1.0666-1.9667 2.5333-3.5 4.4-4.6 1.9-1.1 4.1-1.65 6.6-1.65 2.4333 0 4.55.55 6.35 1.65 1.8 1.0667 3.2 2.5 4.2 4.3.9997 1.8 1.4997 3.7833 1.4997 5.95 0 .3333-.016.7-.05 1.1 0 .3667-.016.7833-.05 1.25H81.3063c.1666 2.4.95 4.2333 2.35 5.5 1.4333 1.2333 3.0833 1.85 4.95 1.85 1.5 0 2.75-.3333 3.75-1 1.0333-.7 1.8-1.6333 2.3-2.8h5.3c-.6667 2.3333-2 4.2833-4 5.85-1.9667 1.5667-4.4167 2.35-7.35 2.35zm0-21.65c-1.7667 0-3.3334.5333-4.7 1.6-1.3667 1.0333-2.2 2.6-2.5 4.7h14c-.1-1.9333-.7834-3.4667-2.05-4.6-1.2667-1.1333-2.85-1.7-4.75-1.7zM104.705 46V21.2h4.75l.45 4.7c.867-1.6333 2.067-2.9167 3.6-3.85 1.567-.9667 3.45-1.45 5.65-1.45v5.55h-1.45c-1.466 0-2.783.25-3.95.75-1.133.4667-2.05 1.2833-2.75 2.45-.666 1.1333-1 2.7167-1 4.75V46h-5.3zm24.445 0l-9.3-24.8h5.55l6.9 19.75 6.9-19.75h5.5L135.45 46h-6.3zm21.405-29.5c-1 0-1.833-.3-2.5-.9-.633-.6333-.95-1.4167-.95-2.35s.317-1.7.95-2.3c.667-.6333 1.5-.95 2.5-.95s1.817.3167 2.45.95c.667.6 1 1.3667 1 2.3 0 .9333-.333 1.7167-1 2.35-.633.6-1.45.9-2.45.9zm-2.65 29.5V21.2h5.3V46h-5.3zm22.547.6c-2.434 0-4.617-.55-6.55-1.65-1.9-1.1-3.4-2.6167-4.5-4.55-1.067-1.9667-1.6-4.2333-1.6-6.8s.533-4.8167 1.6-6.75c1.1-1.9667 2.6-3.5 4.5-4.6 1.933-1.1 4.116-1.65 6.55-1.65 3.066 0 5.633.8 7.7 2.4 2.1 1.6 3.45 3.7667 4.05 6.5h-5.55c-.334-1.3667-1.067-2.4333-2.2-3.2-1.134-.7667-2.467-1.15-4-1.15-1.3 0-2.5.3333-3.6 1-1.1.6333-1.984 1.5833-2.65 2.85-.667 1.2333-1 2.7667-1 4.6 0 1.8333.333 3.3833 1 4.65.666 1.2333 1.55 2.1833 2.65 2.85 1.1.6667 2.3 1 3.6 1 1.533 0 2.866-.3833 4-1.15 1.133-.7667 1.866-1.85 2.2-3.25h5.55c-.567 2.6667-1.9 4.8167-4 6.45-2.1 1.6333-4.684 2.45-7.75 2.45zm18.998-30.1c-1 0-1.834-.3-2.5-.9-.634-.6333-.95-1.4167-.95-2.35s.316-1.7.95-2.3c.666-.6333 1.5-.95 2.5-.95s1.816.3167 2.45.95c.666.6 1 1.3667 1 2.3 0 .9333-.334 1.7167-1 2.35-.634.6-1.45.9-2.45.9zM186.8 46V21.2h5.3V46h-5.3zm22.396.6c-2.367 0-4.5-.5333-6.4-1.6-1.867-1.1-3.35-2.6167-4.45-4.55-1.1-1.9667-1.65-4.25-1.65-6.85 0-2.6.55-4.8667 1.65-6.8 1.133-1.9667 2.65-3.4833 4.55-4.55 1.9-1.1 4.017-1.65 6.35-1.65 2.367 0 4.483.55 6.35 1.65 1.9 1.0667 3.4 2.5833 4.5 4.55 1.133 1.9333 1.7 4.2 1.7 6.8 0 2.6-.567 4.8833-1.7 6.85-1.1 1.9333-2.6 3.45-4.5 4.55-1.9 1.0667-4.033 1.6-6.4 1.6zm0-4.55c1.267 0 2.433-.3167 3.5-.95 1.1-.6333 1.983-1.5667 2.65-2.8.667-1.2667 1-2.8333 1-4.7 0-1.8667-.333-3.4167-1-4.65-.633-1.2667-1.5-2.2167-2.6-2.85-1.067-.6333-2.233-.95-3.5-.95s-2.45.3167-3.55.95c-1.067.6333-1.933 1.5833-2.6 2.85-.667 1.2333-1 2.7833-1 4.65 0 1.8667.333 3.4333 1 4.7.667 1.2333 1.533 2.1667 2.6 2.8 1.067.6333 2.233.95 3.5.95zm26.732 4.55c-3.134 0-5.717-.7667-7.75-2.3-2.034-1.5333-3.2-3.5667-3.5-6.1h5.35c.266 1.1333.9 2.1167 1.9 2.95 1 .8 2.316 1.2 3.95 1.2 1.6 0 2.766-.3333 3.5-1 .733-.6667 1.1-1.4333 1.1-2.3 0-1.2667-.517-2.1167-1.55-2.55-1-.4667-2.4-.8833-4.2-1.25-1.4-.3-2.8-.7-4.2-1.2-1.367-.5-2.517-1.2-3.45-2.1-.9-.9333-1.35-2.1833-1.35-3.75 0-2.1667.833-3.9667 2.5-5.4 1.666-1.4667 4-2.2 7-2.2 2.766 0 5 .6667 6.7 2 1.733 1.3333 2.75 3.2167 3.05 5.65h-5.1c-.167-1.0667-.667-1.9-1.5-2.5-.8-.6-1.884-.9-3.25-.9-1.334 0-2.367.2833-3.1.85-.734.5333-1.1 1.2333-1.1 2.1s.5 1.55 1.5 2.05c1.033.5 2.383.95 4.05 1.35 1.666.3667 3.2.8 4.6 1.3 1.433.4667 2.583 1.1667 3.45 2.1.866.9333 1.3 2.3 1.3 4.1.033 2.2667-.85 4.15-2.65 5.65-1.767 1.5-4.184 2.25-7.25 2.25zm36.883 0c-2.433 0-4.6-.5333-6.5-1.6-1.866-1.1-3.333-2.6167-4.4-4.55-1.066-1.9333-1.6-4.1833-1.6-6.75 0-2.6.517-4.8833 1.55-6.85 1.067-1.9667 2.534-3.5 4.4-4.6 1.9-1.1 4.1-1.65 6.6-1.65 2.434 0 4.55.55 6.35 1.65 1.8 1.0667 3.2 2.5 4.2 4.3 1 1.8 1.5 3.7833 1.5 5.95 0 .3333-.016.7-.05 1.1 0 .3667-.016.7833-.05 1.25h-19.3c.167 2.4.95 4.2333 2.35 5.5 1.434 1.2333 3.084 1.85 4.95 1.85 1.5 0 2.75-.3333 3.75-1 1.034-.7 1.8-1.6333 2.3-2.8h5.3c-.666 2.3333-2 4.2833-4 5.85-1.966 1.5667-4.416 2.35-7.35 2.35zm0-21.65c-1.766 0-3.333.5333-4.7 1.6-1.366 1.0333-2.2 2.6-2.5 4.7h14c-.1-1.9333-.783-3.4667-2.05-4.6-1.266-1.1333-2.85-1.7-4.75-1.7zm16.1 21.05V21.2h4.7l.4 4.35c.766-1.5333 1.883-2.7333 3.35-3.6 1.5-.9 3.216-1.35 5.15-1.35 3 0 5.35.9333 7.05 2.8 1.733 1.8667 2.6 4.65 2.6 8.35V46h-5.25V32.3c0-4.8-1.967-7.2-5.9-7.2-1.967 0-3.6.7-4.9 2.1-1.267 1.4-1.9 3.4-1.9 6V46h-5.3zm39.289 0V11h12.05c2.767 0 5.034.4667 6.8 1.4 1.8.9333 3.134 2.2 4 3.8.867 1.5667 1.3 3.3167 1.3 5.25 0 2.1667-.583 4.1333-1.75 5.9-1.133 1.7667-2.916 3.0333-5.35 3.8L352.7 46h-6.15l-6.8-14.1h-6.25V46h-5.3zm5.3-18.1h6.45c2.4 0 4.15-.5833 5.25-1.75 1.134-1.1667 1.7-2.6833 1.7-4.55 0-1.8667-.55-3.35-1.65-4.45-1.1-1.1333-2.883-1.7-5.35-1.7h-6.4V27.9zm33.507 18.7c-2.434 0-4.6-.5333-6.5-1.6-1.867-1.1-3.334-2.6167-4.4-4.55-1.067-1.9333-1.6-4.1833-1.6-6.75 0-2.6.516-4.8833 1.55-6.85 1.066-1.9667 2.533-3.5 4.4-4.6 1.9-1.1 4.1-1.65 6.6-1.65 2.433 0 4.55.55 6.35 1.65 1.8 1.0667 3.2 2.5 4.2 4.3 1 1.8 1.5 3.7833 1.5 5.95 0 .3333-.017.7-.05 1.1 0 .3667-.017.7833-.05 1.25h-19.3c.166 2.4.95 4.2333 2.35 5.5 1.433 1.2333 3.083 1.85 4.95 1.85 1.5 0 2.75-.3333 3.75-1 1.033-.7 1.8-1.6333 2.3-2.8h5.3c-.667 2.3333-2 4.2833-4 5.85-1.967 1.5667-4.417 2.35-7.35 2.35zm0-21.65c-1.767 0-3.334.5333-4.7 1.6-1.367 1.0333-2.2 2.6-2.5 4.7h14c-.1-1.9333-.784-3.4667-2.05-4.6-1.267-1.1333-2.85-1.7-4.75-1.7zm27.399 21.65c-2.4 0-4.517-.5667-6.35-1.7-1.833-1.1333-3.267-2.6833-4.3-4.65-1.033-1.9667-1.55-4.2-1.55-6.7s.517-4.7167 1.55-6.65c1.033-1.9667 2.467-3.5 4.3-4.6 1.867-1.1333 4-1.7 6.4-1.7 1.967 0 3.683.3833 5.15 1.15 1.5.7667 2.667 1.85 3.5 3.25V10h5.3v36h-4.75l-.55-3.85c-.8 1.1667-1.9 2.2-3.3 3.1-1.4.9-3.2 1.35-5.4 1.35zm.95-4.6c2.267 0 4.117-.7833 5.55-2.35 1.467-1.5667 2.2-3.5833 2.2-6.05 0-2.5-.733-4.5167-2.2-6.05-1.433-1.5667-3.283-2.35-5.55-2.35s-4.133.7833-5.6 2.35c-1.467 1.5333-2.2 3.55-2.2 6.05 0 1.6333.333 3.0833 1 4.35.667 1.2667 1.583 2.2667 2.75 3 1.2.7 2.55 1.05 4.05 1.05zm-203.387 62.6c-2.566 0-4.733-.483-6.5-1.45-1.766-.967-3.2-2.25-4.3-3.85-1.066-1.6-1.833-3.4-2.3-5.4-.466-2-.7-4.05-.7-6.15 0-3.8667.534-7.25 1.6-10.15 1.1-2.9 2.667-5.15 4.7-6.75 2.034-1.6333 4.5-2.45 7.4-2.45 2.3 0 4.267.45 5.9 1.35 1.634.9 2.9 2.1 3.8 3.6.934 1.5 1.5 3.1333 1.7 4.9h-4.95c-.3-1.7333-1.016-3.0667-2.15-4-1.133-.9333-2.583-1.4-4.35-1.4-2.433 0-4.45 1.15-6.05 3.45-1.566 2.2667-2.4 5.7667-2.5 10.5.8-1.4667 2.034-2.7167 3.7-3.75 1.7-1.0333 3.65-1.55 5.85-1.55 1.967 0 3.8.4667 5.5 1.4 1.734.9333 3.134 2.25 4.2 3.95 1.1 1.6667 1.65 3.65 1.65 5.95 0 2.0333-.5 3.95-1.5 5.75-1 1.8-2.416 3.267-4.25 4.4-1.8 1.1-3.95 1.65-6.45 1.65zm-.3-4.6c1.4 0 2.65-.3 3.75-.9 1.1-.6 1.967-1.4167 2.6-2.45.634-1.0667.95-2.2667.95-3.6 0-2.1333-.7-3.8333-2.1-5.1-1.366-1.2667-3.116-1.9-5.25-1.9-1.4 0-2.666.3167-3.8.95-1.1.6333-1.966 1.4833-2.6 2.55-.633 1.0333-.95 2.1833-.95 3.45 0 1.3667.317 2.5833.95 3.65.667 1.0333 1.55 1.85 2.65 2.45 1.134.6 2.4.9 3.8.9zm31.542 4.6c-3.167 0-5.9-.75-8.2-2.25-2.267-1.533-4.017-3.65-5.25-6.35-1.2-2.7333-1.8-5.9-1.8-9.5 0-3.6.6-6.75 1.8-9.45 1.233-2.7333 2.983-4.85 5.25-6.35 2.3-1.5333 5.033-2.3 8.2-2.3 3.167 0 5.883.7667 8.15 2.3 2.267 1.5 4 3.6167 5.2 6.35 1.233 2.7 1.85 5.85 1.85 9.45 0 3.6-.617 6.7667-1.85 9.5-1.2 2.7-2.933 4.817-5.2 6.35-2.267 1.5-4.983 2.25-8.15 2.25zm0-4.75c1.9 0 3.583-.5333 5.05-1.6 1.5-1.0667 2.667-2.6 3.5-4.6.833-2 1.25-4.3833 1.25-7.15s-.417-5.15-1.25-7.15-2-3.5333-3.5-4.6c-1.467-1.0667-3.15-1.6-5.05-1.6-1.933 0-3.633.5333-5.1 1.6-1.467 1.0667-2.617 2.6-3.45 4.6-.833 2-1.25 4.3833-1.25 7.15s.417 5.15 1.25 7.15 1.983 3.5333 3.45 4.6c1.467 1.0667 3.167 1.6 5.1 1.6zm26.358-14.15c-1.567 0-2.984-.35-4.25-1.05-1.234-.7-2.217-1.6833-2.95-2.95-.734-1.3-1.1-2.85-1.1-4.65 0-1.7667.366-3.2833 1.1-4.55.733-1.3 1.733-2.3 3-3 1.266-.7 2.683-1.05 4.25-1.05 1.533 0 2.916.35 4.15 1.05 1.266.7 2.266 1.7 3 3 .733 1.2667 1.1 2.7833 1.1 4.55 0 1.8-.367 3.35-1.1 4.65-.734 1.2667-1.734 2.25-3 2.95-1.234.7-2.634 1.05-4.2 1.05zm-2.5 18.3l20.05-35h5.2l-20 35h-5.25zm2.5-22.1c1.066 0 1.983-.4 2.75-1.2.8-.8333 1.2-2.05 1.2-3.65s-.384-2.8-1.15-3.6c-.767-.8333-1.7-1.25-2.8-1.25-1.067 0-2 .4167-2.8 1.25-.8.8-1.2 2-1.2 3.6s.383 2.8167 1.15 3.65c.8.8 1.75 1.2 2.85 1.2zm20.55 22.7c-1.567 0-2.984-.35-4.25-1.05-1.234-.7-2.217-1.683-2.95-2.95-.734-1.3-1.1-2.85-1.1-4.65 0-1.7667.366-3.3 1.1-4.6.733-1.3 1.733-2.3 3-3 1.266-.7 2.683-1.05 4.25-1.05 1.533 0 2.916.35 4.15 1.05 1.266.7 2.266 1.7 3 3 .733 1.3 1.1 2.8333 1.1 4.6 0 1.8-.367 3.35-1.1 4.65-.734 1.267-1.734 2.25-3 2.95-1.234.7-2.634 1.05-4.2 1.05zm0-3.85c1.066 0 1.983-.4 2.75-1.2.8-.8 1.2-2 1.2-3.6s-.384-2.8-1.15-3.6c-.767-.8333-1.7-1.25-2.8-1.25-1.067 0-2 .4167-2.8 1.25-.8.8-1.2 2-1.2 3.6s.383 2.8 1.15 3.6c.8.8 1.75 1.2 2.85 1.2z" fill="#000"/></svg>