<svg width="436" height="54" viewBox="0 0 436 54" fill="none" xmlns="http://www.w3.org/2000/svg"><path d="M8.74432 8.18182h1.53408c-.0703-1.97514-1.89204-3.45171-4.42329-3.45171-2.50568 0-4.47443 1.45739-4.47443 3.65625 0 1.76424 1.27841 2.81254 3.32387 3.40054l1.61079.4603c1.38068.3835 2.60796.8693 2.60796 2.1733 0 1.4318-1.38069 2.3778-3.19603 2.3778-1.55966 0-2.94034-.6903-3.06818-2.1733H1.02273c.15341 2.1477 1.89204 3.6051 4.70454 3.6051 3.01705 0 4.73013-1.6619 4.73013-3.7841 0-2.4545-2.32672-3.2471-3.68183-3.6051l-1.32955-.3579c-.97159-.2557-2.53125-.76709-2.53125-2.17334 0-1.25284 1.15057-2.1733 2.88921-2.1733 1.58522 0 2.78693.75426 2.94034 2.04546zM12.3192 18h1.5085V8.18182h-1.5085V18zm.767-11.45455c.5881 0 1.0739-.46022 1.0739-1.02272S13.6743 4.5 13.0862 4.5c-.588 0-1.0738.46023-1.0738 1.02273s.4858 1.02272 1.0738 1.02272zm9.919 3.83525c-.473-1.39348-1.5341-2.32672-3.4772-2.32672-2.0711 0-3.6052 1.17613-3.6052 2.83802 0 1.3552.8054 2.2628 2.608 2.6847l1.6364.3835c.9907.2301 1.4573.7032 1.4573 1.3807 0 .8438-.8948 1.5341-2.3011 1.5341-1.2337 0-2.0071-.5305-2.2756-1.5852l-1.4318.3579c.3516 1.6684 1.7259 2.5568 3.733 2.5568 2.2819 0 3.8352-1.2464 3.8352-2.9403 0-1.3679-.8565-2.2308-2.6079-2.6591l-1.4574-.3579c-1.1634-.2877-1.6875-.6776-1.6875-1.4319 0-.84371.8949-1.45735 2.0966-1.45735 1.3167 0 1.86.72865 2.1221 1.40625l1.3551-.3835zm6.1797-2.19888h-2.0966V5.82955h-1.5085v2.35227h-1.483v1.27841h1.483v6.13637c0 1.7131 1.3806 2.5312 2.659 2.5312.5625 0 .9205-.1022 1.125-.1789l-.3068-1.3551c-.1278.0255-.3324.0767-.6647.0767-.6648 0-1.304-.2046-1.304-1.483V9.46023h2.0966V8.18182zm5.7402 10.02268c1.9943 0 3.4517-.9971 3.9119-2.4801l-1.4574-.4091c-.3835 1.0228-1.272 1.5341-2.4545 1.5341-1.7706 0-2.9915-1.1441-3.0618-3.2471h7.1271v-.6392c0-3.65628-2.1733-4.90912-4.2188-4.90912-2.6591 0-4.4233 2.09662-4.4233 5.11362 0 3.0171 1.7387 5.0369 4.5768 5.0369zm-3.0618-5.9062c.1022-1.5277 1.1825-2.88921 2.9083-2.88921 1.6364 0 2.6847 1.22731 2.6847 2.88921h-5.593zM40.7451 18h1.5086v-6.1364c0-1.4382 1.0483-2.45451 2.2244-2.45451 1.1442 0 1.9432.74791 1.9432 1.86651V18h1.5341v-6.392c0-1.2657.7926-2.19891 2.1733-2.19891 1.0738 0 1.9943.56889 1.9943 2.01991V18h1.5085v-6.571c0-2.30755-1.2401-3.37502-2.9915-3.37502-1.4062 0-2.4353.64559-2.9403 1.66193h-.1023c-.4858-1.0483-1.3423-1.66193-2.6335-1.66193-1.2784 0-2.2244.61363-2.6335 1.66193h-.1279V8.18182h-1.4574V18zm17.9938.2301c1.713 0 2.6079-.9204 2.9147-1.5596h.0767V18h1.5086v-6.4688c0-3.11927-2.3779-3.47722-3.6307-3.47722-1.483 0-3.1705.51136-3.9375 2.30112l1.4318.5114c.3324-.7159 1.1186-1.48298 2.5568-1.48298 1.3871 0 2.071.73508 2.071 1.99428v.0512c0 .7287-.7414.6648-2.5312.8949-1.8217.2365-3.8097.6392-3.8097 2.8892 0 1.9176 1.483 3.017 3.3495 3.017zm.2301-1.3551c-1.2017 0-2.071-.5369-2.071-1.5852 0-1.1506 1.0483-1.5086 2.2244-1.662.6392-.0767 2.3523-.2556 2.6079-.5625v1.3807c0 1.2273-.9715 2.429-2.7613 2.429zm13.4378-6.4943c-.473-1.39348-1.5341-2.32672-3.4773-2.32672-2.071 0-3.6051 1.17613-3.6051 2.83802 0 1.3552.8054 2.2628 2.608 2.6847l1.6363.3835c.9908.2301 1.4574.7032 1.4574 1.3807 0 .8438-.8949 1.5341-2.3011 1.5341-1.2337 0-2.0071-.5305-2.2756-1.5852l-1.4318.3579c.3515 1.6684 1.7258 2.5568 3.7329 2.5568 2.282 0 3.8353-1.2464 3.8353-2.9403 0-1.3679-.8566-2.2308-2.608-2.6591l-1.4574-.3579c-1.1633-.2877-1.6875-.6776-1.6875-1.4319 0-.84371.8949-1.45735 2.0966-1.45735 1.3168 0 1.8601.72865 2.1222 1.40625l1.3551-.3835zM78.839 18h1.5086v-6.1364c0-1.4382 1.0483-2.45451 2.2244-2.45451 1.1442 0 1.9432.74791 1.9432 1.86651V18h1.5341v-6.392c0-1.2657.7926-2.19891 2.1733-2.19891 1.0738 0 1.9943.56889 1.9943 2.01991V18h1.5085v-6.571c0-2.30755-1.2401-3.37502-2.9915-3.37502-1.4062 0-2.4353.64559-2.9403 1.66193h-.1023c-.4858-1.0483-1.3423-1.66193-2.6335-1.66193-1.2784 0-2.2244.61363-2.6335 1.66193h-.1279V8.18182H78.839V18zm15.1046 0h1.5085V8.18182h-1.5085V18zm.767-11.45455c.5881 0 1.0739-.46022 1.0739-1.02272S95.2987 4.5 94.7106 4.5c-.5881 0-1.0738.46023-1.0738 1.02273s.4857 1.02272 1.0738 1.02272zm6.9534 11.65905c2.173 0 3.605-1.3295 3.86-3.0681h-1.508c-.281 1.0738-1.176 1.713-2.352 1.713-1.7901 0-2.9407-1.4829-2.9407-3.7585 0-2.2244 1.1762-3.68181 2.9407-3.68181 1.329 0 2.122.81821 2.352 1.71311h1.508c-.255-1.84095-1.815-3.06822-3.886-3.06822-2.659 0-4.4232 2.09662-4.4232 5.08802 0 2.9404 1.6875 5.0625 4.4492 5.0625zM107.19 18h1.508v-6.2131c0-1.3295 1.049-2.3011 2.48-2.3011.403 0 .819.0767.921.10227V8.05398c-.173-.01279-.569-.02557-.793-.02557-1.176 0-2.199.66477-2.557 1.63636h-.102V8.18182h-1.457V18zm9.847.2045c2.659 0 4.449-2.0198 4.449-5.0625 0-3.0681-1.79-5.08802-4.449-5.08802s-4.449 2.01992-4.449 5.08802c0 3.0427 1.79 5.0625 4.449 5.0625zm0-1.3551c-2.02 0-2.941-1.7386-2.941-3.7074 0-1.9687.921-3.73291 2.941-3.73291 2.02 0 2.94 1.76421 2.94 3.73291 0 1.9688-.92 3.7074-2.94 3.7074zM123.248 18h1.509V8.18182h-1.509V18zm.767-11.45455c.589 0 1.074-.46022 1.074-1.02272S124.604 4.5 124.015 4.5c-.588 0-1.073.46023-1.073 1.02273s.485 1.02272 1.073 1.02272zm4.473 5.54835c0-1.7131 1.062-2.68471 2.506-2.68471 1.4 0 2.25.91411 2.25 2.45451V18h1.509v-6.2386c0-2.50572-1.336-3.70742-3.324-3.70742-1.483 0-2.404.66477-2.864 1.66193h-.128V8.18182h-1.457V18h1.508v-5.9062zm12.853-3.91198h-2.199v-.99716c0-.97159.41-1.48296 1.407-1.48296.434 0 .69.10228.843.15341l.435-1.30397c-.23-.10228-.69-.25569-1.432-.25569-1.406 0-2.761.84375-2.761 2.53125v1.35512h-1.585v1.27841h1.585V18h1.508V9.46023h2.199V8.18182zM146.5 18.2045c2.659 0 4.449-2.0198 4.449-5.0625 0-3.0681-1.79-5.08802-4.449-5.08802s-4.449 2.01992-4.449 5.08802c0 3.0427 1.79 5.0625 4.449 5.0625zm0-1.3551c-2.02 0-2.94-1.7386-2.94-3.7074 0-1.9687.92-3.73291 2.94-3.73291s2.94 1.76421 2.94 3.73291c0 1.9688-.92 3.7074-2.94 3.7074zM152.711 18h1.509v-6.2131c0-1.3295 1.048-2.3011 2.48-2.3011.403 0 .818.0767.921.10227V8.05398c-.173-.01279-.569-.02557-.793-.02557-1.176 0-2.199.66477-2.557 1.63636h-.102V8.18182h-1.458V18zm6.158 0h1.508v-6.1364c0-1.4382 1.049-2.45451 2.225-2.45451 1.144 0 1.943.74791 1.943 1.86651V18h1.534v-6.392c0-1.2657.793-2.19891 2.173-2.19891 1.074 0 1.995.56889 1.995 2.01991V18h1.508v-6.571c0-2.30755-1.24-3.37502-2.991-3.37502-1.407 0-2.436.64559-2.941 1.66193h-.102c-.486-1.0483-1.342-1.66193-2.634-1.66193-1.278 0-2.224.61363-2.633 1.66193h-.128V8.18182h-1.457V18zm17.993.2301c1.714 0 2.608-.9204 2.915-1.5596h.077V18h1.508v-6.4688c0-3.11927-2.377-3.47722-3.63-3.47722-1.483 0-3.171.51136-3.938 2.30112l1.432.5114c.332-.7159 1.119-1.48298 2.557-1.48298 1.387 0 2.071.73508 2.071 1.99428v.0512c0 .7287-.742.6648-2.531.8949-1.822.2365-3.81.6392-3.81 2.8892 0 1.9176 1.483 3.017 3.349 3.017zm.231-1.3551c-1.202 0-2.071-.5369-2.071-1.5852 0-1.1506 1.048-1.5086 2.224-1.662.639-.0767 2.352-.2556 2.608-.5625v1.3807c0 1.2273-.972 2.429-2.761 2.429zm10.753-8.69318h-2.097V5.82955h-1.508v2.35227h-1.483v1.27841h1.483v6.13637c0 1.7131 1.38 2.5312 2.659 2.5312.562 0 .92-.1022 1.125-.1789l-.307-1.3551c-.128.0255-.332.0767-.665.0767-.665 0-1.304-.2046-1.304-1.483V9.46023h2.097V8.18182zM189.575 18h1.508V8.18182h-1.508V18zm.767-11.45455c.588 0 1.074-.46022 1.074-1.02272S190.93 4.5 190.342 4.5c-.588 0-1.074.46023-1.074 1.02273s.486 1.02272 1.074 1.02272zm6.953 11.65905c2.173 0 3.605-1.3295 3.861-3.0681h-1.509c-.281 1.0738-1.176 1.713-2.352 1.713-1.79 0-2.94-1.4829-2.94-3.7585 0-2.2244 1.176-3.68181 2.94-3.68181 1.33 0 2.122.81821 2.352 1.71311h1.509c-.256-1.84095-1.816-3.06822-3.887-3.06822-2.659 0-4.423 2.09662-4.423 5.08802 0 2.9404 1.688 5.0625 4.449 5.0625zm9.515 0c2.659 0 4.449-2.0198 4.449-5.0625 0-3.0681-1.79-5.08802-4.449-5.08802s-4.449 2.01992-4.449 5.08802c0 3.0427 1.79 5.0625 4.449 5.0625zm0-1.3551c-2.02 0-2.941-1.7386-2.941-3.7074 0-1.9687.921-3.73291 2.941-3.73291 2.02 0 2.94 1.76421 2.94 3.73291 0 1.9688-.92 3.7074-2.94 3.7074zm13.166-6.4687c-.473-1.39348-1.534-2.32672-3.477-2.32672-2.071 0-3.606 1.17613-3.606 2.83802 0 1.3552.806 2.2628 2.608 2.6847l1.637.3835c.991.2301 1.457.7032 1.457 1.3807 0 .8438-.895 1.5341-2.301 1.5341-1.234 0-2.007-.5305-2.276-1.5852l-1.431.3579c.351 1.6684 1.725 2.5568 3.733 2.5568 2.282 0 3.835-1.2464 3.835-2.9403 0-1.3679-.857-2.2308-2.608-2.6591l-1.458-.3579c-1.163-.2877-1.687-.6776-1.687-1.4319 0-.84371.895-1.45735 2.097-1.45735 1.316 0 1.86.72865 2.122 1.40625l1.355-.3835zm7.404 11.3011c1.361 0 2.32-.7223 2.889-2.25l4.18-11.22441-1.649-.02557-2.71 7.82388h-.102l-2.711-7.82388h-1.636l3.631 9.86928-.282.7671c-.549 1.4957-1.227 1.6363-2.326 1.3551l-.384 1.3295c.154.0767.588.179 1.1.179zM240.428 18h1.508v-6.2131c0-1.3295 1.049-2.3011 2.48-2.3011.403 0 .819.0767.921.10227V8.05398c-.173-.01279-.569-.02557-.793-.02557-1.176 0-2.199.66477-2.557 1.63636h-.102V8.18182h-1.457V18zm9.975.2045c1.994 0 3.451-.9971 3.912-2.4801l-1.458-.4091c-.383 1.0228-1.272 1.5341-2.454 1.5341-1.771 0-2.992-1.1441-3.062-3.2471h7.127v-.6392c0-3.65628-2.173-4.90912-4.219-4.90912-2.659 0-4.423 2.09662-4.423 5.11362 0 3.0171 1.739 5.0369 4.577 5.0369zm-3.062-5.9062c.102-1.5277 1.182-2.88921 2.908-2.88921 1.637 0 2.685 1.22731 2.685 2.88921h-5.593zm12.589 5.9062c1.892 0 2.531-1.1761 2.864-1.713h.179V18h1.457V4.90909h-1.508v4.83239h-.128c-.333-.51137-.921-1.6875-2.838-1.6875-2.48 0-4.194 1.96872-4.194 5.06252 0 3.1193 1.714 5.088 4.168 5.088zm.205-1.3551c-1.892 0-2.864-1.6619-2.864-3.7585 0-2.071.946-3.68181 2.864-3.68181 1.841 0 2.812 1.48291 2.812 3.68181 0 2.2244-.997 3.7585-2.812 3.7585zm10.844 1.3551c1.994 0 3.452-.9971 3.912-2.4801l-1.458-.4091c-.383 1.0228-1.272 1.5341-2.454 1.5341-1.771 0-2.992-1.1441-3.062-3.2471h7.127v-.6392c0-3.65628-2.173-4.90912-4.219-4.90912-2.659 0-4.423 2.09662-4.423 5.11362 0 3.0171 1.739 5.0369 4.577 5.0369zm-3.062-5.9062c.102-1.5277 1.183-2.88921 2.908-2.88921 1.637 0 2.685 1.22731 2.685 2.88921h-5.593zm15.837-1.9176c-.474-1.39348-1.535-2.32672-3.478-2.32672-2.071 0-3.605 1.17613-3.605 2.83802 0 1.3552.806 2.2628 2.608 2.6847l1.636.3835c.991.2301 1.458.7032 1.458 1.3807 0 .8438-.895 1.5341-2.301 1.5341-1.234 0-2.007-.5305-2.276-1.5852l-1.432.3579c.352 1.6684 1.726 2.5568 3.733 2.5568 2.282 0 3.835-1.2464 3.835-2.9403 0-1.3679-.856-2.2308-2.607-2.6591l-1.458-.3579c-1.163-.2877-1.687-.6776-1.687-1.4319 0-.84371.895-1.45735 2.096-1.45735 1.317 0 1.86.72865 2.122 1.40625l1.356-.3835z" fill="#181717"/></svg>