<svg width="224" height="54" viewBox="0 0 224 54" fill="none" xmlns="http://www.w3.org/2000/svg"><path d="M61.251 25.36c-1.54 0-2.89-.27-4.05-.81-1.16-.54-2.07-1.31-2.73-2.31-.64-1-.97-2.19-.99-3.57h3.36c.02 1.12.41 2.07 1.17 2.85.76.78 1.83 1.17 3.21 1.17 1.22 0 2.17-.29 2.85-.87.7-.6 1.05-1.36 1.05-2.28 0-.74-.17-1.34-.51-1.8-.32-.46-.77-.84-1.35-1.14-.56-.3-1.21-.57-1.95-.81-.74-.24-1.52-.5-2.34-.78-1.62-.54-2.84-1.24-3.66-2.1-.8-.86-1.2-1.99-1.2-3.39-.02-1.18.25-2.21.81-3.09.58-.88 1.38-1.56 2.4-2.04 1.04-.5 2.25-.75 3.63-.75 1.36 0 2.55.25 3.57.75 1.04.5 1.85 1.2 2.43 2.1.58.88.88 1.91.9 3.09h-3.36c0-.54-.14-1.05-.42-1.53-.28-.5-.69-.91-1.23-1.23-.54-.32-1.2-.48-1.98-.48-1-.02-1.83.23-2.49.75-.64.52-.96 1.24-.96 2.16 0 .82.24 1.45.72 1.89.48.44 1.14.81 1.98 1.11.84.28 1.8.61 2.88.99 1.04.34 1.97.75 2.79 1.23.82.48 1.47 1.11 1.95 1.89.5.78.75 1.77.75 2.97 0 1.06-.27 2.05-.81 2.97-.54.9-1.35 1.64-2.43 2.22-1.08.56-2.41.84-3.99.84zm16.6467 0c-1.42 0-2.7-.32-3.84-.96-1.12-.66-2.01-1.57-2.67-2.73-.66-1.18-.99-2.55-.99-4.11 0-1.56.33-2.92.99-4.08.68-1.18 1.59-2.09 2.73-2.73 1.14-.66 2.41-.99 3.81-.99 1.42 0 2.69.33 3.81.99 1.14.64 2.04 1.55 2.7 2.73.68 1.16 1.02 2.52 1.02 4.08s-.34 2.93-1.02 4.11c-.66 1.16-1.56 2.07-2.7 2.73-1.14.64-2.42.96-3.84.96zm0-2.73c.76 0 1.46-.19 2.1-.57.66-.38 1.19-.94 1.59-1.68.4-.76.6-1.7.6-2.82 0-1.12-.2-2.05-.6-2.79-.38-.76-.9-1.33-1.56-1.71-.64-.38-1.34-.57-2.1-.57s-1.47.19-2.13.57c-.64.38-1.16.95-1.56 1.71-.4.74-.6 1.67-.6 2.79s.2 2.06.6 2.82c.4.74.92 1.3 1.56 1.68.64.38 1.34.57 2.1.57zm18.469 2.73c-1.16 0-2.19-.23-3.09-.69-.88-.46-1.58-1.11-2.1-1.95l-.33 2.28h-2.85V3.4h3.18v9.03c.48-.7 1.14-1.32 1.98-1.86.84-.54 1.92-.81 3.24-.81 1.44 0 2.71.34 3.8103 1.02 1.1.68 1.96 1.61 2.58 2.79.64 1.18.96 2.52.96 4.02 0 1.5-.32 2.84-.96 4.02-.62 1.16-1.48 2.08-2.58 2.76-1.1003.66-2.3803.99-3.8403.99zm-.54-2.76c1.36 0 2.48-.46 3.36-1.38.8803-.94 1.3203-2.16 1.3203-3.66 0-.98-.2-1.85-.6003-2.61-.4-.76-.95-1.35-1.65-1.77-.7-.44-1.51-.66-2.43-.66-1.36 0-2.48.47-3.36 1.41-.86.94-1.29 2.15-1.29 3.63 0 1.5.43 2.72 1.29 3.66.88.92 2 1.38 3.36 1.38zM106.286 25V10.12h2.85l.27 2.82c.52-.98 1.24-1.75 2.16-2.31.94-.58 2.07-.87 3.39-.87v3.33h-.87c-.88 0-1.67.15-2.37.45-.68.28-1.23.77-1.65 1.47-.4.68-.6 1.63-.6 2.85V25h-3.18zm17.047.36c-1.46 0-2.76-.32-3.9-.96-1.12-.66-2-1.57-2.64-2.73-.64-1.16-.96-2.51-.96-4.05 0-1.56.31-2.93.93-4.11.64-1.18 1.52-2.1 2.64-2.76 1.14-.66 2.46-.99 3.96-.99 1.46 0 2.73.33 3.81.99 1.08.64 1.92 1.5 2.52 2.58.6 1.08.9 2.27.9 3.57 0 .2-.01.42-.03.66 0 .22-.01.47-.03.75h-11.58c.1 1.44.57 2.54 1.41 3.3.86.74 1.85 1.11 2.97 1.11.9 0 1.65-.2 2.25-.6.62-.42 1.08-.98 1.38-1.68h3.18c-.4 1.4-1.2 2.57-2.4 3.51-1.18.94-2.65 1.41-4.41 1.41zm0-12.99c-1.06 0-2 .32-2.82.96-.82.62-1.32 1.56-1.5 2.82h8.4c-.06-1.16-.47-2.08-1.23-2.76-.76-.68-1.71-1.02-2.85-1.02zM139.651 25V10.12h2.82l.27 2.1c.48-.76 1.11-1.36 1.89-1.8.8-.44 1.72-.66 2.76-.66 2.36 0 4 .93 4.92 2.79.54-.86 1.26-1.54 2.16-2.04.92-.5 1.91-.75 2.97-.75 1.86 0 3.32.56 4.38 1.68 1.06 1.12 1.59 2.79 1.59 5.01V25h-3.18v-8.22c0-2.88-1.1-4.32-3.3-4.32-1.12 0-2.04.42-2.76 1.26-.7.84-1.05 2.04-1.05 3.6V25h-3.18v-8.22c0-2.88-1.11-4.32-3.33-4.32-1.1 0-2.01.42-2.73 1.26-.7.84-1.05 2.04-1.05 3.6V25h-3.18zm28.38-17.7c-.6 0-1.1-.18-1.5-.54-.38-.38-.57-.85-.57-1.41 0-.56.19-1.02.57-1.38.4-.38.9-.57 1.5-.57s1.09.19 1.47.57c.4.36.6.82.6 1.38 0 .56-.2 1.03-.6 1.41-.38.36-.87.54-1.47.54zm-1.59 17.7V10.12h3.18V25h-3.18z" fill="#000"/></svg>