<svg width="1440" height="213" viewBox="0 0 1440 213" fill="none" xmlns="http://www.w3.org/2000/svg"><path d="M611.735 134.768c-3.285 0-6.165-.576-8.64-1.728-2.474-1.152-4.416-2.795-5.824-4.928-1.365-2.133-2.069-4.672-2.112-7.616h7.168c.043 2.389.875 4.416 2.496 6.08 1.622 1.664 3.904 2.496 6.848 2.496 2.603 0 4.63-.619 6.08-1.856 1.494-1.28 2.24-2.901 2.24-4.864 0-1.579-.362-2.859-1.088-3.84-.682-.981-1.642-1.792-2.88-2.432-1.194-.64-2.581-1.216-4.16-1.728-1.578-.512-3.242-1.067-4.992-1.664-3.456-1.152-6.058-2.645-7.808-4.48-1.706-1.835-2.56-4.245-2.56-7.232-.042-2.5173.534-4.7147 1.728-6.592 1.238-1.8773 2.944-3.328 5.12-4.352 2.219-1.0667 4.8-1.6 7.744-1.6 2.902 0 5.44.5333 7.616 1.6 2.219 1.0667 3.947 2.56 5.184 4.48 1.238 1.8773 1.878 4.0747 1.92 6.592h-7.168c0-1.152-.298-2.24-.896-3.264-.597-1.0667-1.472-1.9413-2.624-2.624-1.152-.6827-2.56-1.024-4.224-1.024-2.133-.0427-3.904.4907-5.312 1.6-1.365 1.1093-2.048 2.6453-2.048 4.608 0 1.749.512 3.093 1.536 4.032 1.024.939 2.432 1.728 4.224 2.368 1.792.597 3.84 1.301 6.144 2.112 2.219.725 4.203 1.6 5.952 2.624 1.75 1.024 3.136 2.368 4.16 4.032 1.067 1.664 1.6 3.776 1.6 6.336 0 2.261-.576 4.373-1.728 6.336-1.152 1.92-2.88 3.499-5.184 4.736-2.304 1.195-5.141 1.792-8.512 1.792zm35.513 0c-3.029 0-5.76-.683-8.192-2.048-2.389-1.408-4.288-3.349-5.696-5.824-1.408-2.517-2.112-5.44-2.112-8.768 0-3.328.704-6.229 2.112-8.704 1.451-2.517 3.392-4.459 5.824-5.824 2.432-1.408 5.142-2.112 8.128-2.112 3.03 0 5.739.704 8.128 2.112 2.432 1.365 4.352 3.307 5.76 5.824 1.451 2.475 2.176 5.376 2.176 8.704 0 3.328-.725 6.251-2.176 8.768-1.408 2.475-3.328 4.416-5.76 5.824-2.432 1.365-5.162 2.048-8.192 2.048zm0-5.824c1.622 0 3.115-.405 4.48-1.216 1.408-.811 2.539-2.005 3.392-3.584.854-1.621 1.28-3.627 1.28-6.016 0-2.389-.426-4.373-1.28-5.952-.81-1.621-1.92-2.837-3.328-3.648-1.365-.811-2.858-1.216-4.48-1.216-1.621 0-3.136.405-4.544 1.216-1.365.811-2.474 2.027-3.328 3.648-.853 1.579-1.28 3.563-1.28 5.952s.427 4.395 1.28 6.016c.854 1.579 1.963 2.773 3.328 3.584 1.366.811 2.859 1.216 4.48 1.216zm39.401 5.824c-2.475 0-4.672-.491-6.592-1.472-1.877-.981-3.371-2.368-4.48-4.16l-.704 4.864h-6.08V87.92h6.784v19.264c1.024-1.493 2.432-2.816 4.224-3.968 1.792-1.152 4.096-1.728 6.912-1.728 3.072 0 5.781.725 8.128 2.176 2.347 1.451 4.181 3.435 5.504 5.952 1.365 2.517 2.048 5.376 2.048 8.576s-.683 6.059-2.048 8.576c-1.323 2.475-3.157 4.437-5.504 5.888-2.347 1.408-5.077 2.112-8.192 2.112zm-1.152-5.888c2.901 0 5.291-.981 7.168-2.944 1.877-2.005 2.816-4.608 2.816-7.808 0-2.091-.427-3.947-1.28-5.568-.853-1.621-2.027-2.88-3.52-3.776-1.493-.939-3.221-1.408-5.184-1.408-2.901 0-5.291 1.003-7.168 3.008-1.835 2.005-2.752 4.587-2.752 7.744 0 3.2.917 5.803 2.752 7.808 1.877 1.963 4.267 2.944 7.168 2.944zM707.81 134v-31.744h6.08l.576 6.016c1.11-2.091 2.646-3.733 4.608-4.928 2.006-1.237 4.416-1.856 7.232-1.856v7.104h-1.856c-1.877 0-3.562.32-5.056.96-1.45.597-2.624 1.643-3.52 3.136-.853 1.451-1.28 3.477-1.28 6.08V134h-6.784zm36.366.768c-3.115 0-5.888-.683-8.32-2.048-2.389-1.408-4.267-3.349-5.632-5.824-1.365-2.475-2.048-5.355-2.048-8.64 0-3.328.661-6.251 1.984-8.768 1.365-2.517 3.243-4.48 5.632-5.888 2.432-1.408 5.248-2.112 8.448-2.112 3.115 0 5.824.704 8.128 2.112 2.304 1.365 4.096 3.2 5.376 5.504 1.28 2.304 1.92 4.843 1.92 7.616 0 .427-.021.896-.064 1.408 0 .469-.021 1.003-.064 1.6h-24.704c.213 3.072 1.216 5.419 3.008 7.04 1.835 1.579 3.947 2.368 6.336 2.368 1.92 0 3.52-.427 4.8-1.28 1.323-.896 2.304-2.091 2.944-3.584h6.784c-.853 2.987-2.56 5.483-5.12 7.488-2.517 2.005-5.653 3.008-9.408 3.008zm0-27.712c-2.261 0-4.267.683-6.016 2.048-1.749 1.323-2.816 3.328-3.2 6.016h17.92c-.128-2.475-1.003-4.437-2.624-5.888-1.621-1.451-3.648-2.176-6.08-2.176zM778.988 134v-31.744h6.016l.576 4.48c1.024-1.621 2.368-2.901 4.032-3.84 1.707-.939 3.669-1.408 5.888-1.408 5.035 0 8.533 1.984 10.496 5.952 1.152-1.835 2.688-3.285 4.608-4.352 1.963-1.067 4.075-1.6 6.336-1.6 3.968 0 7.083 1.195 9.344 3.584 2.261 2.389 3.392 5.952 3.392 10.688V134h-6.784v-17.536c0-6.144-2.347-9.216-7.04-9.216-2.389 0-4.352.896-5.888 2.688-1.493 1.792-2.24 4.352-2.24 7.68V134h-6.784v-17.536c0-6.144-2.368-9.216-7.104-9.216-2.347 0-4.288.896-5.824 2.688-1.493 1.792-2.24 4.352-2.24 7.68V134h-6.784zm60.545-37.76c-1.28 0-2.347-.384-3.2-1.152-.811-.8107-1.216-1.8133-1.216-3.008s.405-2.176 1.216-2.944c.853-.8107 1.92-1.216 3.2-1.216 1.28 0 2.325.4053 3.136 1.216.853.768 1.28 1.7493 1.28 2.944 0 1.1947-.427 2.1973-1.28 3.008-.811.768-1.856 1.152-3.136 1.152zM836.141 134v-31.744h6.784V134h-6.784z" fill="#000"/><path d="M603.095 133.04l.423-.907-.423.907zm-5.824-4.928l-.842.539.008.012.834-.551zm-2.112-7.616v-1h-1.014l.015 1.014.999-.014zm7.168 0l1-.018-.017-.982h-.983v1zm2.496 6.08l-.716.698.716-.698zm12.928.64l.649.761.002-.002-.651-.759zm1.152-8.704l-.82.571.008.012.008.011.804-.594zm-2.88-2.432l-.472.881.007.004.006.003.459-.888zm-9.152-3.392l.324-.946-.007-.003-.317.949zm-7.808-4.48l-.732.681.009.009.723-.69zm-2.56-7.232h1v-.017l-1 .017zm1.728-6.592l-.835-.5503-.004.0067-.004.0067.843.5369zm5.12-4.352l.426.9048.008-.0035-.434-.9013zm15.36 0l-.44.8979.007.0034.433-.9013zm5.184 4.48l-.84.5417.005.0086.835-.5503zm1.92 6.592v1h1.018l-.018-1.017-1 .017zm-7.168 0h-1v1h1v-1zm-.896-3.264l-.872.4886.004.0077.005.0076.863-.5039zm-2.624-2.624l-.509.8603.509-.8603zm-4.224-1.024l-.02.9998.01.0002h.01v-1zm-5.312 1.6l-.618-.7855-.006.0047-.006.0047.63.7761zm-.512 8.64l-.675.737.675-.737zm4.224 2.368l-.336.942.01.003.01.004.316-.949zm6.144 2.112l-.331.943.01.004.011.003.31-.95zm5.952 2.624l-.505.863.505-.863zm4.16 4.032l-.851.524.005.008.005.008.841-.54zm-.128 12.672l.858.515.005-.009-.863-.506zm-5.184 4.736l.461.888.006-.004.007-.003-.474-.881zm-8.512.792c-3.168 0-5.899-.555-8.217-1.635l-.845 1.814c2.631 1.224 5.661 1.821 9.062 1.821v-2zm-8.217-1.635c-2.319-1.079-4.113-2.604-5.412-4.572l-1.669 1.102c1.517 2.298 3.606 4.059 6.236 5.284l.845-1.814zm-5.404-4.56c-1.25-1.953-1.914-4.303-1.955-7.091l-1.999.028c.044 3.1.788 5.827 2.269 8.141l1.685-1.078zm-2.955-6.077h7.168v-2h-7.168v2zm6.169-.982c.047 2.636.975 4.908 2.779 6.76l1.433-1.396c-1.438-1.476-2.174-3.257-2.213-5.4l-1.999.036zm2.779 6.76c1.857 1.905 4.427 2.798 7.564 2.798v-2c-2.75 0-4.745-.771-6.131-2.194l-1.433 1.396zm7.564 2.798c2.754 0 5.041-.655 6.729-2.095l-1.297-1.522c-1.213 1.035-2.98 1.617-5.432 1.617v2zm6.731-2.097c1.715-1.469 2.589-3.368 2.589-5.623h-2c0 1.67-.618 3.014-1.89 4.105l1.301 1.518zm2.589-5.623c0-1.73-.398-3.236-1.283-4.434l-1.609 1.188c.566.765.892 1.818.892 3.246h2zm-1.267-4.411c-.789-1.135-1.883-2.047-3.241-2.749l-.919 1.776c1.117.578 1.943 1.288 2.519 2.115l1.641-1.142zm-3.228-2.742c-1.257-.674-2.701-1.272-4.324-1.798l-.617 1.902c1.534.498 2.864 1.052 3.996 1.658l.945-1.762zm-4.324-1.798c-1.573-.51-3.232-1.063-4.977-1.659l-.647 1.892c1.754.599 3.423 1.155 5.007 1.669l.617-1.902zm-4.984-1.662c-3.365-1.121-5.803-2.545-7.401-4.221l-1.447 1.38c1.9 1.993 4.668 3.556 8.215 4.739l.633-1.898zm-7.392-4.212c-1.503-1.615-2.293-3.766-2.293-6.551h-2c0 3.188.917 5.859 2.828 7.913l1.465-1.362zm-2.293-6.568c-.039-2.3479.496-4.3472 1.572-6.0381l-1.687-1.0738c-1.313 2.0638-1.93 4.4592-1.884 7.1459l1.999-.034zm1.563-6.0247c1.129-1.713 2.69-3.0461 4.711-3.9975l-.851-1.8096c-2.331 1.0966-4.184 2.6649-5.53 4.7065l1.67 1.1006zm4.719-4.001c2.059-.9902 4.487-1.5013 7.31-1.5013v-2c-3.064 0-5.799.5556-8.177 1.6987l.867 1.8026zm7.31-1.5013c2.779 0 5.162.5104 7.176 1.4979l.881-1.7958c-2.338-1.1458-5.032-1.7021-8.057-1.7021v2zm7.183 1.5013c2.066.9931 3.647 2.3676 4.777 4.1204l1.681-1.0834c-1.345-2.0872-3.22-3.6994-5.591-4.8396l-.867 1.8026zm4.782 4.129c1.121 1.7003 1.716 3.7077 1.756 6.0587l1.999-.034c-.045-2.6837-.731-5.0709-2.085-7.1253l-1.67 1.1006zm2.755 5.0417h-7.168v2h7.168v-2zm-6.168 1c0-1.3344-.348-2.5956-1.032-3.7679l-1.727 1.0078c.51.8757.759 1.7901.759 2.7601h2zm-1.023-3.7526c-.692-1.2347-1.698-2.232-2.987-2.9957l-1.019 1.7206c1.015.6017 1.758 1.3537 2.261 2.2523l1.745-.9772zm-2.987-2.9957c-1.339-.7939-2.933-1.1637-4.734-1.1637v2c1.528 0 2.75.3128 3.715.8843l1.019-1.7206zm-4.714-1.1635c-2.318-.0464-4.328.5357-5.95 1.8143l1.237 1.571c1.194-.9401 2.726-1.4247 4.673-1.3857l.04-1.9996zm-5.962 1.8237c-1.628 1.3228-2.418 3.1598-2.418 5.3841h2c0-1.701.576-2.936 1.679-3.8319l-1.261-1.5522zm-2.418 5.3841c0 1.952.579 3.594 1.861 4.769l1.351-1.474c-.766-.703-1.212-1.748-1.212-3.295h-2zm1.861 4.769c1.151 1.056 2.689 1.903 4.563 2.573l.673-1.884c-1.71-.61-2.988-1.341-3.885-2.163l-1.351 1.474zm4.583 2.58c1.786.595 3.828 1.297 6.129 2.106l.663-1.886c-2.307-.812-4.361-1.518-6.159-2.118l-.633 1.898zm6.15 2.113c2.161.707 4.078 1.554 5.757 2.537l1.011-1.726c-1.82-1.065-3.87-1.967-6.147-2.711l-.621 1.9zm5.757 2.537c1.614.944 2.879 2.174 3.814 3.693l1.703-1.048c-1.113-1.809-2.621-3.267-4.506-4.371l-1.011 1.726zm3.824 3.709c.937 1.461 1.441 3.372 1.441 5.796h2c0-2.696-.561-5.009-1.758-6.876l-1.683 1.08zm1.441 5.796c0 2.082-.527 4.02-1.59 5.83l1.725 1.012c1.241-2.115 1.865-4.402 1.865-6.842h-2zm-1.585 5.822c-1.045 1.741-2.627 3.202-4.8 4.369l.947 1.762c2.435-1.308 4.309-3.004 5.568-5.102l-1.715-1.029zm-4.787 4.362c-2.126 1.102-4.795 1.68-8.052 1.68v2c3.485 0 6.49-.617 8.973-1.904l-.921-1.776zm19.27.632l-.508.862.009.005.009.005.49-.872zm-5.697-5.824l-.872.488.003.007.869-.495zm0-17.472l-.866-.499-.003.004.869.495zm5.825-5.824l.489.872.012-.007-.501-.865zm16.255 0l-.507.862.009.005.009.005.489-.872zm5.761 5.824l-.873.488.005.009.005.009.863-.506zm0 17.472l-.867-.499-.003.004.87.495zm-5.761 5.824l.49.872.012-.007-.502-.865zm-3.711-4.992l-.5-.867-.011.007.511.86zm3.391-3.584l.88.476.005-.01-.885-.466zm0-11.968l-.894.447.007.014.008.015.879-.476zm-3.328-3.648l-.51.86.012.007.498-.867zm-9.024 0l-.499-.867-.011.007.51.86zm-3.328 3.648l.88.476.005-.01-.885-.466zm0 11.968l-.884.466.005.01.879-.476zm3.328 3.584l.511-.86-.511.86zm4.48 6.04c-2.873 0-5.432-.646-7.702-1.92l-.979 1.744c2.594 1.456 5.496 2.176 8.681 2.176v-2zm-7.684-1.91c-2.235-1.316-4.01-3.129-5.334-5.457l-1.739.99c1.492 2.622 3.514 4.691 6.058 6.191l1.015-1.724zm-5.331-5.45c-1.312-2.347-1.985-5.096-1.985-8.28h-2c0 3.472.736 6.568 2.24 9.256l1.745-.976zm-1.985-8.28c0-3.184.673-5.909 1.982-8.209l-1.739-.99c-1.507 2.65-2.243 5.727-2.243 9.199h2zm1.979-8.205c1.365-2.368 3.179-4.178 5.447-5.451l-.979-1.744c-2.596 1.457-4.664 3.53-6.201 6.197l1.733.998zm5.459-5.458c2.27-1.314 4.804-1.977 7.626-1.977v-2c-3.151 0-6.035.745-8.629 2.247l1.003 1.73zm7.626-1.977c2.868 0 5.399.664 7.621 1.974l1.015-1.724c-2.557-1.506-5.445-2.25-8.636-2.25v2zm7.639 1.984c2.266 1.272 4.055 3.078 5.377 5.44l1.745-.976c-1.494-2.673-3.545-4.749-6.143-6.208l-.979 1.744zm5.387 5.458c1.347 2.298 2.038 5.019 2.038 8.198h2c0-3.477-.759-6.559-2.313-9.21l-1.725 1.012zm2.038 8.198c0 3.179-.691 5.924-2.042 8.269l1.733.998c1.55-2.69 2.309-5.79 2.309-9.267h-2zm-2.045 8.273c-1.321 2.323-3.115 4.136-5.392 5.454l1.003 1.73c2.587-1.498 4.633-3.568 6.128-6.194l-1.739-.99zm-5.38 5.447c-2.27 1.274-4.829 1.92-7.703 1.92v2c3.186 0 6.088-.72 8.682-2.176l-.979-1.744zm-7.703-1.904c1.798 0 3.468-.452 4.991-1.356l-1.021-1.72c-1.208.717-2.524 1.076-3.97 1.076v2zm4.979-1.349c1.586-.913 2.841-2.251 3.773-3.975l-1.759-.952c-.775 1.434-1.781 2.485-3.011 3.193l.997 1.734zm3.778-3.985c.949-1.802 1.396-3.978 1.396-6.482h-2c0 2.275-.407 4.11-1.165 5.55l1.769.932zm1.396-6.482c0-2.502-.447-4.662-1.401-6.428l-1.759.952c.752 1.392 1.16 3.2 1.16 5.476h2zm-1.386-6.399c-.888-1.776-2.126-3.148-3.724-4.068l-.997 1.734c1.218.701 2.199 1.761 2.932 3.228l1.789-.894zm-3.712-4.061c-1.523-.904-3.194-1.356-4.991-1.356v2c1.446 0 2.763.359 3.97 1.076l1.021-1.72zm-4.991-1.356c-1.796 0-3.483.452-5.042 1.349l.997 1.734c1.257-.724 2.6-1.083 4.045-1.083v-2zm-5.054 1.356c-1.547.919-2.777 2.283-3.702 4.042l1.769.932c.781-1.484 1.771-2.552 2.954-3.254l-1.021-1.72zm-3.697 4.032c-.954 1.766-1.401 3.926-1.401 6.428h2c0-2.276.408-4.084 1.16-5.476l-1.759-.952zm-1.401 6.428c0 2.504.447 4.68 1.396 6.482l1.769-.932c-.758-1.44-1.165-3.275-1.165-5.55h-2zm1.401 6.492c.928 1.716 2.157 3.053 3.697 3.968l1.021-1.72c-1.19-.707-2.18-1.759-2.959-3.2l-1.759.952zm3.697 3.968c1.523.904 3.193 1.356 4.99 1.356v-2c-1.445 0-2.762-.359-3.969-1.076l-1.021 1.72zm37.799 4.708l-.463.886.008.004.455-.89zm-4.48-4.16l.85-.526-1.446-2.337-.394 2.72.99.143zm-.704 4.864v1h.866l.124-.857-.99-.143zm-6.08 0h-1v1h1v-1zm0-46.08v-1h-1v1h1zm6.784 0h1v-1h-1v1zm0 19.264h-1v3.227l1.825-2.661-.825-.566zm4.224-3.968l-.541-.841.541.841zm15.04.448l.526-.851-.526.851zm5.504 5.952l-.885.465.006.012.879-.477zm0 17.152l-.879-.477-.003.006.882.471zm-5.504 5.888l.515.858.011-.007-.526-.851zm-2.176-6.72l.723.691.007-.008-.73-.683zm1.536-13.376l-.885.466.885-.466zm-3.52-3.776l-.532.847.009.005.009.005.514-.857zm-12.352 1.6l-.73-.683-.008.008.738.675zm0 15.552l-.738.675.008.008.007.008.723-.691zm8.32 7.832c-2.34 0-4.377-.463-6.137-1.362l-.91 1.78c2.08 1.064 4.438 1.582 7.047 1.582v-2zm-6.129-1.358c-1.719-.899-3.078-2.162-4.093-3.8l-1.7 1.052c1.204 1.946 2.831 3.456 4.867 4.52l.926-1.772zm-5.933-3.417l-.704 4.864 1.98.286.704-4.864-1.98-.286zm.286 4.007h-6.08v2h6.08v-2zm-5.08 1V87.92h-2V134h2zm-1-45.08h6.784v-2h-6.784v2zm5.784-1v19.264h2V87.92h-2zm1.825 19.83c.936-1.366 2.24-2.6 3.94-3.693l-1.082-1.682c-1.884 1.211-3.396 2.623-4.508 4.243l1.65 1.132zm3.94-3.693c1.586-1.02 3.686-1.569 6.371-1.569v-2c-2.947 0-5.455.603-7.453 1.887l1.082 1.682zm6.371-1.569c2.908 0 5.431.684 7.602 2.027l1.052-1.702c-2.522-1.559-5.418-2.325-8.654-2.325v2zm7.602 2.027c2.19 1.353 3.903 3.202 5.145 5.566l1.77-.93c-1.403-2.671-3.36-4.79-5.863-6.338l-1.052 1.702zm5.151 5.578c1.277 2.354 1.927 5.046 1.927 8.099h2c0-3.347-.715-6.373-2.169-9.053l-1.758.954zm1.927 8.099c0 3.053-.65 5.745-1.927 8.099l1.758.954c1.454-2.68 2.169-5.706 2.169-9.053h-2zm-1.93 8.105c-1.241 2.321-2.954 4.152-5.148 5.508l1.052 1.702c2.499-1.545 4.456-3.64 5.86-6.268l-1.764-.942zm-5.136 5.502c-2.171 1.302-4.719 1.969-7.678 1.969v2c3.27 0 6.184-.741 8.707-2.255l-1.029-1.714zm-8.83-1.919c3.154 0 5.811-1.078 7.891-3.253l-1.446-1.382c-1.674 1.751-3.796 2.635-6.445 2.635v2zm7.898-3.261c2.079-2.22 3.086-5.082 3.086-8.491h-2c0 2.991-.87 5.335-2.546 7.125l1.46 1.366zm3.086-8.491c0-2.23-.456-4.25-1.395-6.034l-1.77.932c.768 1.458 1.165 3.151 1.165 5.102h2zm-1.395-6.034c-.934-1.774-2.232-3.172-3.891-4.167l-1.028 1.714c1.328.797 2.376 1.917 3.149 3.385l1.77-.932zm-3.873-4.157c-1.67-1.05-3.587-1.561-5.716-1.561v2c1.796 0 3.336.427 4.652 1.255l1.064-1.694zm-5.716-1.561c-3.161 0-5.82 1.105-7.898 3.325l1.46 1.366c1.677-1.791 3.796-2.691 6.438-2.691v-2zm-7.906 3.333c-2.03 2.219-3.014 5.055-3.014 8.419h2c0-2.951.851-5.277 2.49-7.069l-1.476-1.35zm-3.014 8.419c0 3.403.982 6.261 3.014 8.483l1.476-1.35c-1.637-1.789-2.49-4.136-2.49-7.133h-2zm3.029 8.499c2.08 2.175 4.738 3.253 7.891 3.253v-2c-2.649 0-4.771-.884-6.445-2.635l-1.446 1.382zM707.81 134h-1v1h1v-1zm0-31.744v-1h-1v1h1zm6.08 0l.996-.095-.087-.905h-.909v1zm.576 6.016l-.995.095.318 3.316 1.561-2.942-.884-.469zm4.608-4.928l.52.854.006-.003-.526-.851zm7.232-1.856h1v-1h-1v1zm0 7.104v1h1v-1h-1zm-6.912.96l.381.925.007-.003.006-.003-.394-.919zm-3.52 3.136l-.857-.515-.004.008.861.507zM714.594 134v1h1v-1h-1zm-5.784 0v-31.744h-2V134h2zm-1-30.744h6.08v-2h-6.08v2zm5.085-.905l.576 6.016 1.991-.19-.576-6.016-1.991.19zm2.455 6.39c1.028-1.937 2.44-3.445 4.244-4.543l-1.039-1.708c-2.122 1.291-3.781 3.069-4.972 5.313l1.767.938zm4.25-4.546c1.819-1.122 4.039-1.707 6.706-1.707v-2c-2.965 0-5.565.653-7.757 2.005l1.051 1.702zm5.706-2.707v7.104h2v-7.104h-2zm1 6.104h-1.856v2h1.856v-2zm-1.856 0c-1.991 0-3.814.34-5.449 1.041l.787 1.838c1.351-.579 2.9-.879 4.662-.879v-2zm-5.436 1.035c-1.672.689-3.003 1.89-3.997 3.547l1.715 1.028c.798-1.33 1.813-2.219 3.043-2.725l-.761-1.85zm-4.001 3.554c-.981 1.666-1.419 3.895-1.419 6.587h2c0-2.514.416-4.338 1.142-5.573l-1.723-1.014zm-1.419 6.587V134h2v-15.232h-2zm1 14.232h-6.784v2h6.784v-2zm21.262-.28l-.508.862.009.005.009.005.49-.872zm-5.632-5.824l-.876.483.876-.483zm-.064-17.408l-.879-.477-.006.012.885.465zm5.632-5.888l-.501-.865-.007.003.508.862zm16.576 0l-.522.853.012.007.51-.86zm5.376 5.504l.874-.486-.874.486zm1.856 9.024l-.997-.083-.003.041v.042h1zm-.064 1.6v1h.931l.066-.929-.997-.071zm-24.704 0v-1h-1.072l.074 1.069.998-.069zm3.008 7.04l-.671.742.009.008.01.008.652-.758zm11.136 1.088l.555.832.006-.004-.561-.828zm2.944-3.584v-1h-.659l-.26.606.919.394zm6.784 0l.962.275.364-1.275h-1.326v1zm-5.12 7.488l-.617-.787-.006.005.623.782zm-15.424-22.656l.603.798.006-.005.006-.005-.615-.788zm-3.2 6.016l-.99-.141-.163 1.141h1.153v-1zm17.92 0v1h1.053l-.054-1.052-.999.052zm-2.624-5.888l.667-.745-.667.745zm-6.08 24.536c-2.964 0-5.565-.648-7.83-1.92l-.98 1.744c2.599 1.459 5.544 2.176 8.81 2.176v-2zm-7.812-1.91c-2.232-1.315-3.984-3.124-5.264-5.445l-1.752.966c1.451 2.628 3.454 4.702 6 6.203l1.016-1.724zm-5.264-5.445c-1.272-2.304-1.924-5.013-1.924-8.157h-2c0 3.427.713 6.478 2.172 9.123l1.752-.966zm-1.924-8.157c0-3.194.634-5.952 1.869-8.303l-1.77-.93c-1.41 2.683-2.099 5.771-2.099 9.233h2zm1.863-8.291c1.282-2.363 3.033-4.191 5.261-5.503l-1.016-1.724c-2.551 1.504-4.554 3.602-6.003 6.273l1.758.954zm5.254-5.5c2.26-1.308 4.898-1.977 7.947-1.977v-2c-3.351 0-6.345.739-8.949 2.247l1.002 1.73zm7.947-1.977c2.959 0 5.482.667 7.607 1.965l1.042-1.706c-2.483-1.518-5.379-2.259-8.649-2.259v2zm7.618 1.972c2.154 1.277 3.819 2.983 5.012 5.13l1.748-.972c-1.367-2.461-3.286-4.424-5.74-5.878l-1.02 1.72zm5.012 5.13c1.193 2.147 1.794 4.517 1.794 7.13h2c0-2.934-.679-5.641-2.046-8.102l-1.748.972zm1.794 7.13c0 .394-.02.835-.061 1.325l1.993.166c.045-.534.068-1.032.068-1.491h-2zm-.064 1.408c0 .44-.02.949-.061 1.529l1.994.142c.044-.615.067-1.172.067-1.671h-2zm.936.6h-24.704v2h24.704v-2zm-25.702 1.069c.226 3.256 1.303 5.874 3.335 7.713l1.342-1.484c-1.552-1.403-2.481-3.479-2.681-6.367l-1.996.138zm3.354 7.729c2.013 1.733 4.356 2.61 6.988 2.61v-2c-2.147 0-4.028-.701-5.684-2.126l-1.304 1.516zm6.988 2.61c2.068 0 3.874-.461 5.355-1.448l-1.11-1.664c-1.079.719-2.473 1.112-4.245 1.112v2zm5.361-1.452c1.484-1.005 2.588-2.352 3.302-4.018l-1.838-.788c-.566 1.321-1.425 2.363-2.586 3.15l1.122 1.656zm2.383-3.412h6.784v-2h-6.784v2zm5.822-1.275c-.792 2.774-2.373 5.094-4.775 6.976l1.234 1.574c2.718-2.129 4.55-4.801 5.465-8l-1.924-.55zm-4.781 6.981c-2.312 1.841-5.217 2.79-8.785 2.79v2c3.942 0 7.308-1.057 10.031-3.226l-1.246-1.564zm-8.785-24.922c-2.48 0-4.703.754-6.631 2.26l1.23 1.576c1.57-1.225 3.358-1.836 5.401-1.836v-2zm-6.619 2.25c-2.008 1.518-3.175 3.789-3.587 6.673l1.98.282c.356-2.492 1.322-4.232 2.813-5.359l-1.206-1.596zm-2.597 7.814h17.92v-2h-17.92v2zm18.919-1.052c-.14-2.7-1.108-4.928-2.956-6.581l-1.334 1.49c1.395 1.248 2.176 2.946 2.292 5.195l1.998-.104zm-2.956-6.581c-1.827-1.635-4.1-2.431-6.747-2.431v2c2.217 0 3.997.654 5.413 1.921l1.334-1.49zM778.988 134h-1v1h1v-1zm0-31.744v-1h-1v1h1zm6.016 0l.992-.128-.112-.872h-.88v1zm.576 4.48l-.992.128.354 2.754 1.483-2.348-.845-.534zm4.032-3.84l-.482-.876-.009.005.491.871zm16.384 4.544l-.896.443.792 1.603.951-1.514-.847-.532zm4.608-4.352l-.478-.879-.008.005.486.874zm15.68 1.984l.726-.687-.726.687zM829.676 134v1h1v-1h-1zm-6.784 0h-1v1h1v-1zm-12.928-24.064l-.759-.651-.009.011.768.64zM807.724 134v1h1v-1h-1zm-6.784 0h-1v1h1v-1zm-12.928-24.064l-.759-.651-.009.011.768.64zM785.772 134v1h1v-1h-1zm-5.784 0v-31.744h-2V134h2zm-1-30.744h6.016v-2h-6.016v2zm5.024-.872l.576 4.48 1.984-.256-.576-4.48-1.984.256zm2.413 4.886c.936-1.482 2.159-2.646 3.678-3.503l-.982-1.742c-1.809 1.02-3.275 2.416-4.387 4.177l1.691 1.068zm3.669-3.498c1.539-.847 3.332-1.284 5.406-1.284v-2c-2.363 0-4.496.501-6.37 1.532l.964 1.752zm5.406-1.284c2.387 0 4.341.47 5.907 1.358 1.558.883 2.791 2.214 3.693 4.037l1.792-.886c-1.06-2.145-2.558-3.79-4.499-4.891-1.933-1.096-4.246-1.618-6.893-1.618v2zm11.343 5.484c1.061-1.69 2.472-3.024 4.247-4.01l-.972-1.748c-2.065 1.147-3.726 2.715-4.969 4.694l1.694 1.064zm4.238-4.005c1.815-.986 3.762-1.479 5.859-1.479v-2c-2.426 0-4.702.574-6.814 1.721l.955 1.758zm5.859-1.479c3.754 0 6.583 1.122 8.618 3.271l1.452-1.374c-2.488-2.63-5.888-3.897-10.07-3.897v2zm8.618 3.271c2.021 2.136 3.118 5.409 3.118 10.001h2c0-4.88-1.164-8.732-3.666-11.375l-1.452 1.374zm3.118 10.001V134h2v-18.24h-2zm1 17.24h-6.784v2h6.784v-2zm-5.784 1v-17.536h-2V134h2zm0-17.536c0-3.171-.601-5.733-1.965-7.519-1.404-1.837-3.491-2.697-6.075-2.697v2c2.109 0 3.542.676 4.485 1.911.982 1.286 1.555 3.332 1.555 6.305h2zm-8.04-10.216c-2.677 0-4.919 1.02-6.647 3.037l1.518 1.302c1.344-1.567 3.027-2.339 5.129-2.339v-2zm-6.656 3.048c-1.696 2.035-2.472 4.856-2.472 8.32h2c0-3.192.717-5.491 2.008-7.04l-1.536-1.28zm-2.472 8.32V134h2v-16.384h-2zm1 15.384h-6.784v2h6.784v-2zm-5.784 1v-17.536h-2V134h2zm0-17.536c0-3.173-.607-5.736-1.984-7.523-1.415-1.836-3.518-2.693-6.12-2.693v2c2.134 0 3.583.679 4.536 1.915.99 1.285 1.568 3.33 1.568 6.301h2zm-8.104-10.216c-2.641 0-4.859 1.025-6.583 3.037l1.518 1.302c1.347-1.572 3.012-2.339 5.065-2.339v-2zm-6.592 3.048c-1.696 2.035-2.472 4.856-2.472 8.32h2c0-3.192.717-5.491 2.008-7.04l-1.536-1.28zm-2.472 8.32V134h2v-16.384h-2zm1 15.384h-6.784v2h6.784v-2zm50.561-37.912l-.707.7071.018.0186.02.0176.669-.7433zm0-5.952l.688.726.001-.001-.689-.725zm6.336 0l-.707.7071.018.0186.02.0176.669-.7433zm0 5.952l.688.7259.001-.0009-.689-.725zM836.141 134h-1v1h1v-1zm0-31.744v-1h-1v1h1zm6.784 0h1v-1h-1v1zm0 31.744v1h1v-1h-1zm-3.392-38.76c-1.064 0-1.883-.3119-2.531-.8953l-1.338 1.4866c1.058.9526 2.372 1.4087 3.869 1.4087v-2zm-2.493-.8591c-.614-.6145-.923-1.359-.923-2.3009h-2c0 1.4474.502 2.7083 1.509 3.7151l1.414-1.4142zm-.923-2.3009c0-.9415.307-1.6531.904-2.218l-1.376-1.452c-1.025.9711-1.528 2.2222-1.528 3.67h2zm.905-2.219c.65-.6179 1.463-.941 2.511-.941v-2c-1.512 0-2.833.4876-3.889 1.491l1.378 1.45zm2.511-.941c1.049 0 1.828.3226 2.429.9231l1.414-1.4142c-1.021-1.0208-2.332-1.5089-3.843-1.5089v2zm2.467.9593c.633.5698.949 1.2765.949 2.2007h2c0-1.4651-.538-2.7211-1.611-3.6873L842 89.8793zm.949 2.2007c0 .9252-.318 1.6643-.969 2.283l1.378 1.45c1.055-1.0026 1.591-2.2689 1.591-3.733h-2zm-.968 2.282c-.597.5662-1.384.878-2.448.878v2c1.496 0 2.8-.4562 3.824-1.4261l-1.376-1.4519zM837.141 134v-31.744h-2V134h2zm-1-30.744h6.784v-2h-6.784v2zm5.784-1V134h2v-31.744h-2zm1 30.744h-6.784v2h6.784v-2z" fill="#000"/></svg>