<svg width="219" height="80" viewBox="0 0 219 80" fill="none" xmlns="http://www.w3.org/2000/svg"><path d="M66.5596 25V6.58h-6.21V4h15.57v2.58h-6.18V25h-3.18zm9.7338 0V10.12h2.85l.27 2.82c.52-.98 1.24-1.75 2.16-2.31.94-.58 2.07-.87 3.39-.87v3.33h-.87c-.88 0-1.67.15-2.37.45-.68.28-1.23.77-1.65 1.47-.4.68-.6 1.63-.6 2.85V25h-3.18zm15.5365.36c-1.26 0-2.3-.21-3.12-.63-.82-.42-1.43-.97-1.83-1.65-.4-.7-.6-1.46-.6-2.28 0-1.44.56-2.58 1.68-3.42 1.12-.84 2.72-1.26 4.8-1.26h3.9v-.27c0-1.16-.32-2.03-.96-2.61-.62-.58-1.43-.87-2.43-.87-.88 0-1.65.22-2.31.66-.64.42-1.03 1.05-1.17 1.89h-3.18c.1-1.08.46-2 1.08-2.76.64-.78 1.44-1.37 2.4-1.77.98-.42 2.05-.63 3.21-.63 2.08 0 3.69.55 4.83 1.65 1.14 1.08 1.71 2.56 1.71 4.44V25h-2.76l-.27-2.55c-.42.82-1.03 1.51-1.83 2.07-.8.56-1.85.84-3.15.84zm.63-2.58c.86 0 1.58-.2 2.16-.6.6-.42 1.06-.97 1.38-1.65.34-.68.55-1.43.63-2.25h-3.54c-1.26 0-2.16.22-2.7.66-.52.44-.78.99-.78 1.65 0 .68.25 1.22.75 1.62.52.38 1.22.57 2.1.57zm18.5581 2.58c-1.16 0-2.19-.23-3.09-.69-.88-.46-1.58-1.11-2.1-1.95l-.33 2.28h-2.85V3.4h3.18v9.03c.48-.7 1.14-1.32 1.98-1.86.84-.54 1.92-.81 3.24-.81 1.44 0 2.71.34 3.81 1.02 1.1.68 1.96 1.61 2.58 2.79.64 1.18.96 2.52.96 4.02 0 1.5-.32 2.84-.96 4.02-.62 1.16-1.48 2.08-2.58 2.76-1.1.66-2.38.99-3.84.99zm-.54-2.76c1.36 0 2.48-.46 3.36-1.38.88-.94 1.32-2.16 1.32-3.66 0-.98-.2-1.85-.6-2.61-.4-.76-.95-1.35-1.65-1.77-.7-.44-1.51-.66-2.43-.66-1.36 0-2.48.47-3.36 1.41-.86.94-1.29 2.15-1.29 3.63 0 1.5.43 2.72 1.29 3.66.88.92 2 1.38 3.36 1.38zm15.499 2.76c-1.26 0-2.3-.21-3.12-.63-.82-.42-1.43-.97-1.83-1.65-.4-.7-.6-1.46-.6-2.28 0-1.44.56-2.58 1.68-3.42 1.12-.84 2.72-1.26 4.8-1.26h3.9v-.27c0-1.16-.32-2.03-.96-2.61-.62-.58-1.43-.87-2.43-.87-.88 0-1.65.22-2.31.66-.64.42-1.03 1.05-1.17 1.89h-3.18c.1-1.08.46-2 1.08-2.76.64-.78 1.44-1.37 2.4-1.77.98-.42 2.05-.63 3.21-.63 2.08 0 3.69.55 4.83 1.65 1.14 1.08 1.71 2.56 1.71 4.44V25h-2.76l-.27-2.55c-.42.82-1.03 1.51-1.83 2.07-.8.56-1.85.84-3.15.84zm.63-2.58c.86 0 1.58-.2 2.16-.6.6-.42 1.06-.97 1.38-1.65.34-.68.55-1.43.63-2.25h-3.54c-1.26 0-2.16.22-2.7.66-.52.44-.78.99-.78 1.65 0 .68.25 1.22.75 1.62.52.38 1.22.57 2.1.57zM138.685 7.3c-.6 0-1.1-.18-1.5-.54-.38-.38-.57-.85-.57-1.41 0-.56.19-1.02.57-1.38.4-.38.9-.57 1.5-.57s1.09.19 1.47.57c.4.36.6.82.6 1.38 0 .56-.2 1.03-.6 1.41-.38.36-.87.54-1.47.54zm-4.74 24.3v-2.7h1.17c.7 0 1.2-.15 1.5-.45.3-.28.45-.76.45-1.44V10.12h3.18v16.92c0 1.62-.41 2.78-1.23 3.48-.82.72-1.96 1.08-3.42 1.08h-1.65zm16.556-6.24c-1.42 0-2.7-.32-3.84-.96-1.12-.66-2.01-1.57-2.67-2.73-.66-1.18-.99-2.55-.99-4.11 0-1.56.33-2.92.99-4.08.68-1.18 1.59-2.09 2.73-2.73 1.14-.66 2.41-.99 3.81-.99 1.42 0 2.69.33 3.81.99 1.14.64 2.04 1.55 2.7 2.73.68 1.16 1.02 2.52 1.02 4.08s-.34 2.93-1.02 4.11c-.66 1.16-1.56 2.07-2.7 2.73-1.14.64-2.42.96-3.84.96zm0-2.73c.76 0 1.46-.19 2.1-.57.66-.38 1.19-.94 1.59-1.68.4-.76.6-1.7.6-2.82 0-1.12-.2-2.05-.6-2.79-.38-.76-.9-1.33-1.56-1.71-.64-.38-1.34-.57-2.1-.57s-1.47.19-2.13.57c-.64.38-1.16.95-1.56 1.71-.4.74-.6 1.67-.6 2.79s.2 2.06.6 2.82c.4.74.92 1.3 1.56 1.68.64.38 1.34.57 2.1.57z" fill="#000"/></svg>