<svg width="1440" height="122" viewBox="0 0 1440 122" fill="none" xmlns="http://www.w3.org/2000/svg"><path d="M634.119 107V70.16h-12.42V65h31.14v5.16h-12.36V107h-6.36zm19.468 0V77.24h5.7l.54 5.64c1.04-1.96 2.48-3.5 4.32-4.62 1.88-1.16 4.14-1.74 6.78-1.74v6.66h-1.74c-1.76 0-3.34.3-4.74.9-1.36.56-2.46 1.54-3.3 2.94-.8 1.36-1.2 3.26-1.2 5.7V107h-6.36zm31.073.72c-2.52 0-4.6-.42-6.24-1.26-1.64-.84-2.86-1.94-3.66-3.3-.8-1.4-1.2-2.92-1.2-4.56 0-2.88 1.12-5.16 3.36-6.84 2.24-1.68 5.44-2.52 9.6-2.52h7.8v-.54c0-2.32-.64-4.06-1.92-5.22-1.24-1.16-2.86-1.74-4.86-1.74-1.76 0-3.3.44-4.62 1.32-1.28.84-2.06 2.1-2.34 3.78h-6.36c.2-2.16.92-4 2.16-5.52 1.28-1.56 2.88-2.74 4.8-3.54 1.96-.84 4.1-1.26 6.42-1.26 4.16 0 7.38 1.1 9.66 3.3 2.28 2.16 3.42 5.12 3.42 8.88V107h-5.52l-.54-5.1c-.84 1.64-2.06 3.02-3.66 4.14-1.6 1.12-3.7 1.68-6.3 1.68zm1.26-5.16c1.72 0 3.16-.4 4.32-1.2 1.2-.84 2.12-1.94 2.76-3.3.68-1.36 1.1-2.86 1.26-4.5h-7.08c-2.52 0-4.32.44-5.4 1.32-1.04.88-1.56 1.98-1.56 3.3 0 1.36.5 2.44 1.5 3.24 1.04.76 2.44 1.14 4.2 1.14zm37.115 5.16c-2.32 0-4.38-.46-6.18-1.38-1.76-.92-3.16-2.22-4.2-3.9l-.66 4.56h-5.7V63.8h6.36v18.06c.96-1.4 2.28-2.64 3.96-3.72 1.68-1.08 3.84-1.62 6.48-1.62 2.88 0 5.42.68 7.62 2.04 2.2 1.36 3.92 3.22 5.16 5.58 1.28 2.36 1.92 5.04 1.92 8.04 0 3-.64 5.68-1.92 8.04-1.24 2.32-2.96 4.16-5.16 5.52-2.2 1.32-4.76 1.98-7.68 1.98zm-1.08-5.52c2.72 0 4.96-.92 6.72-2.76 1.76-1.88 2.64-4.32 2.64-7.32 0-1.96-.4-3.7-1.2-5.22-.8-1.52-1.9-2.7-3.3-3.54-1.4-.88-3.02-1.32-4.86-1.32-2.72 0-4.96.94-6.72 2.82-1.72 1.88-2.58 4.3-2.58 7.26 0 3 .86 5.44 2.58 7.32 1.76 1.84 4 2.76 6.72 2.76zm30.999 5.52c-2.52 0-4.6-.42-6.24-1.26-1.64-.84-2.86-1.94-3.66-3.3-.8-1.4-1.2-2.92-1.2-4.56 0-2.88 1.12-5.16 3.36-6.84 2.24-1.68 5.44-2.52 9.6-2.52h7.8v-.54c0-2.32-.64-4.06-1.92-5.22-1.24-1.16-2.86-1.74-4.86-1.74-1.76 0-3.3.44-4.62 1.32-1.28.84-2.06 2.1-2.34 3.78h-6.36c.2-2.16.92-4 2.16-5.52 1.28-1.56 2.88-2.74 4.8-3.54 1.96-.84 4.1-1.26 6.42-1.26 4.16 0 7.38 1.1 9.66 3.3 2.28 2.16 3.42 5.12 3.42 8.88V107h-5.52l-.54-5.1c-.84 1.64-2.06 3.02-3.66 4.14-1.6 1.12-3.7 1.68-6.3 1.68zm1.26-5.16c1.72 0 3.16-.4 4.32-1.2 1.2-.84 2.12-1.94 2.76-3.3.68-1.36 1.1-2.86 1.26-4.5h-7.08c-2.52 0-4.32.44-5.4 1.32-1.04.88-1.56 1.98-1.56 3.3 0 1.36.5 2.44 1.5 3.24 1.04.76 2.44 1.14 4.2 1.14zM778.37 71.6c-1.2 0-2.2-.36-3-1.08-.76-.76-1.14-1.7-1.14-2.82 0-1.12.38-2.04 1.14-2.76.8-.76 1.8-1.14 3-1.14s2.18.38 2.94 1.14c.8.72 1.2 1.64 1.2 2.76 0 1.12-.4 2.06-1.2 2.82-.76.72-1.74 1.08-2.94 1.08zm-9.48 48.6v-5.4h2.34c1.4 0 2.4-.3 3-.9.6-.56.9-1.52.9-2.88V77.24h6.36v33.84c0 3.24-.82 5.56-2.46 6.96-1.64 1.44-3.92 2.16-6.84 2.16h-3.3zm33.113-12.48c-2.84 0-5.4-.64-7.68-1.92-2.24-1.32-4.02-3.14-5.34-5.46-1.32-2.36-1.98-5.1-1.98-8.22 0-3.12.66-5.84 1.98-8.16 1.36-2.36 3.18-4.18 5.46-5.46 2.28-1.32 4.82-1.98 7.62-1.98 2.84 0 5.38.66 7.62 1.98 2.28 1.28 4.08 3.1 5.4 5.46 1.36 2.32 2.04 5.04 2.04 8.16s-.68 5.86-2.04 8.22c-1.32 2.32-3.12 4.14-5.4 5.46-2.28 1.28-4.84 1.92-7.68 1.92zm0-5.46c1.52 0 2.92-.38 4.2-1.14 1.32-.76 2.38-1.88 3.18-3.36.8-1.52 1.2-3.4 1.2-5.64 0-2.24-.4-4.1-1.2-5.58-.76-1.52-1.8-2.66-3.12-3.42-1.28-.76-2.68-1.14-4.2-1.14s-2.94.38-4.26 1.14c-1.28.76-2.32 1.9-3.12 3.42-.8 1.48-1.2 3.34-1.2 5.58s.4 4.12 1.2 5.64c.8 1.48 1.84 2.6 3.12 3.36 1.28.76 2.68 1.14 4.2 1.14z" fill="#000"/><path d="M634.119 107h-1v1h1v-1zm0-36.84h1v-1h-1v1zm-12.42 0h-1v1h1v-1zm0-5.16v-1h-1v1h1zm31.14 0h1v-1h-1v1zm0 5.16v1h1v-1h-1zm-12.36 0v-1h-1v1h1zm0 36.84v1h1v-1h-1zm-5.36 0V70.16h-2V107h2zm-1-37.84h-12.42v2h12.42v-2zm-11.42 1V65h-2v5.16h2zm-1-4.16h31.14v-2h-31.14v2zm30.14-1v5.16h2V65h-2zm1 4.16h-12.36v2h12.36v-2zm-13.36 1V107h2V70.16h-2zm1 35.84h-6.36v2h6.36v-2zm13.108 1h-1v1h1v-1zm0-29.76v-1h-1v1h1zm5.7 0l.995-.0953-.086-.9047h-.909v1zm.54 5.64l-.996.0953.318 3.3159 1.561-2.9425-.883-.4687zm4.32-4.62l.52.8542.005-.0032-.525-.851zm6.78-1.74h1v-1h-1v1zm0 6.66v1h1v-1h-1zm-6.48.9l.381.9247.006-.0027.007-.0029-.394-.9191zm-3.3 2.94l-.858-.5145-.004.0075.862.507zm-1.2 19.98v1h1v-1h-1zm-5.36 0V77.24h-2V107h2zm-1-28.76h5.7v-2h-5.7v2zm4.704-.9047l.54 5.64 1.991-.1906-.54-5.64-1.991.1906zm2.419 6.0134c.959-1.8062 2.275-3.2109 3.957-4.2345l-1.04-1.7084c-1.998 1.2164-3.562 2.8917-4.684 5.0055l1.767.9374zm3.962-4.2377c1.694-1.0451 3.764-1.591 6.255-1.591v-2c-2.789 0-5.239.614-7.305 1.889l1.05 1.702zm5.255-2.591v6.66h2v-6.66h-2zm1 5.66h-1.74v2h1.74v-2zm-1.74 0c-1.875 0-3.592.3199-5.134.9809l.788 1.8382c1.257-.539 2.7-.8191 4.346-.8191v-2zm-5.121.9753c-1.581.6509-2.839 1.7871-3.777 3.3502l1.715 1.029c.742-1.2369 1.684-2.0607 2.824-2.5298l-.762-1.8494zm-3.781 3.3577c-.927 1.5757-1.338 3.678-1.338 6.207h2c0-2.351.389-4.0487 1.062-5.193l-1.724-1.014zm-1.338 6.207V107h2V92.72h-2zm1 13.28h-6.36v2h6.36v-2zm18.473.46l.456-.89-.456.89zm-3.66-3.3l-.869.496.007.011.862-.507zm2.16-11.4l.6.8-.6-.8zm17.4-2.52v1h1v-1h-1zm-1.92-5.76l-.683.7303.005.0054.006.0053.672-.741zm-9.48-.42l.549.8361.005-.004-.554-.8321zm-2.34 3.78v1h.847l.139-.8356-.986-.1644zm-6.36 0l-.996-.0922-.101 1.0922h1.097v-1zm2.16-5.52l-.773-.6343-.002.0022.775.6321zm4.8-3.54l.384.9231.01-.004-.394-.9191zm16.08 2.04l-.695.7196.007.0064.688-.726zm3.42 27.18v1h1v-1h-1zm-5.52 0l-.995.105.095.895h.9v-1zm-.54-5.1l.994-.105-.353-3.3398-1.531 2.9888.89.456zm-3.66 4.14l-.574-.819.574.819zm-.72-4.68l.568.823.005-.004-.573-.819zm2.76-3.3l-.895-.4472-.005.0106-.005.0108.905.4258zm1.26-4.5l.995.0971.107-1.0971h-1.102v1zm-12.48 1.32l-.632-.7752-.007.0058-.007.006.646.7634zm-.06 6.54l-.625.781.017.014.018.012.59-.807zm2.94 5.3c-2.417 0-4.328-.404-5.784-1.15l-.912 1.78c1.823.934 4.073 1.37 6.696 1.37v-2zm-5.784-1.15c-1.5-.768-2.566-1.747-3.254-2.917l-1.724 1.014c.911 1.55 2.286 2.771 4.066 3.683l.912-1.78zm-3.248-2.906c-.712-1.246-1.068-2.595-1.068-4.064h-2c0 1.811.444 3.502 1.332 5.056l1.736-.992zM674.56 98.6c0-2.5758.98-4.5551 2.96-6.04l-1.2-1.6c-2.5 1.8751-3.76 4.4558-3.76 7.64h2zm2.96-6.04c2.001-1.5007 4.956-2.32 9-2.32v-2c-4.276 0-7.721.8607-10.2 2.72l1.2 1.6zm9-2.32h7.8v-2h-7.8v2zm8.8-1v-.54h-2v.54h2zm0-.54c0-2.5009-.695-4.5526-2.249-5.961l-1.343 1.482c1.006.9116 1.592 2.3399 1.592 4.479h2zm-2.237-5.9503c-1.458-1.3636-3.338-2.0097-5.543-2.0097v2c1.794 0 3.154.5139 4.177 1.4703l1.366-1.4606zM687.54 80.74c-1.935 0-3.673.4866-5.175 1.488l1.109 1.6641c1.139-.7587 2.481-1.1521 4.066-1.1521v-2zm-5.169 1.484c-1.541 1.0111-2.457 2.5308-2.778 4.4516l1.973.3288c.24-1.4392.883-2.4395 1.902-3.1084l-1.097-1.672zm-1.791 3.616h-6.36v2h6.36v-2zm-5.364 1.0922c.183-1.9839.837-3.6302 1.939-4.9801l-1.55-1.2642c-1.379 1.6901-2.165 3.7238-2.381 6.0599l1.992.1844zm1.937-4.9779c1.173-1.4294 2.638-2.5122 4.411-3.2512l-.769-1.8462c-2.066.861-3.801 2.1382-5.188 3.8288l1.546 1.2686zm4.421-3.2552c1.825-.7821 3.829-1.1791 6.026-1.1791v-2c-2.444 0-4.719.443-6.814 1.3409l.788 1.8382zM687.6 77.52c3.985 0 6.924 1.0503 8.965 3.0196l1.389-1.4392c-2.519-2.4307-6.019-3.5804-10.354-3.5804v2zm8.972 3.026c2.042 1.9343 3.108 4.6101 3.108 8.154h2c0-3.9761-1.214-7.2203-3.732-9.606l-1.376 1.452zm3.108 8.154V107h2V88.7h-2zm1 17.3h-5.52v2h5.52v-2zm-4.526.895l-.54-5.1-1.989.21.54 5.1 1.989-.21zm-2.424-5.451c-.761 1.486-1.869 2.744-3.344 3.777l1.147 1.638c1.726-1.207 3.058-2.709 3.977-4.503l-1.78-.912zm-3.344 3.777c-1.384.969-3.264 1.499-5.726 1.499v2c2.738 0 5.058-.59 6.873-1.861l-1.147-1.638zm-4.466-1.661c1.877 0 3.527-.438 4.888-1.377l-1.136-1.646c-.959.661-2.19 1.023-3.752 1.023v2zm4.893-1.381c1.347-.942 2.379-2.1797 3.092-3.6932l-1.81-.8516c-.568 1.2065-1.375 2.1693-2.429 2.9068l1.147 1.638zm3.081-3.6718c.739-1.4784 1.19-3.0984 1.361-4.8501l-1.99-.1942c-.15 1.5283-.539 2.9083-1.16 4.1499l1.789.8944zm.366-5.9472h-7.08v2h7.08v-2zm-7.08 0c-2.585 0-4.678.4414-6.032 1.5448l1.263 1.5504c.806-.6566 2.314-1.0952 4.769-1.0952v-2zm-6.046 1.5566c-1.256 1.063-1.914 2.4386-1.914 4.0634h2c0-1.0152.382-1.8396 1.206-2.5366l-1.292-1.5268zM679.22 98.18c0 1.6421.621 3.018 1.875 4.021l1.249-1.562c-.746-.597-1.124-1.3811-1.124-2.459h-2zm1.91 4.047c1.264.924 2.894 1.333 4.79 1.333v-2c-1.624 0-2.794-.351-3.61-.947l-1.18 1.614zm35.725 4.113l-.463.886.008.004.455-.89zm-4.2-3.9l.851-.526-1.447-2.3368-.393 2.7198.989.143zm-.66 4.56v1h.866l.124-.857-.99-.143zm-5.7 0h-1v1h1v-1zm0-43.2v-1h-1v1h1zm6.36 0h1v-1h-1v1zm0 18.06h-1v3.2266l1.825-2.6611-.825-.5655zm3.96-3.72l-.54-.8412.54.8412zm14.1.42l.526-.8506-.526.8506zm5.16 5.58l-.885.4652.006.0116.879-.4768zm0 16.08l-.879-.4768-.003.0054.882.4714zm-5.16 5.52l.515.858.011-.007-.526-.851zm-2.04-6.3l.723.691.007-.008-.73-.683zm1.44-12.54l-.885.4657.885-.4657zm-3.3-3.54l-.532.8466.009.0056.009.0053.514-.8575zm-11.58 1.5l-.73-.6835-.007.0085.737.675zm0 14.58l-.737.675.007.008.008.008.722-.691zm7.8 7.28c-2.185 0-4.085-.432-5.725-1.27l-.91 1.78c1.961 1.002 4.181 1.49 6.635 1.49v-2zm-5.716-1.266c-1.602-.838-2.868-2.014-3.813-3.54l-1.701 1.052c1.135 1.834 2.669 3.258 4.587 4.26l.927-1.772zm-5.653-3.157l-.66 4.56 1.979.286.66-4.56-1.979-.286zm.329 3.703h-5.7v2h5.7v-2zm-4.7 1V63.8h-2V107h2zm-1-42.2h6.36v-2h-6.36v2zm5.36-1v18.06h2V63.8h-2zm1.825 18.6255c.873-1.2725 2.089-2.4238 3.676-3.4443l-1.081-1.6824c-1.773 1.1395-3.197 2.4682-4.244 3.9957l1.649 1.131zm3.676-3.4443c1.475-.9479 3.431-1.4612 5.939-1.4612v-2c-2.771 0-5.135.5667-7.02 1.7788l1.081 1.6824zm5.939-1.4612c2.716 0 5.07.6391 7.095 1.8906l1.051-1.7012c-2.375-1.4685-5.102-2.1894-8.146-2.1894v2zm7.095 1.8906c2.043 1.263 3.641 2.9877 4.8 5.1945l1.771-.9302c-1.321-2.5132-3.163-4.5085-5.52-5.9655l-1.051 1.7012zm4.806 5.2062c1.192 2.1971 1.799 4.7098 1.799 7.5632h2c0-3.1466-.672-5.9939-2.041-8.5168l-1.758.9536zm1.799 7.5632c0 2.8534-.607 5.3662-1.799 7.5632l1.758.9538c1.369-2.5231 2.041-5.3704 2.041-8.517h-2zm-1.802 7.5686c-1.158 2.1674-2.756 3.8754-4.803 5.1404l1.051 1.702c2.353-1.455 4.195-3.427 5.516-5.9l-1.764-.9424zm-4.792 5.1344c-2.024 1.214-4.401 1.837-7.166 1.837v2c3.076 0 5.819-.697 8.195-2.123l-1.029-1.714zm-8.246-1.683c2.973 0 5.48-1.017 7.443-3.069l-1.445-1.3822c-1.558 1.6282-3.53 2.4512-5.998 2.4512v2zm7.45-3.077c1.962-2.0952 2.91-4.794 2.91-8.003h-2c0 2.7909-.811 4.9721-2.37 6.6366l1.46 1.3664zm2.91-8.003c0-2.0992-.429-4.003-1.315-5.6858l-1.77.9315c.715 1.3573 1.085 2.9335 1.085 4.7543h2zM731 86.4342c-.88-1.6732-2.105-2.9925-3.67-3.9317l-1.029 1.715c1.235.7408 2.21 1.7815 2.929 3.1482l1.77-.9315zm-3.652-3.9208c-1.577-.9913-3.386-1.4734-5.393-1.4734v2c1.674 0 3.105.3979 4.328 1.1666l1.065-1.6932zm-5.393-1.4734c-2.979 0-5.489 1.0422-7.45 3.1366l1.46 1.3668c1.56-1.6656 3.53-2.5034 5.99-2.5034v-2zm-7.457 3.145c-1.916 2.0938-2.843 4.7682-2.843 7.935h2c0-2.7532.794-4.9188 2.318-6.585l-1.475-1.35zm-2.843 7.935c0 3.2028.925 5.8987 2.843 7.995l1.475-1.35c-1.522-1.6637-2.318-3.8478-2.318-6.645h-2zm2.858 8.011c1.962 2.052 4.47 3.069 7.442 3.069v-2c-2.467 0-4.439-.823-5.997-2.4512l-1.445 1.3822zm32.201 6.329l.456-.89-.456.89zm-3.66-3.3l-.868.496.006.011.862-.507zm2.16-11.4l.6.8-.6-.8zm17.4-2.52v1h1v-1h-1zm-1.92-5.76l-.683.7303.006.0054.006.0053.671-.741zm-9.48-.42l.549.8361.006-.004-.555-.8321zm-2.34 3.78v1h.847l.14-.8356-.987-.1644zm-6.36 0l-.995-.0922-.102 1.0922h1.097v-1zm2.16-5.52l-.773-.6343-.002.0022.775.6321zm4.8-3.54l.385.9231.009-.004-.394-.9191zm16.08 2.04l-.694.7196.007.0064.687-.726zm3.42 27.18v1h1v-1h-1zm-5.52 0l-.994.105.095.895h.899v-1zm-.54-5.1l.995-.105-.354-3.3398-1.531 2.9888.89.456zm-3.66 4.14l-.573-.819.573.819zm-.72-4.68l.568.823.006-.004-.574-.819zm2.76-3.3l-.894-.4472-.005.0106-.006.0108.905.4258zm1.26-4.5l.996.0971.107-1.0971h-1.103v1zm-12.48 1.32l-.631-.7752-.008.0058-.007.006.646.7634zm-.06 6.54l-.624.781.017.014.017.012.59-.807zm2.94 5.3c-2.416 0-4.327-.404-5.784-1.15l-.912 1.78c1.824.934 4.073 1.37 6.696 1.37v-2zm-5.784-1.15c-1.5-.768-2.565-1.747-3.254-2.917l-1.724 1.014c.912 1.55 2.286 2.771 4.066 3.683l.912-1.78zm-3.247-2.906c-.713-1.246-1.069-2.595-1.069-4.064h-2c0 1.811.444 3.502 1.332 5.056l1.737-.992zm-1.069-4.064c0-2.5758.98-4.5551 2.96-6.04l-1.2-1.6c-2.5 1.8751-3.76 4.4558-3.76 7.64h2zm2.96-6.04c2.001-1.5007 4.956-2.32 9-2.32v-2c-4.276 0-7.721.8607-10.2 2.72l1.2 1.6zm9-2.32h7.8v-2h-7.8v2zm8.8-1v-.54h-2v.54h2zm0-.54c0-2.5009-.694-4.5526-2.248-5.961l-1.343 1.482c1.006.9116 1.591 2.3399 1.591 4.479h2zm-2.237-5.9503c-1.457-1.3636-3.337-2.0097-5.543-2.0097v2c1.795 0 3.155.5139 4.177 1.4703l1.366-1.4606zm-5.543-2.0097c-1.935 0-3.672.4866-5.174 1.488l1.109 1.6641c1.138-.7587 2.48-1.1521 4.065-1.1521v-2zm-5.168 1.484c-1.541 1.0111-2.458 2.5308-2.778 4.4516l1.973.3288c.24-1.4392.883-2.4395 1.902-3.1084l-1.097-1.672zm-1.792 3.616h-6.36v2h6.36v-2zm-5.364 1.0922c.184-1.9839.838-3.6302 1.939-4.9801l-1.55-1.2642c-1.378 1.6901-2.164 3.7238-2.38 6.0599l1.991.1844zm1.937-4.9779c1.173-1.4294 2.638-2.5122 4.412-3.2512l-.769-1.8462c-2.067.861-3.802 2.1382-5.189 3.8288l1.546 1.2686zm4.421-3.2552c1.825-.7821 3.83-1.1791 6.026-1.1791v-2c-2.443 0-4.719.443-6.814 1.3409l.788 1.8382zm6.026-1.1791c3.985 0 6.925 1.0503 8.966 3.0196l1.389-1.4392c-2.519-2.4307-6.019-3.5804-10.355-3.5804v2zm8.973 3.026c2.041 1.9343 3.107 4.6101 3.107 8.154h2c0-3.9761-1.214-7.2203-3.732-9.606l-1.375 1.452zm3.107 8.154V107h2V88.7h-2zm1 17.3h-5.52v2h5.52v-2zm-4.525.895l-.54-5.1-1.989.21.54 5.1 1.989-.21zm-2.425-5.451c-.761 1.486-1.868 2.744-3.343 3.777l1.147 1.638c1.725-1.207 3.058-2.709 3.976-4.503l-1.78-.912zm-3.343 3.777c-1.384.969-3.265 1.499-5.727 1.499v2c2.739 0 5.058-.59 6.874-1.861l-1.147-1.638zm-4.467-1.661c1.878 0 3.527-.438 4.888-1.377l-1.135-1.646c-.96.661-2.19 1.023-3.753 1.023v2zm4.894-1.381c1.346-.942 2.379-2.1797 3.091-3.6932l-1.81-.8516c-.567 1.2065-1.375 2.1693-2.428 2.9068l1.147 1.638zm3.081-3.6718c.739-1.4784 1.19-3.0984 1.361-4.8501l-1.991-.1942c-.149 1.5283-.538 2.9083-1.159 4.1499l1.789.8944zm.365-5.9472h-7.08v2h7.08v-2zm-7.08 0c-2.585 0-4.677.4414-6.031 1.5448l1.263 1.5504c.806-.6566 2.313-1.0952 4.768-1.0952v-2zm-6.046 1.5566c-1.256 1.063-1.914 2.4386-1.914 4.0634h2c0-1.0152.383-1.8396 1.206-2.5366l-1.292-1.5268zm-1.914 4.0634c0 1.6421.622 3.018 1.876 4.021l1.249-1.562c-.746-.597-1.125-1.3811-1.125-2.459h-2zm1.91 4.047c1.264.924 2.894 1.333 4.79 1.333v-2c-1.624 0-2.794-.351-3.61-.947l-1.18 1.614zM775.37 70.52l-.707.7071.018.0186.02.0176.669-.7433zm0-5.58l.688.726.001-.001-.689-.725zm5.94 0l-.707.7071.018.0186.02.0176.669-.7433zm0 5.58l.688.7259.001-.0009-.689-.725zm-12.42 49.68h-1v1h1v-1zm0-5.4v-1h-1v1h1zm5.34-.9l-.682-.731-.013.012-.012.012.707.707zm.9-36.66v-1h-1v1h1zm6.36 0h1v-1h-1v1zm-2.46 40.8l-.649-.761-.011.01.66.751zm-.66-47.44c-.984 0-1.736-.2879-2.331-.8233l-1.338 1.4866c1.005.9046 2.252 1.3367 3.669 1.3367v-2zm-2.293-.7871c-.564-.5639-.847-1.2457-.847-2.1129h-2c0 1.3728.477 2.571 1.433 3.5271l1.414-1.4142zM775.23 67.7c0-.8668.282-1.5171.828-2.0341l-1.376-1.4519c-.974.9231-1.452 2.1128-1.452 3.486h2zm.829-2.035c.597-.5672 1.343-.865 2.311-.865v-2c-1.432 0-2.686.4622-3.689 1.415l1.378 1.45zm2.311-.865c.969 0 1.683.2973 2.233.8471l1.414-1.4142c-.97-.9702-2.216-1.4329-3.647-1.4329v2zm2.271.8833c.58.5218.869 1.1671.869 2.0167h2c0-1.3904-.511-2.5851-1.531-3.5033l-1.338 1.4866zm.869 2.0167c0 .8505-.291 1.527-.889 2.095l1.378 1.45c1.002-.952 1.511-2.1555 1.511-3.545h-2zm-.888 2.094c-.547.5182-1.268.806-2.252.806v2c1.416 0 2.655-.4322 3.628-1.3541l-1.376-1.4519zM769.89 120.2v-5.4h-2v5.4h2zm-1-4.4h2.34v-2h-2.34v2zm2.34 0c1.501 0 2.829-.315 3.707-1.193l-1.414-1.414c-.322.322-.995.607-2.293.607v2zm3.682-1.169c.902-.842 1.218-2.148 1.218-3.611h-2c0 1.257-.285 1.871-.582 2.149l1.364 1.462zm1.218-3.611V77.24h-2v33.78h2zm-1-32.78h6.36v-2h-6.36v2zm5.36-1v33.84h2V77.24h-2zm0 33.84c0 3.096-.785 5.069-2.109 6.199l1.298 1.522c1.955-1.67 2.811-4.337 2.811-7.721h-2zm-2.12 6.209c-1.403 1.232-3.42 1.911-6.18 1.911v2c3.08 0 5.623-.761 7.5-2.409l-1.32-1.502zm-6.18 1.911h-3.3v2h3.3v-2zm22.133-13.4l-.508.862.009.005.009.005.49-.872zm-5.34-5.46l-.873.488.004.007.869-.495zm0-16.38l-.867-.4993-.002.0048.869.4945zm5.46-5.46l.489.8721.012-.0067-.501-.8654zm15.24 0l-.508.8615.009.0054.009.0051.49-.872zm5.4 5.46l-.873.4882.005.0088.005.0087.863-.5057zm0 16.38l-.867-.4993-.002.0048.869.4945zm-5.4 5.46l.489.872.012-.007-.501-.865zm-3.48-4.68l-.499-.867-.012.007.511.86zm3.18-3.36l.88.4755.005-.0098-.885-.4657zm0-11.22l-.894.4472.007.0143.007.014.88-.4755zm-3.12-3.42l-.511.8599.012.0067.499-.8666zm-8.46 0l-.499-.8667-.012.0068.511.8599zm-3.12 3.42l.88.4755.005-.0098-.885-.4657zm0 11.22l-.885.4658.005.0097.88-.4755zm3.12 3.36l.51-.86-.51.86zm4.2 5.6c-2.684 0-5.073-.603-7.191-1.792l-.979 1.744c2.443 1.371 5.174 2.048 8.17 2.048v-2zm-7.172-1.782c-2.086-1.228-3.743-2.92-4.979-5.0925l-1.738.9895c1.404 2.467 3.307 4.415 5.701 5.827l1.016-1.724zm-4.975-5.0862c-1.225-2.1892-1.853-4.7562-1.853-7.7318h-2c0 3.2644.692 6.1774 2.107 8.708l1.746-.9762zm-1.853-7.7318c0-2.9761.628-5.5199 1.849-7.6655l-1.738-.989c-1.419 2.4944-2.111 5.3906-2.111 8.6545h2zm1.846-7.6607c1.274-2.2109 2.967-3.8991 5.083-5.0873l-.979-1.744c-2.443 1.3718-4.391 3.3236-5.836 5.8327l1.732.9986zm5.095-5.0939c2.118-1.2262 4.483-1.8454 7.119-1.8454v-2c-2.965 0-5.679.7008-8.121 2.1146l1.002 1.7308zm7.119-1.8454c2.678 0 5.04.6204 7.112 1.8415l1.016-1.723c-2.408-1.4189-5.126-2.1185-8.128-2.1185v2zm7.13 1.852c2.114 1.1866 3.784 2.8712 5.017 5.0762l1.746-.9764c-1.407-2.515-3.337-4.4704-5.784-5.8438l-.979 1.744zm5.027 5.0937c1.257 2.1435 1.903 4.6832 1.903 7.6543h2c0-3.2689-.714-6.1692-2.177-8.6657l-1.726 1.0114zm1.903 7.6543c0 2.9706-.646 5.5335-1.907 7.7207l1.733.9983c1.46-2.5325 2.174-5.4496 2.174-8.719h-2zm-1.909 7.7255c-1.234 2.1685-2.908 3.8595-5.032 5.0895l1.002 1.73c2.436-1.41 4.362-3.359 5.768-5.83l-1.738-.9895zm-5.021 5.0825c-2.117 1.189-4.506 1.792-7.19 1.792v2c2.996 0 5.727-.677 8.169-2.048l-.979-1.744zm-7.19-1.668c1.696 0 3.273-.426 4.71-1.28l-1.021-1.72c-1.122.666-2.345 1-3.689 1v2zm4.699-1.273c1.497-.862 2.682-2.1259 3.561-3.7515l-1.76-.951c-.721 1.3344-1.656 2.3109-2.799 2.9685l.998 1.734zm3.566-3.7613c.895-1.7006 1.315-3.7511 1.315-6.1057h-2c0 2.1254-.38 3.8349-1.085 5.1743l1.77.9314zm1.315-6.1057c0-2.3531-.42-4.3891-1.32-6.0555l-1.76.951c.699 1.2936 1.08 2.9776 1.08 5.1045h2zm-1.306-6.0272c-.837-1.6745-2.006-2.9703-3.515-3.8394l-.998 1.7332c1.131.6509 2.042 1.6351 2.725 3.0006l1.788-.8944zm-3.504-3.8327c-1.437-.8537-3.014-1.2801-4.71-1.2801v2c1.344 0 2.567.3336 3.689.9999l1.021-1.7198zm-4.71-1.2801c-1.696 0-3.288.4262-4.759 1.2734l.998 1.7332c1.168-.6728 2.416-1.0066 3.761-1.0066v-2zm-4.771 1.2801c-1.462.8681-2.621 2.1564-3.494 3.8141l1.77.9315c.727-1.3821 1.647-2.3739 2.745-3.0258l-1.021-1.7198zm-3.489 3.8044c-.901 1.6664-1.32 3.7024-1.32 6.0555h2c0-2.1269.38-3.8109 1.08-5.1045l-1.76-.951zm-1.32 6.0555c0 2.3546.42 4.4051 1.315 6.1057l1.77-.9314c-.705-1.3394-1.085-3.0489-1.085-5.1743h-2zm1.32 6.1155c.875 1.618 2.034 2.8805 3.489 3.7445l1.021-1.72c-1.105-.6559-2.025-1.6335-2.75-2.9755l-1.76.951zm3.489 3.7445c1.438.854 3.015 1.28 4.711 1.28v-2c-1.344 0-2.567-.334-3.69-1l-1.021 1.72z" fill="#000"/></svg>