<svg width="557" height="22" viewBox="0 0 557 22" fill="none" xmlns="http://www.w3.org/2000/svg"><path d="M2.12216 4.90909H.460227L5.26705 18h1.63636L11.7102 4.90909h-1.6619L6.16193 15.929h-.15341L2.12216 4.90909zM13.0047 18h1.5086V8.18182h-1.5086V18zm.7671-11.45455c.5881 0 1.0739-.46022 1.0739-1.02272S14.3599 4.5 13.7718 4.5c-.5881 0-1.0739.46023-1.0739 1.02273s.4858 1.02272 1.0739 1.02272zm9.919 3.83525c-.473-1.39348-1.5341-2.32672-3.4773-2.32672-2.071 0-3.6051 1.17613-3.6051 2.83802 0 1.3552.8054 2.2628 2.6079 2.6847l1.6364.3835c.9908.2301 1.4574.7032 1.4574 1.3807 0 .8438-.8949 1.5341-2.3011 1.5341-1.2337 0-2.0071-.5305-2.2756-1.5852l-1.4318.3579c.3515 1.6684 1.7258 2.5568 3.7329 2.5568 2.282 0 3.8353-1.2464 3.8353-2.9403 0-1.3679-.8566-2.2308-2.608-2.6591l-1.4574-.3579c-1.1633-.2877-1.6875-.6776-1.6875-1.4319 0-.84371.8949-1.45735 2.0966-1.45735 1.3168 0 1.8601.72865 2.1222 1.40625l1.3551-.3835zm8.0972 3.6051c0 1.8409-1.4062 2.6847-2.5312 2.6847-1.2529 0-2.1478-.9205-2.1478-2.3523V8.18182h-1.5085v6.23868c0 2.5056 1.3296 3.7073 3.1705 3.7073 1.4829 0 2.4545-.7926 2.9148-1.7897h.1022V18h1.5085V8.18182H31.788v5.80398zm6.6207 4.2443c1.7131 0 2.608-.9204 2.9148-1.5596h.0767V18h1.5085v-6.4688c0-3.11927-2.3778-3.47722-3.6307-3.47722-1.4829 0-3.1704.51136-3.9375 2.30112l1.4319.5114c.3323-.7159 1.1186-1.48298 2.5568-1.48298 1.387 0 2.071.73508 2.071 1.99428v.0512c0 .7287-.7415.6648-2.5313.8949-1.8217.2365-3.8096.6392-3.8096 2.8892 0 1.9176 1.4829 3.017 3.3494 3.017zm.2301-1.3551c-1.2017 0-2.071-.5369-2.071-1.5852 0-1.1506 1.0483-1.5086 2.2244-1.662.6392-.0767 2.3523-.2556 2.608-.5625v1.3807c0 1.2273-.9716 2.429-2.7614 2.429zm7.9918-11.96591h-1.5085V18h1.5085V4.90909zm13.7 5.47161c-.473-1.39348-1.5341-2.32672-3.4773-2.32672-2.071 0-3.6051 1.17613-3.6051 2.83802 0 1.3552.8054 2.2628 2.608 2.6847l1.6364.3835c.9907.2301 1.4573.7032 1.4573 1.3807 0 .8438-.8948 1.5341-2.3011 1.5341-1.2337 0-2.0071-.5305-2.2756-1.5852l-1.4318.3579c.3516 1.6684 1.7259 2.5568 3.733 2.5568 2.2819 0 3.8352-1.2464 3.8352-2.9403 0-1.3679-.8565-2.2308-2.608-2.6591l-1.4573-.3579c-1.1634-.2877-1.6875-.6776-1.6875-1.4319 0-.84371.8948-1.45735 2.0965-1.45735 1.3168 0 1.8601.72865 2.1222 1.40625l1.3551-.3835zm6.1797-2.19888h-2.0966V5.82955h-1.5086v2.35227h-1.4829v1.27841h1.4829v6.13637c0 1.7131 1.3807 2.5312 2.6591 2.5312.5625 0 .9205-.1022 1.125-.1789l-.3068-1.3551c-.1278.0255-.3324.0767-.6648.0767-.6647 0-1.3039-.2046-1.3039-1.483V9.46023h2.0966V8.18182zm7.9166 5.80398c0 1.8409-1.4062 2.6847-2.5312 2.6847-1.2529 0-2.1477-.9205-2.1477-2.3523V8.18182h-1.5086v6.23868c0 2.5056 1.3296 3.7073 3.1705 3.7073 1.4829 0 2.4545-.7926 2.9148-1.7897h.1022V18h1.5086V8.18182h-1.5086v5.80398zm7.4389 4.2187c1.892 0 2.5313-1.1761 2.8636-1.713h.179V18h1.4574V4.90909h-1.5085v4.83239h-.1279c-.3323-.51137-.9204-1.6875-2.838-1.6875-2.4801 0-4.1932 1.96872-4.1932 5.06252 0 3.1193 1.7131 5.088 4.1676 5.088zm.2045-1.3551c-1.892 0-2.8636-1.6619-2.8636-3.7585 0-2.071.946-3.68181 2.8636-3.68181 1.841 0 2.8125 1.48291 2.8125 3.68181 0 2.2244-.9971 3.7585-2.8125 3.7585zM88.7981 18h1.5085V8.18182h-1.5085V18zm.767-11.45455c.5881 0 1.0739-.46022 1.0739-1.02272S90.1532 4.5 89.5651 4.5c-.588 0-1.0738.46023-1.0738 1.02273s.4858 1.02272 1.0738 1.02272zm6.9531 11.65905c2.6591 0 4.4488-2.0198 4.4488-5.0625 0-3.0681-1.7897-5.08802-4.4488-5.08802-2.6591 0-4.4488 2.01992-4.4488 5.08802 0 3.0427 1.7897 5.0625 4.4488 5.0625zm0-1.3551c-2.0199 0-2.9403-1.7386-2.9403-3.7074 0-1.9687.9204-3.73291 2.9403-3.73291 2.0199 0 2.9404 1.76421 2.9404 3.73291 0 1.9688-.9205 3.7074-2.9404 3.7074zm8.4618-.6392h-1.637l-.076.7159c-.186 1.7323-.55 3.4581-.716 4.2699h1.15c.307-.8693.959-2.838 1.177-4.2954l.102-.6904zM111.962 18h1.585v-5.8551h5.676v-1.4063h-5.676V6.31534h6.264V4.90909h-7.849V18zm9.82 0h1.508V8.18182h-1.508V18zm.767-11.45455c.588 0 1.074-.46022 1.074-1.02272S123.137 4.5 122.549 4.5c-.588 0-1.074.46023-1.074 1.02273s.486 1.02272 1.074 1.02272zm6.927 15.34095c2.353 0 4.245-1.0739 4.245-3.6052V8.18182h-1.458v1.55966h-.153c-.333-.51137-.946-1.6875-2.864-1.6875-2.48 0-4.193 1.96872-4.193 4.98582 0 3.0682 1.79 4.8068 4.168 4.8068 1.917 0 2.531-1.125 2.863-1.6619h.128v1.9943c0 1.6363-1.151 2.3778-2.736 2.3778-1.783 0-2.41-.9396-2.812-1.4829l-1.202.8437c.614 1.0291 1.822 1.9688 4.014 1.9688zm-.051-5.3949c-1.892 0-2.864-1.4318-2.864-3.4773 0-1.9943.946-3.60511 2.864-3.60511 1.841 0 2.813 1.48291 2.813 3.60511 0 2.1733-.998 3.4773-2.813 3.4773zM135.942 18h1.508v-6.1364c0-1.4382 1.049-2.45451 2.225-2.45451 1.144 0 1.943.74791 1.943 1.86651V18h1.534v-6.392c0-1.2657.793-2.19891 2.173-2.19891 1.074 0 1.995.56889 1.995 2.01991V18h1.508v-6.571c0-2.30755-1.24-3.37502-2.991-3.37502-1.406 0-2.436.64559-2.941 1.66193h-.102c-.486-1.0483-1.342-1.66193-2.633-1.66193-1.279 0-2.225.61363-2.634 1.66193h-.128V8.18182h-1.457V18zm17.994.2301c1.713 0 2.608-.9204 2.914-1.5596h.077V18h1.509v-6.4688c0-3.11927-2.378-3.47722-3.631-3.47722-1.483 0-3.17.51136-3.938 2.30112l1.432.5114c.333-.7159 1.119-1.48298 2.557-1.48298 1.387 0 2.071.73508 2.071 1.99428v.0512c0 .7287-.741.6648-2.531.8949-1.822.2365-3.81.6392-3.81 2.8892 0 1.9176 1.483 3.017 3.35 3.017zm.23-1.3551c-1.202 0-2.071-.5369-2.071-1.5852 0-1.1506 1.048-1.5086 2.224-1.662.639-.0767 2.352-.2556 2.608-.5625v1.3807c0 1.2273-.971 2.429-2.761 2.429zm8.733-.6648h-1.636l-.077.7159c-.185 1.7323-.55 3.4581-.716 4.2699h1.151c.306-.8693.958-2.838 1.176-4.2954l.102-.6904zM180.415 9c-.486-2.68466-2.633-4.26989-5.267-4.26989-3.349 0-5.778 2.58239-5.778 6.72439 0 4.1421 2.429 6.7245 5.778 6.7245 2.634 0 4.781-1.5852 5.267-4.2699h-1.585c-.384 1.8153-1.943 2.7869-3.682 2.7869-2.378 0-4.244-1.8409-4.244-5.2415 0-3.40052 1.866-5.24143 4.244-5.24143 1.739 0 3.298.97159 3.682 2.78693h1.585zm4.706 9.2301c1.713 0 2.608-.9204 2.915-1.5596h.077V18h1.508v-6.4688c0-3.11927-2.377-3.47722-3.63-3.47722-1.483 0-3.171.51136-3.938 2.30112l1.432.5114c.332-.7159 1.119-1.48298 2.557-1.48298 1.387 0 2.071.73508 2.071 1.99428v.0512c0 .7287-.742.6648-2.531.8949-1.822.2365-3.81.6392-3.81 2.8892 0 1.9176 1.483 3.017 3.349 3.017zm.23-1.3551c-1.201 0-2.071-.5369-2.071-1.5852 0-1.1506 1.049-1.5086 2.225-1.662.639-.0767 2.352-.2556 2.608-.5625v1.3807c0 1.2273-.972 2.429-2.762 2.429zm7.992-4.7812c0-1.7131 1.061-2.68471 2.506-2.68471 1.4 0 2.25.91411 2.25 2.45451V18h1.508v-6.2386c0-2.50572-1.335-3.70742-3.323-3.70742-1.483 0-2.404.66477-2.864 1.66193h-.128V8.18182h-1.457V18h1.508v-5.9062zm16.158-3.91198h-1.636l-2.711 7.82388h-.102l-2.71-7.82388h-1.637L204.336 18h1.534l3.631-9.81818zm4.041 10.04828c1.713 0 2.608-.9204 2.915-1.5596h.077V18h1.508v-6.4688c0-3.11927-2.377-3.47722-3.63-3.47722-1.483 0-3.171.51136-3.938 2.30112l1.432.5114c.332-.7159 1.119-1.48298 2.557-1.48298 1.387 0 2.071.73508 2.071 1.99428v.0512c0 .7287-.742.6648-2.531.8949-1.822.2365-3.81.6392-3.81 2.8892 0 1.9176 1.483 3.017 3.349 3.017zm.231-1.3551c-1.202 0-2.072-.5369-2.072-1.5852 0-1.1506 1.049-1.5086 2.225-1.662.639-.0767 2.352-.2556 2.608-.5625v1.3807c0 1.2273-.972 2.429-2.761 2.429zm8.733-.6648h-1.637l-.076.7159c-.186 1.7323-.55 3.4581-.716 4.2699h1.15c.307-.8693.959-2.838 1.176-4.2954l.103-.6904zM231.866 18h1.636l2.889-10.43182h.102L239.383 18h1.636l3.58-13.09091h-1.611L240.252 15.571h-.128l-2.787-10.66191h-1.79L232.76 15.571h-.127l-2.736-10.66191h-1.611L231.866 18zm17.038.2045c2.659 0 4.449-2.0198 4.449-5.0625 0-3.0681-1.79-5.08802-4.449-5.08802s-4.449 2.01992-4.449 5.08802c0 3.0427 1.79 5.0625 4.449 5.0625zm0-1.3551c-2.02 0-2.941-1.7386-2.941-3.7074 0-1.9687.921-3.73291 2.941-3.73291 2.02 0 2.94 1.76421 2.94 3.73291 0 1.9688-.92 3.7074-2.94 3.7074zM255.115 18h1.509v-6.2131c0-1.3295 1.048-2.3011 2.48-2.3011.403 0 .818.0767.92.10227V8.05398c-.172-.01279-.569-.02557-.792-.02557-1.176 0-2.199.66477-2.557 1.63636h-.102V8.18182h-1.458V18zm9.566.2045c1.892 0 2.531-1.1761 2.864-1.713h.179V18h1.457V4.90909h-1.508v4.83239h-.128c-.333-.51137-.921-1.6875-2.838-1.6875-2.48 0-4.193 1.96872-4.193 5.06252 0 3.1193 1.713 5.088 4.167 5.088zm.205-1.3551c-1.892 0-2.864-1.6619-2.864-3.7585 0-2.071.946-3.68181 2.864-3.68181 1.841 0 2.812 1.48291 2.812 3.68181 0 2.2244-.997 3.7585-2.812 3.7585zm8.977-.6392h-1.636l-.077.7159c-.185 1.7323-.549 3.4581-.716 4.2699h1.151c.307-.8693.959-2.838 1.176-4.2954l.102-.6904zM276.323 18h1.585v-4.7812h2.864c3.049 0 4.423-1.8537 4.423-4.16766 0-2.31392-1.374-4.14205-4.449-4.14205h-4.423V18zm1.585-6.1875V6.31534h2.787c2.129 0 2.94 1.16335 2.94 2.7358 0 1.57246-.811 2.76136-2.914 2.76136h-2.813zm12.979 6.392c2.659 0 4.449-2.0198 4.449-5.0625 0-3.0681-1.79-5.08802-4.449-5.08802s-4.449 2.01992-4.449 5.08802c0 3.0427 1.79 5.0625 4.449 5.0625zm0-1.3551c-2.02 0-2.94-1.7386-2.94-3.7074 0-1.9687.92-3.73291 2.94-3.73291s2.941 1.76421 2.941 3.73291c0 1.9688-.921 3.7074-2.941 3.7074zM298.989 18h1.483l2.148-7.5426h.153L304.921 18h1.483l2.992-9.81818h-1.586l-2.122 7.49148h-.102l-2.071-7.49148h-1.611l-2.096 7.51708h-.103l-2.122-7.51708h-1.585L298.989 18zm15.643.2045c1.995 0 3.452-.9971 3.912-2.4801l-1.457-.4091c-.384 1.0228-1.272 1.5341-2.455 1.5341-1.77 0-2.991-1.1441-3.061-3.2471h7.127v-.6392c0-3.65628-2.174-4.90912-4.219-4.90912-2.659 0-4.423 2.09662-4.423 5.11362 0 3.0171 1.738 5.0369 4.576 5.0369zm-3.061-5.9062c.102-1.5277 1.182-2.88921 2.908-2.88921 1.636 0 2.685 1.22731 2.685 2.88921h-5.593zM320.452 18h1.509v-6.2131c0-1.3295 1.048-2.3011 2.48-2.3011.403 0 .818.0767.921.10227V8.05398c-.173-.01279-.569-.02557-.793-.02557-1.176 0-2.199.66477-2.557 1.63636h-.102V8.18182h-1.458V18zm6.158 3.6818h1.508v-5.1903h.128c.332.5369.972 1.713 2.864 1.713 2.454 0 4.167-1.9687 4.167-5.088 0-3.0938-1.713-5.06252-4.193-5.06252-1.917 0-2.506 1.17613-2.838 1.6875h-.179V8.18182h-1.457V21.6818zm1.483-8.5909c0-2.1989.971-3.68181 2.812-3.68181 1.918 0 2.864 1.61081 2.864 3.68181 0 2.0966-.972 3.7585-2.864 3.7585-1.815 0-2.812-1.5341-2.812-3.7585zm12.934 5.1136c2.659 0 4.449-2.0198 4.449-5.0625 0-3.0681-1.79-5.08802-4.449-5.08802s-4.449 2.01992-4.449 5.08802c0 3.0427 1.79 5.0625 4.449 5.0625zm0-1.3551c-2.02 0-2.94-1.7386-2.94-3.7074 0-1.9687.92-3.73291 2.94-3.73291s2.94 1.76421 2.94 3.73291c0 1.9688-.92 3.7074-2.94 3.7074zM347.239 18h1.508V8.18182h-1.508V18zm.767-11.45455c.588 0 1.074-.46022 1.074-1.02272S348.594 4.5 348.006 4.5c-.588 0-1.074.46023-1.074 1.02273s.486 1.02272 1.074 1.02272zm4.473 5.54835c0-1.7131 1.061-2.68471 2.505-2.68471 1.4 0 2.25.91411 2.25 2.45451V18h1.509v-6.2386c0-2.50572-1.336-3.70742-3.324-3.70742-1.483 0-2.403.66477-2.864 1.66193h-.127V8.18182h-1.458V18h1.509v-5.9062zm12.75-3.91198h-2.096V5.82955h-1.509v2.35227h-1.483v1.27841h1.483v6.13637c0 1.7131 1.381 2.5312 2.659 2.5312.563 0 .921-.1022 1.125-.1789l-.306-1.3551c-.128.0255-.333.0767-.665.0767-.665 0-1.304-.2046-1.304-1.483V9.46023h2.096V8.18182zm3.98 8.02838h-1.637l-.077.7159c-.185 1.7323-.549 3.4581-.715 4.2699h1.15c.307-.8693.959-2.838 1.176-4.2954l.103-.6904zM371.668 18h8.003v-1.4062h-6.418v-4.4489h5.907v-1.4063h-5.907V6.31534h6.316V4.90909h-7.901V18zm11.138-9.81818h-1.738l3.119 4.90908L381.068 18h1.738l2.353-3.8097L387.511 18h1.738l-3.17-4.9091 3.17-4.90908h-1.738l-2.352 4.01418-2.353-4.01418zm11.64 10.02268c2.174 0 3.605-1.3295 3.861-3.0681h-1.508c-.282 1.0738-1.177 1.713-2.353 1.713-1.789 0-2.94-1.4829-2.94-3.7585 0-2.2244 1.176-3.68181 2.94-3.68181 1.33 0 2.123.81821 2.353 1.71311h1.508c-.256-1.84095-1.815-3.06822-3.886-3.06822-2.659 0-4.424 2.09662-4.424 5.08802 0 2.9404 1.688 5.0625 4.449 5.0625zm9.643 0c1.994 0 3.452-.9971 3.912-2.4801l-1.458-.4091c-.383 1.0228-1.272 1.5341-2.454 1.5341-1.771 0-2.992-1.1441-3.062-3.2471h7.127v-.6392c0-3.65628-2.173-4.90912-4.219-4.90912-2.659 0-4.423 2.09662-4.423 5.11362 0 3.0171 1.739 5.0369 4.577 5.0369zm-3.062-5.9062c.102-1.5277 1.183-2.88921 2.908-2.88921 1.637 0 2.685 1.22731 2.685 2.88921h-5.593zm10.39-7.38921h-1.508V18h1.508V4.90909zm4.473 11.30111h-1.636l-.077.7159c-.185 1.7323-.549 3.4581-.716 4.2699h1.151c.307-.8693.959-2.838 1.176-4.2954l.102-.6904zM423.409 18l1.317-3.7074h5.293L431.335 18h1.662l-4.806-13.09091h-1.637L421.747 18h1.662zm1.816-5.1136l2.096-5.90629h.103l2.096 5.90629h-4.295zm13.056 5.3181c2.173 0 3.605-1.3295 3.86-3.0681h-1.508c-.281 1.0738-1.176 1.713-2.352 1.713-1.79 0-2.941-1.4829-2.941-3.7585 0-2.2244 1.176-3.68181 2.941-3.68181 1.329 0 2.122.81821 2.352 1.71311h1.508c-.255-1.84095-1.815-3.06822-3.886-3.06822-2.659 0-4.423 2.09662-4.423 5.08802 0 2.9404 1.687 5.0625 4.449 5.0625zm9.514 0c2.174 0 3.605-1.3295 3.861-3.0681h-1.508c-.282 1.0738-1.177 1.713-2.353 1.713-1.79 0-2.94-1.4829-2.94-3.7585 0-2.2244 1.176-3.68181 2.94-3.68181 1.33 0 2.122.81821 2.353 1.71311h1.508c-.256-1.84095-1.815-3.06822-3.886-3.06822-2.659 0-4.424 2.09662-4.424 5.08802 0 2.9404 1.688 5.0625 4.449 5.0625zm9.643 0c1.994 0 3.451-.9971 3.912-2.4801l-1.458-.4091c-.383 1.0228-1.272 1.5341-2.454 1.5341-1.771 0-2.992-1.1441-3.062-3.2471h7.127v-.6392c0-3.65628-2.173-4.90912-4.219-4.90912-2.659 0-4.423 2.09662-4.423 5.11362 0 3.0171 1.739 5.0369 4.577 5.0369zm-3.062-5.9062c.102-1.5277 1.183-2.88921 2.908-2.88921 1.637 0 2.685 1.22731 2.685 2.88921h-5.593zm15.836-1.9176c-.473-1.39348-1.534-2.32672-3.477-2.32672-2.071 0-3.605 1.17613-3.605 2.83802 0 1.3552.805 2.2628 2.608 2.6847l1.636.3835c.991.2301 1.458.7032 1.458 1.3807 0 .8438-.895 1.5341-2.301 1.5341-1.234 0-2.007-.5305-2.276-1.5852l-1.432.3579c.352 1.6684 1.726 2.5568 3.733 2.5568 2.282 0 3.835-1.2464 3.835-2.9403 0-1.3679-.856-2.2308-2.608-2.6591l-1.457-.3579c-1.163-.2877-1.687-.6776-1.687-1.4319 0-.84371.894-1.45735 2.096-1.45735 1.317 0 1.86.72865 2.122 1.40625l1.355-.3835zm8.683 5.8295h-1.637l-.076.7159c-.186 1.7323-.55 3.4581-.716 4.2699h1.15c.307-.8693.959-2.838 1.176-4.2954l.103-.6904zM481.354 18h1.585v-5.8551h6.98V18h1.586V4.90909h-1.586v5.82951h-6.98V4.90909h-1.585V18zm16.85-9.81818h-2.097V5.82955h-1.508v2.35227h-1.483v1.27841h1.483v6.13637c0 1.7131 1.38 2.5312 2.659 2.5312.562 0 .92-.1022 1.125-.1789l-.307-1.3551c-.128.0255-.333.0767-.665.0767-.665 0-1.304-.2046-1.304-1.483V9.46023h2.097V8.18182zM499.933 18h1.508v-6.1364c0-1.4382 1.049-2.45451 2.225-2.45451 1.144 0 1.943.74791 1.943 1.86651V18h1.534v-6.392c0-1.2657.793-2.19891 2.173-2.19891 1.074 0 1.995.56889 1.995 2.01991V18h1.508v-6.571c0-2.30755-1.24-3.37502-2.991-3.37502-1.406 0-2.436.64559-2.941 1.66193h-.102c-.486-1.0483-1.342-1.66193-2.633-1.66193-1.279 0-2.225.61363-2.634 1.66193h-.128V8.18182h-1.457V18zm16.613-13.09091h-1.509V18h1.509V4.90909zm3.731 0h-1.508V18h1.508V4.90909zM523.6 18.1023c.633 0 1.15-.5178 1.15-1.1506s-.517-1.1506-1.15-1.1506c-.633 0-1.151.5178-1.151 1.1506s.518 1.1506 1.151 1.1506zM537.656 9c-.486-2.68466-2.633-4.26989-5.267-4.26989-3.349 0-5.778 2.58239-5.778 6.72439 0 4.1421 2.429 6.7245 5.778 6.7245 2.634 0 4.781-1.5852 5.267-4.2699h-1.585c-.384 1.8153-1.943 2.7869-3.682 2.7869-2.378 0-4.244-1.8409-4.244-5.2415 0-3.40052 1.866-5.24143 4.244-5.24143 1.739 0 3.298.97159 3.682 2.78693h1.585zm8.772 1.3807c-.473-1.39348-1.534-2.32672-3.478-2.32672-2.071 0-3.605 1.17613-3.605 2.83802 0 1.3552.806 2.2628 2.608 2.6847l1.637.3835c.99.2301 1.457.7032 1.457 1.3807 0 .8438-.895 1.5341-2.301 1.5341-1.234 0-2.007-.5305-2.276-1.5852l-1.432.3579c.352 1.6684 1.726 2.5568 3.733 2.5568 2.282 0 3.836-1.2464 3.836-2.9403 0-1.3679-.857-2.2308-2.608-2.6591l-1.458-.3579c-1.163-.2877-1.687-.6776-1.687-1.4319 0-.84371.895-1.45735 2.096-1.45735 1.317 0 1.86.72865 2.123 1.40625l1.355-.3835zm8.864 0c-.473-1.39348-1.534-2.32672-3.477-2.32672-2.071 0-3.605 1.17613-3.605 2.83802 0 1.3552.805 2.2628 2.608 2.6847l1.636.3835c.991.2301 1.457.7032 1.457 1.3807 0 .8438-.895 1.5341-2.301 1.5341-1.234 0-2.007-.5305-2.275-1.5852l-1.432.3579c.351 1.6684 1.726 2.5568 3.733 2.5568 2.282 0 3.835-1.2464 3.835-2.9403 0-1.3679-.857-2.2308-2.608-2.6591l-1.457-.3579c-1.164-.2877-1.688-.6776-1.688-1.4319 0-.84371.895-1.45735 2.097-1.45735 1.316 0 1.86.72865 2.122 1.40625l1.355-.3835z" fill="#181717"/></svg>